<svg width="111" height="77" viewBox="0 0 111 77" fill="none" xmlns="http://www.w3.org/2000/svg">
<g clip-path="url(#clip0)">
<path d="M11.1176 13.0962C14.1182 13.0962 16.5507 10.6734 16.5507 7.68481C16.5507 4.69619 14.1182 2.27344 11.1176 2.27344C8.11694 2.27344 5.68445 4.69619 5.68445 7.68481C5.68445 10.6734 8.11694 13.0962 11.1176 13.0962Z" fill="#FA4659"/>
<path opacity="0.1" d="M10.4538 18.7013C12.735 23.8334 9.82506 29.7429 6.3997 34.1928C5.25323 35.6851 3.98757 37.2495 3.82863 39.1211C3.63697 41.4107 5.19363 43.5152 7.04013 44.891C10.4082 47.3983 15.0081 48.1735 19.0166 46.9082C22.4806 45.8152 25.3929 43.3464 28.8872 42.3512C34.7305 40.6844 40.9245 43.4477 45.9287 46.8908C49.4709 49.3246 53.2644 52.2905 57.5347 51.769C60.5394 51.4024 63.0894 49.3014 64.8202 46.8279C65.6558 45.6336 66.3827 44.2951 67.5993 43.4896C68.3227 43.01 69.1723 42.7563 70.0219 42.5747C77.7807 40.923 86.0151 44.9539 93.6711 42.8808C98.8424 41.484 102.965 37.4101 105.53 32.7227C108.094 28.0353 109.29 22.7427 110.287 17.4989C110.995 13.7742 111.583 9.7503 109.955 6.32469C108.233 2.69771 104.245 0.498939 100.238 0.0868883C96.2305 -0.325163 92.2114 0.812052 88.5196 2.41602C83.9069 4.42506 79.3853 7.23725 74.3507 7.24656C70.9218 7.25355 67.6519 5.9429 64.3738 4.94304C58.8927 3.27272 53.1931 2.44279 47.5134 1.67689C42.0756 0.943581 36.584 0.261486 31.1135 0.694489C27.2429 1.00062 23.8245 2.47422 20.0684 3.15632C17.6201 3.60096 15.16 3.27272 12.7572 4.01767C9.79818 4.93954 6.75497 7.07546 6.59136 10.4394C6.43709 13.6415 9.24423 15.9788 10.4538 18.7013Z" fill="#FA4659"/>
<path d="M70.342 23.2718C69.843 21.9762 68.5563 18.9313 67.709 19.5354C66.6385 20.2989 68.7795 23.6722 68.7795 23.6722C68.8403 24.2914 67.6366 25.5799 66.9914 26.2225C66.9914 26.1712 66.9914 26.1421 66.9914 26.1421C66.9853 26.1666 66.9759 26.1901 66.9634 26.212L66.9096 26.1829C66.8953 26.2342 66.8693 26.2816 66.8337 26.3214C66.8337 26.2341 66.8278 26.1829 66.8278 26.1829C66.704 26.7055 64.5419 27.3678 64.5419 27.3678C64.5419 27.3678 64.4835 27.3678 64.383 27.3678C63.7823 27.3678 62.2186 27.2328 61.494 26.0781C61.1193 25.4526 60.6398 24.8956 60.0764 24.4311C59.8835 24.2805 59.6491 24.192 59.4045 24.1773C57.4025 24.0493 55.7816 23.0401 55.4579 22.8248L55.3983 22.784L55.3854 22.8213C55.3095 22.713 55.2358 22.5978 55.1669 22.4791L55.1318 22.4151C55.6164 22.1728 56.0241 21.8016 56.3098 21.3426C56.5955 20.8836 56.748 20.3548 56.7504 19.8147C56.7504 19.7949 56.7504 19.774 56.7504 19.7542C56.9265 19.451 57.0192 19.1069 57.0192 18.7567V18.4075L57.4762 18.0024C57.6853 17.8173 57.9016 17.6218 58.0079 17.3669C58.0506 17.2637 58.0698 17.1524 58.064 17.0409C58.0742 16.9455 58.0599 16.849 58.0223 16.7606C57.9846 16.6722 57.925 16.5948 57.849 16.5358C57.4984 16.2948 56.914 16.5358 56.6604 16.2005C56.5436 16.0492 56.5646 15.8432 56.5073 15.6651C56.3905 15.3031 55.9697 15.1076 55.5806 15.1017C55.1914 15.0959 54.8186 15.2368 54.4446 15.3427C53.6589 15.5648 52.839 15.6414 52.0255 15.5685C51.8055 15.5295 51.5796 15.5374 51.3629 15.5918C51.2305 15.6463 51.1128 15.731 51.0194 15.8392C50.9261 15.9474 50.8595 16.076 50.8253 16.2145C50.7964 16.3186 50.7791 16.4256 50.7739 16.5334C50.4478 16.8997 50.2674 17.3721 50.2667 17.8615V18.7567C50.2674 19.2345 50.4394 19.6964 50.7517 20.0592C50.7885 20.4803 50.9171 20.8884 51.1284 21.2551C51.3397 21.6218 51.6287 21.9381 51.9752 22.1823C51.9752 22.2055 51.9752 22.2292 51.9752 22.2533L51.9904 22.2626C51.9715 22.5401 51.9285 22.8154 51.8619 23.0855V23.0262C51.8619 23.0262 50.2258 23.8933 48.4728 23.9143H48.2799C47.9341 23.9027 47.5979 24.0283 47.345 24.2635C46.8261 24.75 45.9169 25.5194 45.3583 25.5194C45.2414 25.5194 42.2917 26.0933 41.8032 26.1887L40.8904 25.2983L40.8624 25.3506L40.8086 25.2983C40.7088 25.3059 40.6097 25.3203 40.5118 25.3413C40.0443 24.7896 39.1094 23.5069 38.8932 21.7853C38.8932 21.7853 40.9115 19.4958 40.1694 17.3622C39.536 15.5441 37.7911 19.4411 37.2956 20.6155C37.2089 20.8205 37.1982 21.0494 37.2652 21.2616L38.9049 26.5251C38.7487 26.933 38.704 27.3748 38.7752 27.8055H38.7565L39.9508 29.3315C39.9508 29.3315 40.8495 29.7133 42.2554 29.7063C43.2859 29.708 44.307 29.5128 45.2636 29.1313H45.5406L45.488 29.151H46.9102L47.8148 31.8759C47.7844 32.1239 47.3473 35.5844 46.9967 36.3584C46.8927 36.6171 46.8457 36.8949 46.8588 37.1732C46.8772 37.7079 46.9648 38.2381 47.1194 38.7504L47.9118 38.7213L47.8814 38.783C47.2106 40.153 46.0898 42.5939 45.4272 44.8753L44.2737 47.2033L45.1385 57.6443H45.1736L45.2402 57.6547C45.3337 57.6687 45.4739 57.6897 45.6586 57.7129L45.5908 57.8293L43.6847 60.9721C43.6847 60.9721 42.3256 63.7435 45.3325 63.2209C45.3325 63.2209 46.4439 62.8997 46.8974 61.0093L48.8748 59.1621C48.8748 59.1621 48.9671 57.9353 48.4073 57.4452C48.3722 56.8784 48.2834 55.2232 48.4202 54.8251C48.5849 54.3432 47.719 48.8015 47.719 48.8015C47.719 48.8015 50.8486 42.3355 52.7442 42.1749C52.8832 42.1652 53.0227 42.1834 53.1544 42.2284C54.7123 42.7336 56.5997 46.4851 57.1548 47.6526L57.1805 47.7062V47.7166L57.2015 47.762V47.7748L57.2202 47.8144V47.8249L57.2366 47.861V47.8691L57.2506 47.8982V47.9099L57.2611 47.932V47.9413L57.2681 47.9576V47.9669V47.9774L57.274 47.9913L57.5206 55.2604L57.5451 55.2732H57.5568L57.5358 55.4234L57.4282 56.1741C57.4282 56.1741 58.7874 59.0259 58.7044 59.3867C58.6215 59.7476 59.6101 61.1944 61.0102 60.7928C62.4103 60.3913 61.577 58.1273 61.577 58.1273L60.2284 55.3594L60.1688 55.236C60.3031 55.1539 60.4298 55.06 60.5474 54.9555C60.5474 54.9555 60.136 51.9838 60.5474 51.3413C60.9588 50.6988 61.0827 47.7667 61.0827 47.7667C61.0827 47.7667 60.794 45.7588 60.2997 44.8753L58.2288 37.5131C58.8493 38.0881 59.332 38.3128 59.7352 38.2976H59.8018C59.979 38.301 60.154 38.2576 60.309 38.1719C60.3922 38.1252 60.4705 38.0702 60.5427 38.0078C60.5565 37.996 60.5694 37.9831 60.5813 37.9694C61.1575 37.4875 59.9222 35.5995 59.2221 34.4774C58.5478 33.3949 59.4769 30.4535 59.547 30.2347C59.6094 30.1891 59.6764 30.1501 59.7469 30.1183C59.8918 30.0565 60.0473 30.0229 60.205 30.0194C60.8758 30.0427 61.7009 30.4268 62.7223 30.62C63.4321 30.7403 64.1515 30.796 64.8715 30.7864H64.9136C65.1999 30.7864 65.4593 30.7806 65.6697 30.7725C65.8616 30.765 66.0493 30.7144 66.219 30.6247C66.3643 30.5402 66.4959 30.4343 66.6093 30.3104L68.402 28.2932L68.3553 28.3153C68.4422 28.0865 68.4422 27.834 68.3553 27.6053L70.2497 24.3461C70.3453 24.1855 70.4033 24.0055 70.4193 23.8195C70.4353 23.6334 70.4089 23.4462 70.342 23.2718Z" fill="url(#paint0_linear)"/>
<path d="M49.0583 58.8863L47.1498 60.708C46.7127 62.5704 45.6387 62.8858 45.6387 62.8858C42.7369 63.4003 44.0482 60.6742 44.0482 60.6742L45.8888 57.5722L46.1156 57.1893C46.1156 57.1893 47.428 56.7935 48.3021 57.031C48.4125 57.0611 48.5144 57.116 48.6001 57.1916C49.1482 57.6653 49.0583 58.8863 49.0583 58.8863Z" fill="#444176"/>
<path d="M60.8256 60.5091C59.4735 60.9049 58.5198 59.4801 58.6052 59.1228C58.6905 58.7655 57.3699 55.9591 57.3699 55.9591L57.4727 55.2188L57.5685 54.5332L59.789 54.6915L59.9982 55.1292L61.3001 57.8587C61.3001 57.8587 62.1778 60.1134 60.8256 60.5091Z" fill="#444176"/>
<path opacity="0.1" d="M48.6212 57.5012C48.412 57.8585 46.7163 57.6781 45.89 57.5663L46.1167 57.1834C46.1167 57.1834 47.4291 56.7876 48.3033 57.0251C48.4137 57.0552 48.5156 57.1102 48.6013 57.1857C48.613 57.3789 48.6212 57.5012 48.6212 57.5012Z" fill="black"/>
<path opacity="0.1" d="M60.0006 55.1272C58.8635 55.8815 57.6528 55.3111 57.4705 55.2168L57.5663 54.5312L59.7868 54.6896L60.0006 55.1272Z" fill="black"/>
<path d="M60.3091 51.1657C59.9117 51.7989 60.3091 54.7298 60.3091 54.7298C58.9967 55.9182 57.447 55.0464 57.447 55.0464L57.2133 47.8797C57.2133 47.8797 54.6293 41.9795 52.8004 42.1378C50.9714 42.2961 47.9504 48.6712 47.9504 48.6712C47.9504 48.6712 48.7848 54.135 48.6259 54.6076C48.4669 55.0802 48.6259 57.379 48.6259 57.379C48.3477 57.8539 45.4459 57.379 45.4459 57.379L44.6115 47.0836L45.7194 44.7859C46.3563 42.537 47.4385 40.1299 48.086 38.7797C48.4073 38.1081 48.6224 37.6984 48.6224 37.6984L50.7377 37.2595L57.6036 35.8418L60.0707 44.7859C60.5475 45.6565 60.8256 47.6365 60.8256 47.6365C60.8256 47.6365 60.7064 50.5325 60.3091 51.1657Z" fill="#565387"/>
<g opacity="0.1">
<path opacity="0.1" d="M58.0829 55.0446L57.8491 47.8779C57.8491 47.8779 55.2652 41.9776 53.4362 42.1359C53.3545 42.1439 53.274 42.1619 53.1967 42.1895C54.98 42.7796 57.2134 47.8779 57.2134 47.8779L57.4471 55.0446C57.9347 55.292 58.4844 55.3919 59.0283 55.3321C58.6986 55.2926 58.3785 55.1952 58.0829 55.0446Z" fill="black"/>
<path opacity="0.1" d="M46.0771 57.3813L45.2426 47.0859L46.3552 44.7847C46.9921 42.5358 48.0743 40.1287 48.7217 38.7785C49.0431 38.1069 49.2582 37.6972 49.2582 37.6972L51.3735 37.2583L57.641 35.9605L57.6071 35.8359L50.7377 37.2583L48.6224 37.6972C48.6224 37.6972 48.4074 38.1069 48.086 38.7785C47.4362 40.1287 46.3564 42.5405 45.7194 44.7847L44.6069 47.0812L45.4413 57.3767C45.4413 57.3767 47.026 57.6362 47.9656 57.5792C47.3332 57.545 46.7028 57.479 46.0771 57.3813Z" fill="black"/>
</g>
<path d="M41.2423 25.4883C41.2423 25.4883 38.9762 25.6047 39.2941 27.9827L39.9299 28.0619L40.8835 27.0329L41.3603 26.1622V25.9644L41.2423 25.4883Z" fill="#CED2DF"/>
<path opacity="0.1" d="M41.2423 25.4883C41.2423 25.4883 38.9762 25.6047 39.2941 27.9827L39.9299 28.0619L40.8835 27.0329L41.3603 26.1622V25.9644L41.2423 25.4883Z" fill="black"/>
<path d="M66.4516 26.3594C66.4516 26.3594 68.3215 27.3488 67.8435 28.4976L67.2475 28.7304L66.4528 28.2951L66.3359 27.2661L66.4154 26.5538L66.4516 26.3594Z" fill="#CED2DF"/>
<path opacity="0.1" d="M66.4516 26.3594C66.4516 26.3594 68.3215 27.3488 67.8435 28.4976L67.2475 28.7304L66.4528 28.2951L66.3359 27.2661L66.4154 26.5538L66.4516 26.3594Z" fill="black"/>
<path d="M54.4459 16.1426H52.8553C51.4941 16.1426 50.3906 17.2417 50.3906 18.5974C50.3906 19.9532 51.4941 21.0523 52.8553 21.0523H54.4459C55.8071 21.0523 56.9106 19.9532 56.9106 18.5974C56.9106 17.2417 55.8071 16.1426 54.4459 16.1426Z" fill="#88455E"/>
<path d="M41.2271 25.8244L39.8352 28.036L39.7183 27.6425L37.8274 21.506C37.7628 21.2968 37.7731 21.0718 37.8566 20.8693C38.3346 19.7123 40.0198 15.8642 40.6311 17.6625C41.3463 19.7577 39.3981 22.0182 39.3981 22.0182C39.6202 23.8526 40.6544 25.1819 41.0611 25.6428C41.164 25.7627 41.2271 25.8244 41.2271 25.8244Z" fill="#EC8C9C"/>
<path d="M66.1536 26.7739C66.1536 26.7739 68.3401 24.7148 68.2572 23.8837C68.2572 23.8837 66.1898 20.5582 67.2241 19.8098C68.0421 19.2138 69.2844 22.2169 69.7659 23.4938C69.8296 23.6639 69.8551 23.8458 69.8408 24.0267C69.8265 24.2077 69.7726 24.3833 69.6829 24.5414L67.0698 29.1496L66.1536 26.7739Z" fill="#EC8C9C"/>
<path d="M51.9998 21.034C51.9998 21.034 52.3972 23.568 51.2449 24.5189C50.0925 25.4699 54.5452 25.4641 54.5452 25.4641L56.1357 23.9986C56.1357 23.9986 54.3068 22.2957 54.863 21.0293L51.9998 21.034Z" fill="#EC8C9C"/>
<path opacity="0.1" d="M51.9203 23.9239C51.9203 23.9239 53.63 25.1915 55.3386 23.7656L58.1212 29.5076L57.9623 36.5159C57.9623 36.5159 52.1972 39.4853 49.812 37.6648C47.4267 35.8443 49.4146 34.8933 49.4146 34.8933L48.8584 29.5087L49.4544 26.0238C49.4544 26.0238 50.5272 24.3604 50.6079 24.3604C50.6885 24.3604 51.9203 23.9239 51.9203 23.9239Z" fill="black"/>
<path d="M51.9204 23.8438C51.9204 23.8438 53.6301 25.1138 55.3399 23.6855L58.1225 29.4275L57.9636 36.4358C57.9636 36.4358 52.1985 39.4052 49.8133 37.5847C47.428 35.7642 49.4159 34.8132 49.4159 34.8132L48.8596 29.4287L49.4557 25.9437C49.4557 25.9437 50.5285 24.2803 50.6091 24.2803C50.6898 24.2803 51.9204 23.8438 51.9204 23.8438Z" fill="#EBF1F6"/>
<path opacity="0.1" d="M51.9205 23.252C51.9205 23.252 50.2995 24.1715 48.5395 24.1261C48.3744 24.121 48.2099 24.1486 48.0557 24.2073C47.9014 24.2661 47.7604 24.3548 47.6408 24.4683C47.1395 24.9479 46.2618 25.7068 45.7184 25.7068C45.6015 25.7068 42.2194 26.3796 42.2194 26.3796L41.3253 25.4891C41.3253 25.4891 39.9931 28.0825 39.3573 27.9638L40.5108 29.4688C40.5108 29.4688 42.6974 30.4186 45.5594 29.2709H47.2294L48.1036 31.9632C48.1036 31.9632 47.6665 35.6065 47.3089 36.398C46.9513 37.1895 47.4258 38.7341 47.4258 38.7341L50.566 38.6177C50.566 38.6177 50.7249 37.0731 50.9633 36.8718C51.2017 36.6704 50.1289 29.8634 50.1289 29.8634C50.1289 29.8634 49.4137 26.0222 52.0373 24.6371L51.9205 23.252Z" fill="black"/>
<path opacity="0.1" d="M50.7365 37.2637C50.6209 37.7334 50.5385 38.2107 50.49 38.6919L48.086 38.7827C48.4074 38.1111 48.6224 37.7013 48.6224 37.7013L50.7365 37.2637Z" fill="black"/>
<path opacity="0.1" d="M41.2271 25.8234L39.8352 28.0349L39.7183 27.6415C40.229 27.1363 40.8274 26.0806 41.0658 25.6406C41.164 25.7617 41.2271 25.8234 41.2271 25.8234Z" fill="black"/>
<path d="M51.9204 23.252C51.9204 23.252 50.2188 24.1715 48.46 24.1261C48.2949 24.121 48.1304 24.1486 47.9761 24.2073C47.8218 24.2661 47.6808 24.3548 47.5612 24.4683C47.0599 24.9479 46.1822 25.7068 45.6388 25.7068C45.5219 25.7068 42.1398 26.3796 42.1398 26.3796L41.2423 25.488C41.2423 25.488 39.91 28.0813 39.2742 27.9626L40.4277 29.4676C40.4277 29.4676 42.6143 30.4175 45.4763 29.2698H47.1464L48.0205 31.9609C48.0205 31.9609 47.5835 35.6042 47.2258 36.3957C46.8682 37.1872 47.3427 38.7318 47.3427 38.7318L50.4829 38.6154C50.4829 38.6154 50.6418 37.0708 50.8803 36.8694C51.1187 36.6681 50.0458 29.8611 50.0458 29.8611C50.0458 29.8611 49.3306 26.0199 51.9543 24.6348L51.9204 23.252Z" fill="#CED2DF"/>
<path opacity="0.1" d="M55.34 23.0117C55.34 23.0117 56.9621 24.2432 59.1276 24.3852C59.3646 24.4 59.5911 24.4874 59.7762 24.6355C60.3224 25.0969 60.7852 25.6481 61.1447 26.2651C62.0189 27.6909 64.1658 27.5326 64.1658 27.5326C64.1658 27.5326 66.253 26.8796 66.3722 26.3687C66.3722 26.3687 66.4318 29.1622 67.7442 28.4871L66.0181 30.4682C65.9093 30.5934 65.7759 30.695 65.6262 30.7669C65.4764 30.8387 65.3135 30.8793 65.1474 30.8861C64.4988 30.9117 63.3722 30.9198 62.4209 30.7359C60.9893 30.4589 59.9562 29.7861 59.2013 30.3797C59.2013 30.3797 58.2079 33.4678 58.8834 34.5771C59.5589 35.6864 60.7532 37.5464 60.1958 38.0225C59.6383 38.4985 58.9628 38.4578 57.8503 37.3101C56.7377 36.1624 56.6173 34.2221 56.6173 34.2221L56.8955 29.2332C56.8955 29.2332 55.8226 25.4712 54.7919 24.7193L55.34 23.0117Z" fill="black"/>
<path opacity="0.1" d="M67.9019 28.4377L66.1711 30.427C66.0561 30.5589 65.9137 30.6646 65.7539 30.7366C65.6117 30.8005 65.4586 30.8364 65.3028 30.8425C64.6542 30.8693 63.5276 30.8774 62.5763 30.6924C61.237 30.4328 60.246 29.8275 59.505 30.2361C59.4525 30.2649 59.4025 30.298 59.3554 30.335C59.3554 30.335 58.3621 33.4231 59.0375 34.5323C59.713 35.6416 60.9074 37.5017 60.35 37.9777C60.2567 38.0595 60.1519 38.1273 60.0391 38.1791C59.5389 38.4038 58.9183 38.2094 58.0044 37.2654C56.8919 36.1165 56.7715 34.1773 56.7715 34.1773L57.0496 29.1885C57.0496 29.1885 55.9768 25.4265 54.946 24.6745L55.4007 23.0508C55.7139 23.2626 57.2775 24.2578 59.2105 24.3847C59.4475 24.3995 59.674 24.4869 59.8591 24.635C60.4052 25.0965 60.8681 25.6476 61.2276 26.2645C62.1018 27.6904 64.2486 27.5321 64.2486 27.5321C64.7633 27.3686 65.2659 27.1695 65.7527 26.9362C66.0577 26.7872 66.3265 26.6242 66.4539 26.4706C66.4897 26.4304 66.5157 26.3827 66.5299 26.3309C66.5299 26.3309 66.5906 29.1105 67.9019 28.4377Z" fill="black"/>
<path d="M67.8223 28.4774L66.0927 30.469C65.9976 30.5783 65.8836 30.6698 65.7561 30.739C65.5928 30.8274 65.4113 30.8772 65.2255 30.8845C64.5769 30.9113 63.4503 30.9195 62.499 30.7344C61.2077 30.4841 60.2388 29.9115 59.5084 30.2385C59.425 30.2747 59.3464 30.3213 59.2747 30.377C59.2747 30.377 58.2813 33.4651 58.9568 34.5744C59.6323 35.6837 60.8267 37.5437 60.2692 38.0198C60.1971 38.0816 60.1188 38.1358 60.0355 38.1816C59.5213 38.4644 58.8855 38.298 57.9214 37.3074C56.8088 36.1586 56.6884 34.2194 56.6884 34.2194L56.9666 29.2305C56.9666 29.2305 55.8937 25.4685 54.863 24.7166L55.3398 23.0137L55.3971 23.0532C55.7103 23.2651 57.2739 24.2603 59.2069 24.3872C59.4438 24.402 59.6704 24.4894 59.8555 24.6374C60.4016 25.099 60.8644 25.6501 61.224 26.267C62.0982 27.6929 64.245 27.5346 64.245 27.5346C64.7597 27.3711 65.2623 27.1719 65.7491 26.9386C66.1102 26.7547 66.4047 26.5534 66.4503 26.3694C66.4503 26.3694 66.4503 26.4055 66.4503 26.4695C66.4854 26.9503 66.6607 29.0722 67.8223 28.4774Z" fill="#CED2DF"/>
<path opacity="0.1" d="M54.8981 21.0918H51.9764C52.0407 21.5545 52.0591 22.0223 52.0314 22.4886C52.4774 22.8012 53.0004 22.9869 53.5444 23.0259C54.0883 23.0648 54.6327 22.9555 55.119 22.7097C54.8385 22.1929 54.6679 21.6063 54.8981 21.0918Z" fill="black"/>
<path d="M53.7493 22.9718C55.352 22.9718 56.6511 21.6778 56.6511 20.0816C56.6511 18.4854 55.352 17.1914 53.7493 17.1914C52.1467 17.1914 50.8475 18.4854 50.8475 20.0816C50.8475 21.6778 52.1467 22.9718 53.7493 22.9718Z" fill="#EC8C9C"/>
<path opacity="0.1" d="M53.1463 19.5676C53.47 19.5292 53.7937 19.4151 54.1128 19.4791C54.4026 19.5373 54.6492 19.7364 54.939 19.7969C55.4976 19.9133 56.0165 19.5036 56.4384 19.1218L57.35 18.2953C57.5522 18.1126 57.7602 17.9205 57.8642 17.6691C57.9682 17.4177 57.932 17.0871 57.7099 16.9288C57.3768 16.696 56.803 16.9288 56.5623 16.5982C56.4536 16.4493 56.47 16.2491 56.4139 16.071C56.297 15.7148 55.895 15.5204 55.5187 15.5157C55.1424 15.5111 54.7824 15.6484 54.4225 15.7485C53.6642 15.9676 52.8713 16.043 52.0851 15.9709C51.8729 15.9322 51.6548 15.9397 51.4459 15.993C51.3172 16.0477 51.2033 16.1317 51.1131 16.2382C51.023 16.3447 50.9593 16.4708 50.927 16.6064C50.747 17.2396 51.0544 18.2604 51.3629 18.8273C51.6714 19.3941 52.5304 19.6432 53.1463 19.5676Z" fill="black"/>
<path d="M53.1463 19.4875C53.47 19.4491 53.7937 19.335 54.1128 19.399C54.4026 19.4572 54.6492 19.6563 54.939 19.7168C55.4976 19.8332 56.0165 19.4235 56.4384 19.0417L57.35 18.2153C57.5522 18.0325 57.7602 17.8405 57.8642 17.589C57.9682 17.3376 57.932 17.007 57.7099 16.8487C57.3768 16.6159 56.803 16.8487 56.5623 16.5182C56.4536 16.3692 56.47 16.169 56.4139 15.9909C56.297 15.6347 55.895 15.4403 55.5187 15.4357C55.1424 15.431 54.7824 15.5684 54.4225 15.6685C53.6642 15.8875 52.8713 15.963 52.0851 15.8908C51.8729 15.8521 51.6548 15.8596 51.4459 15.9129C51.3172 15.9676 51.2033 16.0516 51.1131 16.1581C51.023 16.2647 50.9593 16.3908 50.927 16.5263C50.747 17.1595 51.0544 18.1803 51.3629 18.7472C51.6714 19.3141 52.5304 19.5573 53.1463 19.4875Z" fill="#88455E"/>
<path opacity="0.1" d="M48.0848 31.9805C48.0848 31.9805 48.7206 32.0596 49.0385 32.4554C49.3564 32.8511 49.9126 32.9699 49.9126 32.9699" fill="black"/>
<path opacity="0.1" d="M42.3596 26.7539C42.3596 26.7539 42.8785 27.9074 42.5583 28.0238C42.2381 28.1402 42.3596 28.9736 42.3596 28.9736" fill="black"/>
<g opacity="0.1">
<path opacity="0.1" d="M42.5383 26.3579C42.5383 26.3579 45.9169 25.6851 46.0338 25.6851C46.5784 25.6851 47.4549 24.9262 47.9562 24.4466C48.1087 24.3011 48.2963 24.1973 48.5008 24.1451H48.4576C48.2925 24.14 48.128 24.1676 47.9737 24.2263C47.8195 24.2851 47.6784 24.3738 47.5589 24.4874C47.0575 24.9669 46.1799 25.7258 45.6364 25.7258C45.5418 25.7258 43.3797 26.153 42.5021 26.3265L42.5383 26.3579Z" fill="black"/>
<path opacity="0.1" d="M51.925 23.4174V23.2695C51.1122 23.6823 50.2376 23.961 49.3352 24.0948C50.2305 24.0154 51.106 23.7864 51.925 23.4174Z" fill="black"/>
<path opacity="0.1" d="M47.7471 38.7113C47.7471 38.7113 47.2703 37.1666 47.6302 36.3751C47.9902 35.5836 48.4249 31.9403 48.4249 31.9403L47.5531 29.248H45.8784L45.7767 29.2876H47.1499L48.0206 31.9811C48.0206 31.9811 47.5835 35.6244 47.2259 36.4159C46.8683 37.2074 47.3428 38.752 47.3428 38.752L50.483 38.6356V38.6111L47.7471 38.7113Z" fill="black"/>
</g>
<g opacity="0.1">
<path opacity="0.1" d="M60.3091 37.3855C60.237 37.4473 60.1586 37.5016 60.0753 37.5473C59.5611 37.8302 58.9254 37.6637 57.9612 36.6732C57.0777 35.7618 56.8206 34.3452 56.7516 33.8086L56.7283 34.2183C56.7283 34.2183 56.8451 36.1587 57.9612 37.3064C58.9254 38.3004 59.5611 38.4634 60.0753 38.1805C60.1586 38.1348 60.237 38.0805 60.3091 38.0187C60.4762 37.8756 60.4855 37.6067 60.3979 37.2714C60.3762 37.315 60.346 37.3537 60.3091 37.3855Z" fill="black"/>
<path opacity="0.1" d="M67.2603 28.5355L66.1349 29.8311C66.0398 29.9404 65.9258 30.0318 65.7983 30.1011C65.635 30.1895 65.4535 30.2392 65.2677 30.2466C64.6191 30.2734 63.4925 30.2815 62.5412 30.0965C61.2499 29.8462 60.281 29.2735 59.5506 29.6006C59.4672 29.6368 59.3886 29.6833 59.3169 29.7391C59.3169 29.7391 58.6753 31.7342 58.7735 33.0926C58.8494 31.8226 59.3169 30.3723 59.3169 30.3723C59.3886 30.3165 59.4672 30.27 59.5506 30.2338C60.2822 29.9067 61.2499 30.4794 62.5412 30.7297C63.4925 30.9136 64.618 30.9054 65.2677 30.8798C65.4535 30.8724 65.635 30.8227 65.7983 30.7343C65.9255 30.6661 66.0395 30.5758 66.1349 30.4678L67.8657 28.4785C67.7761 28.5341 67.6748 28.5681 67.5697 28.578C67.4647 28.5879 67.3588 28.5734 67.2603 28.5355Z" fill="black"/>
</g>
<path d="M16.4362 42.793C16.45 42.8064 16.4679 42.8149 16.487 42.8175C16.5062 42.82 16.5256 42.8163 16.5425 42.8069C16.5066 42.8076 16.4707 42.8029 16.4362 42.793Z" fill="url(#paint1_linear)"/>
<path d="M28.346 23.5129C28.1356 23.4523 27.8353 23.3534 27.4741 23.2277C27.8494 22.7468 28.124 22.1959 28.2817 21.6074L28.2513 21.619C28.2618 21.583 28.2723 21.548 28.2817 21.5108C27.5887 21.7913 26.822 21.3164 26.3335 20.7065C25.845 20.0966 25.5155 19.34 24.9802 18.7789C24.7572 18.5557 24.5173 18.3499 24.2626 18.1632C24.1049 18.0468 23.9354 17.9152 23.7426 17.9094C23.4306 17.9001 23.1863 18.2051 22.886 18.2947C22.6883 18.339 22.4825 18.3314 22.2888 18.2726C21.5139 18.0957 20.7695 17.7686 19.9783 17.6824C19.555 17.6304 19.1254 17.6786 18.7243 17.8233C18.327 17.9734 18.1458 18.2726 17.8245 18.5124C17.4739 18.7696 16.789 18.7638 16.3812 18.8092C15.8862 18.8655 15.3879 18.8861 14.8899 18.8709C14.6038 18.8462 14.3157 18.8567 14.0321 18.9023C13.4396 19.0315 12.964 19.5006 12.5199 19.9499C12.3987 20.0515 12.3114 20.1876 12.2698 20.3398C12.2641 20.3827 12.2641 20.4261 12.2698 20.469C12.2653 20.5864 12.2856 20.7034 12.3294 20.8124C12.4661 21.2164 12.6593 21.5993 12.9032 21.9496C13.0843 22.208 13.2959 22.4513 13.3987 22.7574C13.4475 22.9079 13.4731 23.0649 13.4747 23.223C13.4696 23.3909 13.4521 23.5582 13.4221 23.7235C13.3437 24.1806 13.2147 24.6275 13.0376 25.0563C12.9276 25.2764 12.852 25.5119 12.8132 25.7547C12.8099 25.8043 12.8099 25.8541 12.8132 25.9037C12.784 26.6719 13.5623 27.2248 13.7131 27.9884C13.7255 28.0517 13.7329 28.1159 13.7353 28.1804C13.7189 28.6565 13.4466 29.1221 13.0446 29.3072C13.0797 29.3211 13.1159 29.3328 13.1521 29.3444C13.1176 29.366 13.0816 29.3855 13.0446 29.4026C13.1182 29.4306 13.193 29.455 13.269 29.4748C12.8121 29.8712 12.4281 30.3438 12.1342 30.8716C10.7821 33.3788 1.6244 38.2897 1.6244 38.2897L1.75997 38.3665L1.65011 38.4375C0.857755 38.9624 -1.00159 40.4931 0.678949 42.4288C0.678949 42.4288 1.99136 40.3662 2.9111 39.4874C2.952 39.4478 2.99291 39.4117 3.02797 39.378C3.04817 39.409 3.06172 39.4438 3.06776 39.4802C3.07379 39.5167 3.07218 39.554 3.06303 39.5898L9.084 36.2201C9.084 36.2201 11.2238 34.7279 11.821 34.3915C12.2413 34.1306 12.6988 33.9344 13.1778 33.8095L13.1077 33.8386C13.3328 33.7769 13.5649 33.744 13.7984 33.7408C14.8642 33.7571 16.0189 34.5346 16.3987 37.6134C16.9082 41.7362 16.6722 42.48 16.5085 42.5813C16.4884 42.5798 16.4684 42.5763 16.4489 42.5708C16.454 42.5752 16.4595 42.5791 16.4653 42.5824C16.4431 42.5809 16.4212 42.577 16.3999 42.5708C16.4116 42.5816 16.426 42.5891 16.4415 42.5928C16.4571 42.5965 16.4733 42.5961 16.4887 42.5917C16.4997 42.5951 16.5114 42.5961 16.5228 42.5947C16.5343 42.5933 16.5454 42.5895 16.5553 42.5836C16.5821 42.5852 16.6091 42.5852 16.6359 42.5836C16.6359 42.6216 16.6332 42.6604 16.6277 42.7C16.6196 42.7 16.5798 42.7221 16.6277 42.7244C16.6149 42.9572 16.6161 43.2098 16.6277 43.474C16.0983 43.5031 15.5689 43.5346 15.1085 43.5625L15.1494 43.3448L15.1681 43.2471C15.5748 43.2145 15.9604 43.0958 16.006 42.7675C16.1054 42.0458 15.1108 41.6606 14.2647 41.6128C13.4186 41.5651 8.34423 41.9015 8.34423 41.9015C8.34423 41.9015 7.58343 42.8827 9.99673 43.1819C10.0684 43.2191 10.1428 43.2579 10.2199 43.2983C11.1654 43.8349 12.4474 44.8231 13.0621 45.3097L13.1475 45.3772L12.8717 45.6006C14.364 45.937 15.8073 51.6173 16.6032 54.2141C17.3991 56.811 19.1404 56.7167 20.5837 56.3314C21.9358 55.9706 22.103 52.0596 22.1252 51.5684V51.5184L24.5303 54.4772L24.7126 54.7019C24.7827 54.7383 24.852 54.7725 24.9206 54.8043C26.7414 55.6668 28.7527 54.0128 28.1812 52.1271C27.6027 50.2263 26.7052 47.4153 26.1068 46.2269C25.6054 45.2317 24.958 43.5788 24.5653 42.544C24.6163 42.5236 24.6659 42.4999 24.7138 42.473C24.7138 42.473 24.7044 42.4265 24.6892 42.3415L24.7138 42.3287C24.7138 42.3287 24.1294 39.3349 24.1037 37.2071C24.1037 37.1699 24.1037 37.1311 24.1037 37.0907C24.1037 37.0675 24.1037 37.0442 24.1037 37.0221C24.5385 36.9231 24.8143 36.8847 24.8143 36.8847L24.8224 36.7916L24.7722 36.8021L25.0141 34.0446C25.0141 34.0446 25.9023 32.1624 25.2221 31.3791C25.0153 31.15 24.8773 30.8677 24.8236 30.5643C24.7067 29.8438 24.8236 28.6414 26.4072 27.6427C28.845 26.1027 29.7963 24.8491 29.7963 24.8491C29.7963 24.8491 29.8384 23.9505 28.346 23.5129ZM23.5042 25.4264V24.1519C23.9565 24.1298 24.4181 24.1821 24.8727 24.1519C25.0959 24.1364 25.317 24.0993 25.533 24.0413L25.6428 24.117C24.9777 24.6265 24.2609 25.0654 23.5042 25.4264ZM16.5915 45.4051C16.7703 45.5285 16.9503 45.6565 17.1268 45.7857C17.2366 46.4143 17.3336 46.8578 17.3406 46.8892C17.1389 46.3719 16.8881 45.8749 16.5915 45.4051Z" fill="url(#paint2_linear)"/>
<path d="M20.4552 44.3574L20.35 44.9266L20.2693 45.3619L20.1221 46.1581L18.694 47.1533C18.694 47.1533 18.5654 47.0439 18.3527 46.8705C17.7684 46.3909 16.5378 45.4178 15.6344 44.8917C15.4023 44.744 15.151 44.6285 14.8876 44.5483L20.4552 44.3574Z" fill="#FFBDC6"/>
<path opacity="0.1" d="M20.4552 44.3574L20.3501 44.9266C20.0353 44.9441 19.7195 44.9281 19.4081 44.8789L16.0762 44.9266C15.9185 44.9173 15.7712 44.9045 15.6333 44.8905C15.4012 44.7429 15.1499 44.6274 14.8865 44.5472L20.4552 44.3574Z" fill="black"/>
<path d="M19.4081 44.7853C19.4081 44.7853 21.0746 45.0693 21.1693 44.3582C21.264 43.647 20.3127 43.2722 19.5051 43.2186C18.6976 43.1651 13.8394 43.505 13.8394 43.505C13.8394 43.505 12.9828 44.6422 16.0762 44.8319L19.4081 44.7853Z" fill="#7679B4"/>
<path opacity="0.1" d="M20.4552 44.3574L20.35 44.9266L20.2693 45.3619L20.1221 46.1581L18.694 47.1533C18.694 47.1533 18.5654 47.0439 18.3527 46.8705C17.7684 46.3909 16.5378 45.4178 15.6344 44.8917C15.4023 44.744 15.151 44.6285 14.8876 44.5483L20.4552 44.3574Z" fill="black"/>
<path opacity="0.1" d="M20.4552 44.3574L20.3501 44.9266C20.0353 44.9441 19.7195 44.9281 19.4081 44.8789L16.0762 44.9266C15.9185 44.9173 15.7712 44.9045 15.6333 44.8905C15.4012 44.7429 15.1499 44.6274 14.8865 44.5472L20.4552 44.3574Z" fill="black"/>
<path opacity="0.1" d="M19.4081 44.7853C19.4081 44.7853 21.0746 45.0693 21.1693 44.3582C21.264 43.647 20.3127 43.2722 19.5051 43.2186C18.6976 43.1651 13.8394 43.505 13.8394 43.505C13.8394 43.505 12.9828 44.6422 16.0762 44.8319L19.4081 44.7853Z" fill="black"/>
<path d="M23.0485 21.4121H14.3384V31.6994H23.0485V21.4121Z" fill="#A66477"/>
<path opacity="0.1" d="M23.0485 21.4121H14.3384V31.6994H23.0485V21.4121Z" fill="black"/>
<path d="M4.12893 39.0243C3.98519 39.0604 3.80288 39.1977 3.59836 39.3979C2.71835 40.2639 1.4632 42.2951 1.4632 42.2951C-0.144881 40.3885 1.635 38.8811 2.39814 38.3631C2.58279 38.2374 2.70667 38.1699 2.70667 38.1699L4.12893 39.0243Z" fill="#FFBDC6"/>
<path d="M20.3604 24.6602C20.3604 24.6602 20.7893 27.6469 22.2642 28.3581C23.7391 29.0693 20.3604 30.3963 20.3604 30.3963L15.743 28.6899C15.743 28.6899 18.3609 27.8367 17.8373 25.3236L20.3604 24.6602Z" fill="#FFBDC6"/>
<path d="M15.4147 42.627L15.3095 43.1961L15.2289 43.6315L15.0816 44.4276L13.6535 45.4229C13.6535 45.4229 13.525 45.3134 13.3123 45.14C12.7279 44.6604 11.4973 43.6873 10.5939 43.1612C10.3618 43.0136 10.1106 42.8981 9.84717 42.8178L15.4147 42.627Z" fill="#FFBDC6"/>
<path opacity="0.1" d="M15.4148 42.627L15.3096 43.1961C14.9948 43.2136 14.679 43.1976 14.3676 43.1484L11.0358 43.1961C10.878 43.1868 10.7308 43.174 10.5928 43.1601C10.3607 43.0124 10.1095 42.8969 9.84607 42.8167L15.4148 42.627Z" fill="black"/>
<path d="M14.363 43.0533C14.363 43.0533 16.0295 43.3373 16.1241 42.6261C16.2188 41.9149 15.2675 41.5354 14.4576 41.4889C13.6477 41.4423 8.79309 41.7729 8.79309 41.7729C8.79309 41.7729 7.93646 42.9101 11.0299 43.0998L14.363 43.0533Z" fill="#7679B4"/>
<path opacity="0.1" d="M15.2242 43.6314L15.0769 44.4276L13.6488 45.4228C13.6488 45.4228 13.5203 45.3134 13.3076 45.1399L15.1961 43.5977L15.2242 43.6314Z" fill="black"/>
<path d="M24.6472 54.4842C24.5817 54.4524 24.5155 54.4186 24.4485 54.3829L24.2743 54.1618L21.9744 51.2518V51.303C21.9592 51.7861 21.7933 55.6389 20.5007 55.9939C19.1205 56.3733 17.454 56.4676 16.6932 53.908C15.9324 51.3484 14.551 45.7543 13.1229 45.4226L15.2405 43.6917C15.2405 43.6917 16.643 45.3213 17.2156 46.8903C17.1946 46.7902 16.2257 42.2844 17.0251 41.4883H23.974C23.974 41.4883 25.0445 44.5309 25.7831 46.0395C26.3557 47.2104 27.2147 49.9784 27.7698 51.8513C28.3191 53.7043 26.4002 55.3339 24.6472 54.4842Z" fill="#7679B4"/>
<path opacity="0.1" d="M24.4532 42.3398C23.3815 42.9718 18.6695 42.7146 17.1339 42.6122L16.7166 42.5819C16.6711 42.5819 16.7237 42.5563 16.7237 42.5563L16.7669 42.1256L17.9087 39.2343L24.0255 35.7051C23.9016 36.0764 23.8595 36.6456 23.8701 37.2986C23.9004 39.3914 24.4532 42.3398 24.4532 42.3398Z" fill="black"/>
<path d="M24.4531 42.2007C23.3814 42.8328 18.6694 42.5756 17.1337 42.4731L16.7165 42.4429H16.6476L16.7235 42.4231L17.0999 42.3241L17.9086 39.0999L24.0254 35.5684C23.9015 35.9397 23.8594 36.5089 23.8699 37.1619C23.9003 39.2512 24.4531 42.2007 24.4531 42.2007Z" fill="#F2F1F2"/>
<path opacity="0.1" d="M23.87 37.156C22.6266 37.4411 19.8895 38.2804 18.8377 40.2987C18.1365 41.6466 17.5522 42.2251 17.135 42.4672L16.7178 42.437L16.7248 42.4114L17.1011 42.3124L17.9098 39.0882L24.0266 35.5566C23.9004 35.9384 23.8595 36.503 23.87 37.156Z" fill="black"/>
<path opacity="0.1" d="M2.70074 38.1699L4.12885 39.0231C3.9851 39.0592 3.80279 39.1965 3.59828 39.3967C3.48141 39.0476 2.73113 38.568 2.39221 38.3631C2.57686 38.2374 2.70074 38.1699 2.70074 38.1699Z" fill="black"/>
<path opacity="0.1" d="M16.4665 42.4972C16.4505 42.506 16.4322 42.5096 16.4141 42.5073C16.396 42.5049 16.3791 42.4969 16.366 42.4844C16.3986 42.4936 16.4325 42.4979 16.4665 42.4972Z" fill="black"/>
<path d="M19.6932 28.1669C19.6932 28.1669 18.4076 28.3089 17.5031 27.3614C17.5031 27.3614 13.6956 28.4521 12.41 30.9174C11.1245 33.3827 2.36652 38.2179 2.36652 38.2179C2.36652 38.2179 3.88578 39.0711 3.74671 39.4983L9.5059 36.1798C9.5059 36.1798 11.5522 34.7097 12.1237 34.3779C12.6952 34.0462 15.8366 32.008 16.5027 37.5544C17.1689 43.1008 16.5027 42.4432 16.5027 42.4432C16.5027 42.4432 17.4552 42.7749 18.84 40.1152C20.2249 37.4555 24.5046 36.8444 24.5046 36.8444L24.7383 34.0508C24.7383 34.0508 25.5879 32.1978 24.937 31.4249C24.7385 31.1975 24.6067 30.92 24.556 30.6229C24.4473 29.9129 24.556 28.7291 26.0753 27.7455C28.4126 26.2323 29.3125 24.9962 29.3125 24.9962C29.3125 24.9962 29.3604 24.0953 27.9323 23.6693C26.5042 23.2432 20.6971 20.9199 20.6971 20.9199L20.5066 21.7254L25.0761 24.9496C25.0761 24.9496 22.7913 26.798 20.9857 26.7515C20.9787 26.7433 21.3118 28.1192 19.6932 28.1669Z" fill="#565388"/>
<path opacity="0.1" d="M20.5755 25.9589C20.463 25.5769 20.3752 25.1881 20.3126 24.7949L17.7894 25.463C17.8999 25.9426 17.8801 26.4428 17.7322 26.9122C18.2478 27.0492 18.7926 27.0318 19.2984 26.862C19.8041 26.6922 20.2484 26.3777 20.5755 25.9577V25.9589Z" fill="black"/>
<path d="M18.4802 26.8645C19.9789 26.8645 21.1938 25.6545 21.1938 24.1618C21.1938 22.6691 19.9789 21.459 18.4802 21.459C16.9815 21.459 15.7665 22.6691 15.7665 24.1618C15.7665 25.6545 16.9815 26.8645 18.4802 26.8645Z" fill="#FFBDC6"/>
<path opacity="0.1" d="M19.9223 18.0141C20.6749 18.099 21.3913 18.4215 22.1322 18.5961C22.3173 18.6539 22.5146 18.6615 22.7037 18.6182C22.9912 18.5297 23.2249 18.2294 23.5218 18.2387C23.7052 18.2387 23.8724 18.3691 24.0196 18.489C24.2635 18.6733 24.4929 18.876 24.7056 19.0954C25.2163 19.6483 25.5342 20.3932 26.0005 20.9939C26.4668 21.5945 27.2019 22.0624 27.8645 21.7865C27.4146 23.5325 25.9374 24.8676 24.341 24.9759C23.7041 25.0189 23.0555 24.8874 22.4349 25.0736C22.2811 25.1361 22.1188 25.1753 21.9534 25.19C21.6028 25.19 21.313 24.8653 21.0909 24.5498C20.572 23.8072 20.156 22.9645 19.5717 22.2882C19.3788 22.0647 19.1509 21.8517 18.8786 21.811C18.6063 21.7702 18.3551 21.8994 18.112 22.0252C17.7111 22.2323 17.3009 22.4465 16.9901 22.8004C16.6792 23.1542 16.4829 23.6838 16.6114 24.1634C16.6804 24.4218 16.8393 24.6546 16.8452 24.9258C16.8452 25.3565 16.4688 25.6719 16.3929 26.0898C16.3762 26.2662 16.3699 26.4434 16.3742 26.6206C16.3403 27.1956 15.964 27.6682 15.569 28.0278C15.4159 28.1687 15.2453 28.3188 15.2008 28.5365C15.1705 28.6843 15.2008 28.8415 15.181 28.9916C15.1237 29.3653 14.7497 29.5538 14.419 29.6027C14.0327 29.6591 13.6384 29.6125 13.2761 29.4677C13.7435 29.25 14.0228 28.6296 13.9153 28.0709C13.7681 27.3015 12.9921 26.7498 13.0575 25.9652C13.0941 25.725 13.1666 25.4916 13.2725 25.2727C13.4419 24.8494 13.5649 24.4092 13.6395 23.9597C13.716 23.6137 13.7084 23.2546 13.6173 22.9121C13.518 22.6106 13.3158 22.3709 13.1428 22.1159C12.9086 21.7694 12.7237 21.3922 12.5936 20.995C12.5464 20.8777 12.5283 20.7507 12.541 20.6249C12.5786 20.4765 12.66 20.3427 12.7747 20.2408C13.2001 19.7973 13.6559 19.3352 14.2215 19.2071C14.4918 19.1623 14.7666 19.1517 15.0396 19.1757C15.5161 19.1908 15.993 19.1706 16.4665 19.1152C16.8568 19.0698 17.5183 19.0756 17.8479 18.8219C18.1552 18.5891 18.3294 18.2923 18.7092 18.1433C19.0968 18.0019 19.5134 17.9576 19.9223 18.0141Z" fill="black"/>
<path opacity="0.1" d="M21.431 45.9219C21.431 45.9219 23.0017 49.0029 22.5261 49.9516L21.431 45.9219Z" fill="black"/>
<path opacity="0.1" d="M24.279 54.163L21.9791 51.253V51.3043C21.9791 51.3043 21.8458 50.3638 22.2841 50.6804C23.2436 51.3718 24.7792 52.5055 24.8119 52.701C24.8446 52.8966 24.5011 53.6811 24.279 54.163Z" fill="black"/>
<g opacity="0.1">
<path opacity="0.1" d="M21.0243 26.7435C21.0243 26.7435 21.2183 27.5443 20.5907 27.9447C21.5572 27.7794 21.5993 27.031 21.57 26.7051C21.3896 26.7342 21.207 26.747 21.0243 26.7435Z" fill="black"/>
<path opacity="0.1" d="M2.93922 38.0282C2.93922 38.0282 11.6972 33.193 12.9827 30.7277C13.9048 28.9585 16.1265 27.8981 17.3068 27.4395C16.4455 27.727 13.5472 28.8292 12.458 30.9174C11.1725 33.3828 2.41449 38.218 2.41449 38.218L2.93922 38.0282Z" fill="black"/>
<path opacity="0.1" d="M22.7283 26.3677C24.2183 25.9021 25.6429 24.7533 25.6429 24.7533L21.0734 21.529L21.1774 21.0867L20.7404 20.9121L20.5499 21.7176L25.1194 24.9418C24.3861 25.5159 23.5826 25.9951 22.7283 26.3677Z" fill="black"/>
<path opacity="0.1" d="M22.7574 37.2924C23.3413 37.0939 23.9404 36.9432 24.549 36.842L24.5571 36.75C23.944 36.8841 23.3423 37.0655 22.7574 37.2924Z" fill="black"/>
<path opacity="0.1" d="M17.2191 42.259H17.1771C17.1611 42.2679 17.1428 42.2714 17.1247 42.2691C17.1066 42.2668 17.0897 42.2588 17.0766 42.2462C17.1093 42.2553 17.1431 42.2596 17.1771 42.259C17.3337 42.1682 17.5686 41.4605 17.0766 37.3633C16.5507 32.989 14.4868 33.3324 13.3567 33.8353C14.5113 33.5187 16.1007 33.7922 16.553 37.553C17.045 41.6503 16.8101 42.3591 16.6535 42.4488C16.8565 42.4412 17.0529 42.3753 17.2191 42.259Z" fill="black"/>
<path opacity="0.1" d="M16.6536 42.4503C16.6197 42.4509 16.5858 42.4466 16.5531 42.4375C16.5663 42.4501 16.5831 42.4581 16.6012 42.4604C16.6193 42.4627 16.6377 42.4591 16.6536 42.4503Z" fill="black"/>
</g>
<path d="M19.9223 17.9223C20.6749 18.0072 21.3913 18.3297 22.1322 18.5043C22.3173 18.5621 22.5146 18.5697 22.7037 18.5264C22.9912 18.4379 23.2249 18.1376 23.5218 18.1469C23.7052 18.1469 23.8724 18.2773 24.0196 18.3972C24.2635 18.5815 24.4929 18.7842 24.7056 19.0036C25.2163 19.5565 25.5342 20.3015 26.0005 20.9021C26.4668 21.5027 27.2019 21.9706 27.8645 21.6947C27.4146 23.4407 25.9374 24.7758 24.341 24.8841C23.7041 24.9271 23.0555 24.7956 22.4349 24.9818C22.2811 25.0443 22.1188 25.0835 21.9534 25.0982C21.6028 25.0982 21.313 24.7735 21.0909 24.458C20.572 23.7154 20.156 22.8727 19.5717 22.1964C19.3788 21.9729 19.1509 21.7599 18.8786 21.7192C18.6063 21.6784 18.3551 21.8077 18.112 21.9334C17.7111 22.1406 17.3009 22.3547 16.9901 22.7086C16.6792 23.0624 16.4829 23.592 16.6114 24.0716C16.6804 24.33 16.8393 24.5628 16.8452 24.834C16.8452 25.2647 16.4688 25.5801 16.3929 25.998C16.3762 26.1744 16.3699 26.3516 16.3742 26.5288C16.3403 27.1038 15.964 27.5764 15.569 27.936C15.4159 28.0769 15.2453 28.227 15.2008 28.4447C15.1705 28.5925 15.2008 28.7497 15.181 28.8998C15.1237 29.2735 14.7497 29.462 14.419 29.5109C14.0327 29.5673 13.6384 29.5207 13.2761 29.3759C13.7435 29.1582 14.0228 28.5378 13.9153 27.9791C13.7681 27.2097 12.9921 26.658 13.0575 25.8734C13.0941 25.6332 13.1666 25.3998 13.2725 25.1809C13.4419 24.7576 13.5649 24.3174 13.6395 23.8679C13.716 23.5219 13.7084 23.1628 13.6173 22.8203C13.518 22.5188 13.3158 22.2791 13.1428 22.0242C12.9086 21.6776 12.7237 21.3004 12.5936 20.9032C12.5464 20.7859 12.5283 20.6589 12.541 20.5331C12.5786 20.3847 12.66 20.2509 12.7747 20.149C13.2001 19.7055 13.6559 19.2434 14.2215 19.1153C14.4918 19.0705 14.7666 19.06 15.0396 19.0839C15.5161 19.099 15.993 19.0788 16.4665 19.0234C16.8568 18.978 17.5183 18.9838 17.8479 18.7301C18.1552 18.4973 18.3294 18.2005 18.7092 18.0515C19.0968 17.9101 19.5134 17.8658 19.9223 17.9223Z" fill="#A66477"/>
<path d="M97.4084 11.8552C97.4084 11.8401 97.4084 11.8261 97.4084 11.8121C97.4084 11.7981 97.4084 11.7819 97.4014 11.7679H97.3827C97.3827 11.7365 97.3827 11.705 97.3827 11.6713C97.336 10.5923 95.8377 8.29572 95.237 8.96617C94.7111 9.55515 95.5047 11.045 95.909 11.7155L95.9453 11.776L95.9254 11.7632C95.9254 11.7632 94.253 16.7311 94.0555 16.9243C93.858 17.1176 92.4813 21.0239 90.6664 21.4639C90.3076 21.5489 90.0096 21.6257 89.7595 21.6967L89.7794 21.6303C89.8962 21.2497 90.04 20.89 90.0984 20.4664C90.1568 20.0427 90.0984 19.5293 89.8834 19.3233C89.7782 19.2209 89.6496 19.2069 89.5632 19.044C89.507 18.901 89.4769 18.7493 89.4743 18.5958L89.3201 16.7125L89.4276 16.6799C90.0774 16.4727 90.7073 15.9815 90.7809 15.3204C90.7583 15.3289 90.7353 15.3363 90.712 15.3425C90.7205 15.304 90.7272 15.2652 90.7318 15.2261C90.1861 15.4403 89.68 14.8769 89.1541 14.6243C88.2881 14.2018 87.2983 14.5999 86.4043 14.6965C85.391 14.8071 84.4292 14.388 83.3938 14.4637C82.8305 14.5067 82.2041 14.8874 82.2345 15.4403C82.252 15.7441 82.4682 16.0013 82.557 16.2923C82.7814 16.9965 82.2824 17.703 81.8453 18.3037C81.5578 18.6983 81.282 19.179 81.2329 19.6422C80.2267 18.5947 79.1387 17.3841 79.0124 16.929L76.1013 11.9611C76.1013 11.9611 76.0323 12.0344 75.9213 12.1427C75.9038 12.0891 75.8827 12.0263 75.8594 11.9634C75.4877 10.9263 74.4359 8.41328 73.1025 8.87422C71.769 9.33515 73.6553 11.9111 74.4757 12.9377L74.5925 13.0797C74.5237 13.0965 74.4515 13.0933 74.3845 13.0704L77.6311 18.6168C77.6311 18.6168 78.2212 19.6783 78.7623 19.967C78.7623 19.967 82.7954 25.0315 82.8445 26.0442C82.8936 27.0568 84.6583 29.7584 84.6583 29.7584C84.6583 29.7584 85.2484 34.1478 84.2153 34.9196H84.2282H84.2364H84.2492H84.2609H84.2843H84.2995H84.3147H84.3345H84.3509H84.3743H84.386C84.3369 34.9673 84.2866 35.0197 84.2352 35.0767C83.4697 35.9218 82.4916 37.7329 83.8285 40.8128C85.7954 45.3524 86.0911 47.1309 86.0911 47.1309C86.0911 47.1309 82.3513 47.3242 81.6151 47.4685C80.9629 47.5965 78.4281 47.6862 77.8484 47.7013C77.6416 47.4615 77.0304 46.9307 76.2053 47.7013C75.1722 48.6662 74.4348 51.8916 74.4348 51.8916C74.4348 51.8916 74.0409 54.4966 75.3697 53.8204C75.3697 53.8204 76.9439 51.6495 77.3857 51.5529C77.6054 51.5052 77.8379 51.1828 78.0156 50.872L78.0249 50.8778C78.0354 50.8778 78.0787 50.8545 78.1488 50.8266C78.476 50.6974 79.3771 50.3866 80.0876 50.5414C80.4768 50.6264 82.1456 50.6462 83.8951 50.6415C83.5001 51.5844 82.7919 54.0171 82.7919 54.0171C82.7919 54.0171 82.4962 56.2857 83.4779 56.1926C84.1791 56.1239 85.2543 54.3395 85.8152 53.321C86.2219 53.0242 87.3871 51.9603 88.2484 52.0406L94.052 49.8221C94.052 49.8221 95.4287 49.0504 94.6913 46.4942C94.1069 44.4619 92.4439 40.3018 91.7871 38.6804L91.7673 38.6385C91.6083 38.2462 91.5125 38.0134 91.5125 38.0134C91.2427 37.2732 91.0656 36.5027 90.9854 35.7192C90.9796 35.6575 90.9749 35.5947 90.9702 35.533C91.0515 35.499 91.1281 35.4548 91.1981 35.4015C91.1981 35.4015 90.657 29.9517 91.1981 29.372L91.2075 29.3615V29.3545L91.2168 29.3429L91.2379 29.3161L91.2636 29.2835C91.2928 29.2451 91.3278 29.1974 91.3676 29.1392C91.6773 28.6876 92.2546 27.6563 92.0887 26.4388C92.0816 26.386 92.0731 26.3328 92.0629 26.2793C91.9994 25.9491 91.8859 25.6304 91.7264 25.3341C91.703 25.2108 91.6885 25.0859 91.6831 24.9605C91.6831 24.8895 91.6831 24.8115 91.6831 24.7277V24.7137C91.6831 24.6912 91.6831 24.6687 91.6831 24.6462V24.6299C91.6831 24.5752 91.6925 24.5135 91.7007 24.4623V24.4414C91.7007 24.4204 91.7042 24.3991 91.7112 24.3773V24.3506C91.7112 24.3296 91.7205 24.3087 91.7252 24.2877V24.2656C91.7322 24.2377 91.7392 24.2097 91.7486 24.1818V24.1678C91.7556 24.1445 91.7634 24.1217 91.7719 24.0992L91.7825 24.0724L91.8058 24.0165L91.8175 23.9886C91.8269 23.9676 91.8374 23.9467 91.8479 23.9257L91.8561 23.9083C91.8701 23.8827 91.8849 23.8574 91.9005 23.8326L91.9134 23.8128L91.9519 23.7581L91.9706 23.7337L92.0115 23.6848L92.0302 23.6638C92.0513 23.6417 92.0723 23.6196 92.0957 23.5986C92.7349 23.0166 95.5876 18.7274 95.5876 18.7274C95.5876 18.7274 96.276 17.7624 96.276 17.1362C96.3146 17.1222 97.5311 13.0832 97.4084 11.8552ZM89.7501 47.9096C89.68 47.2485 89.6099 46.4291 89.5456 45.5817L90.6582 47.309C90.6582 47.309 90.553 47.8352 89.7501 47.9096Z" fill="url(#paint3_linear)"/>
<path d="M78.1499 47.5437C78.1499 47.5437 77.4837 46.4961 76.4834 47.4494C75.483 48.4027 74.7701 51.5734 74.7701 51.5734C74.7701 51.5734 74.3891 54.1342 75.6747 53.4695C75.6747 53.4695 77.1939 51.3359 77.6263 51.2417C78.0587 51.1474 78.5309 49.9613 78.5309 49.9613L78.1499 47.5437Z" fill="#493545"/>
<path d="M85.2893 50.104C85.2893 50.104 84.3848 49.6768 84.0996 50.0097C83.8145 50.3426 82.862 53.66 82.862 53.66C82.862 53.66 82.5769 55.8413 83.5282 55.7459C84.4795 55.6504 86.146 52.2353 86.146 52.2353L85.2893 50.104Z" fill="#493545"/>
<path opacity="0.05" d="M85.2893 50.104C85.2893 50.104 84.3848 49.6768 84.0996 50.0097C83.8145 50.3426 82.862 53.66 82.862 53.66C82.862 53.66 82.5769 55.8413 83.5282 55.7459C84.4795 55.6504 86.146 52.2353 86.146 52.2353L85.2893 50.104Z" fill="black"/>
<path d="M88.4307 43.6566L90.477 46.8331C90.477 46.8331 90.3345 47.5443 89.0968 47.4023L84.8604 50.0573C84.8604 50.0573 84.4923 53.2897 85.6692 52.9964C85.8596 52.9486 87.1884 51.574 88.1444 51.6694L93.7622 49.4881C93.7622 49.4881 95.0945 48.7292 94.3804 46.2173C93.6663 43.7054 91.3056 37.8809 91.3056 37.8809L87.5741 39.9597L88.4307 43.6566Z" fill="#3E3D77"/>
<path opacity="0.05" d="M88.4307 43.6566L90.477 46.8331C90.477 46.8331 90.3345 47.5443 89.0968 47.4023L84.8604 50.0573C84.8604 50.0573 84.4923 53.2897 85.6692 52.9964C85.8596 52.9486 87.1884 51.574 88.1444 51.6694L93.7622 49.4881C93.7622 49.4881 95.0945 48.7292 94.3804 46.2173C93.6663 43.7054 91.3056 37.8809 91.3056 37.8809L87.5741 39.9597L88.4307 43.6566Z" fill="black"/>
<path d="M89.7162 48.3496C90.0014 50.1515 88.3839 50.2935 88.3839 50.2935C88.3839 50.2935 81.1008 50.4355 80.2442 50.2457C79.3875 50.056 78.2446 50.5775 78.2446 50.5775C76.7685 49.6766 77.9594 47.4487 77.9594 47.4487C77.9594 47.4487 81.0061 47.3544 81.7202 47.2159C82.4342 47.0774 86.0513 46.8807 86.0513 46.8807C86.0513 46.8807 85.7661 45.1265 83.8612 40.6708C82.5675 37.6444 83.5106 35.8635 84.255 35.0336C84.445 34.8134 84.6649 34.6206 84.9083 34.4609L90.7633 34.745C90.757 35.039 90.7679 35.3333 90.796 35.6261C90.8961 36.6314 91.1586 37.6141 91.5732 38.5361C91.2401 38.5361 89.098 40.5276 89.098 40.5276C89.098 40.5276 89.4299 46.5489 89.7162 48.3496Z" fill="#3E3D77"/>
<path opacity="0.1" d="M78.3873 47.6388C78.3873 47.6388 81.434 47.5446 82.148 47.406C82.8621 47.2675 86.4791 47.0743 86.4791 47.0743C86.4791 47.0743 86.1939 45.3202 84.289 40.8644C82.9953 37.8381 83.9384 36.0572 84.6829 35.2273C84.8728 35.007 85.0927 34.8143 85.3361 34.6546L90.7611 34.9176C90.7611 34.8618 90.7611 34.8012 90.7611 34.7489L84.9061 34.4648C84.6626 34.6246 84.4428 34.8173 84.2528 35.0375C83.5119 35.8686 82.5652 37.6483 83.8589 40.6747C85.7685 45.127 86.0514 46.8811 86.0514 46.8811C86.0514 46.8811 82.4285 47.0708 81.7203 47.2128C81.0121 47.3548 77.9595 47.4456 77.9595 47.4456C77.9595 47.4456 76.7698 49.6747 78.2447 50.5791C78.2447 50.5791 78.2891 50.5581 78.3615 50.5279C77.381 49.5233 78.3873 47.6388 78.3873 47.6388Z" fill="black"/>
<path d="M87.0972 17.0605H84.1464V24.5031H87.0972V17.0605Z" fill="#717379"/>
<path d="M88.7848 15.9692C88.8865 15.9971 89.001 16.0006 89.0699 16.1403C89.1127 16.2519 89.1361 16.37 89.1389 16.4895L89.3247 18.7895C89.3273 18.9401 89.3566 19.0891 89.4112 19.2295C89.4895 19.3855 89.6192 19.4041 89.7209 19.5042C89.9254 19.7068 89.985 20.2143 89.9289 20.6275C89.8728 21.0407 89.7314 21.3945 89.6204 21.7682C89.4614 22.3036 89.3563 22.9054 89.133 23.357C88.9098 23.8087 88.5043 24.0554 88.2425 23.676C87.9807 23.2965 88.0158 22.5306 87.9667 21.9032C87.8849 20.8556 87.4747 19.9524 87.4467 18.8978C87.4233 18.0446 87.6535 17.2484 87.7973 16.4395C87.9001 15.8842 87.9059 15.2103 88.0555 14.7109C88.1806 15.3046 88.419 15.8691 88.7848 15.9692Z" fill="#9B9EA8"/>
<path d="M76.293 12.6998L75.1512 13.6484C75.1512 13.6484 75.0156 13.4901 74.8134 13.234C74.0199 12.2249 72.1956 9.6932 73.4847 9.24041C74.7737 8.78762 75.7928 11.2564 76.1527 12.2761C76.2439 12.5345 76.293 12.6998 76.293 12.6998Z" fill="#C77485"/>
<path d="M96.9035 12.3668C96.4279 13.078 95.7617 12.3668 95.7617 12.3668C95.7617 12.3668 95.6764 12.2399 95.5561 12.0351C95.1646 11.3751 94.3967 9.91197 94.9051 9.33231C95.4894 8.67 96.9374 10.9305 96.9818 11.9909C96.9956 12.1212 96.9682 12.2526 96.9035 12.3668Z" fill="#C77485"/>
<path d="M85.1934 20.0473C85.1934 20.0473 86.1459 23.0818 85.8596 23.9816C85.5732 24.8813 87.9071 25.9289 87.9071 25.9289H90.5728C90.5728 25.9289 91.5253 23.9851 91.2868 23.4159C91.0484 22.8467 89.0021 22.4207 89.0021 22.4207C89.0021 22.4207 87.8124 22.4207 87.8603 19.2441L85.1934 20.0473Z" fill="#C77485"/>
<path opacity="0.1" d="M76.2929 12.6991L75.1511 13.6477C75.1511 13.6477 75.0155 13.4894 74.8134 13.2334C75.2282 13.16 75.8722 12.5571 76.1538 12.2754C76.2438 12.5338 76.2929 12.6991 76.2929 12.6991Z" fill="black"/>
<path opacity="0.1" d="M96.9035 12.3677C96.4279 13.0789 95.7617 12.3677 95.7617 12.3677C95.7617 12.3677 95.6764 12.2409 95.556 12.036L95.5712 11.9883C95.8798 12.2083 96.8392 12.0209 96.9818 11.9883C96.9963 12.1198 96.9689 12.2526 96.9035 12.3677Z" fill="black"/>
<path opacity="0.1" d="M90.7938 35.6253C89.3213 36.2946 84.5368 35.1027 84.2493 35.0317C84.4392 34.8114 84.6591 34.6187 84.9026 34.459L90.7576 34.743C90.7524 35.0375 90.7645 35.3321 90.7938 35.6253Z" fill="black"/>
<path d="M85.8129 22.6538C85.8129 22.6538 84.6711 23.0332 83.0525 21.5631C83.0525 21.5631 79.4296 18.0071 79.1959 17.1539L76.3911 12.2652C76.3911 12.2652 75.2014 13.5456 74.7245 13.3558L77.8659 18.808C77.8659 18.808 78.4374 19.8555 78.961 20.1349C78.961 20.1349 82.8643 25.1133 82.9111 26.1085C82.9578 27.1037 84.6699 29.7692 84.6699 29.7692C84.6699 29.7692 85.2414 34.0829 84.241 34.8419C84.241 34.8419 89.8097 36.2643 90.9994 35.3156C90.9994 35.3156 90.4758 29.9613 90.9994 29.3898C90.9994 29.3898 92.618 27.4936 91.523 25.4078C91.523 25.4078 91.2892 24.2705 91.9039 23.7014C92.5187 23.1322 95.2837 18.9127 95.2837 18.9127C95.2837 18.9127 95.9499 17.9641 95.9499 17.3483C95.9499 17.3483 97.1875 13.1766 97.0017 12.0859C97.0017 12.0859 95.9066 12.3187 95.5736 12.0859C95.5736 12.0859 93.955 16.9747 93.7645 17.1586C93.574 17.3425 92.2452 21.1883 90.4805 21.6155C88.7158 22.0427 88.4342 22.2312 88.4342 22.2312C88.4342 22.2312 91.8607 24.3648 90.1954 25.3123C88.53 26.2598 85.8129 22.6538 85.8129 22.6538Z" fill="#FFAAC4"/>
<path opacity="0.1" d="M87.9761 20.7764C87.9196 20.3298 87.8965 19.8797 87.9072 19.4297L85.2415 20.2352C85.3116 20.412 85.3675 20.5942 85.4086 20.7799C85.7136 20.9138 86.125 21.2304 86.4791 21.2304C87.0147 21.2478 87.5411 21.0882 87.9761 20.7764Z" fill="black"/>
<path d="M86.431 21.0908C87.7981 21.0908 88.9063 19.987 88.9063 18.6255C88.9063 17.2639 87.7981 16.1602 86.431 16.1602C85.064 16.1602 83.9558 17.2639 83.9558 18.6255C83.9558 19.987 85.064 21.0908 86.431 21.0908Z" fill="#C77485"/>
<path opacity="0.1" d="M83.4861 14.8263C82.9415 14.8682 82.3338 15.243 82.3642 15.7866C82.3806 16.0857 82.5863 16.3383 82.6763 16.6247C82.8925 17.3172 82.411 18.0121 81.9879 18.6034C81.5649 19.1947 81.1698 19.9781 81.5321 20.6043C81.6354 20.7551 81.747 20.9 81.8664 21.0385C82.314 21.6403 82.3081 22.4527 82.5068 23.1756C82.7605 24.1003 83.3603 24.8931 84.1828 25.3911C85.0053 25.889 85.988 26.0542 86.929 25.8527C86.5748 25.4024 86.3981 24.8385 86.4324 24.2674C86.4592 23.853 86.5936 23.42 86.4324 23.037C86.2243 22.5447 85.6143 22.3503 85.2999 21.9196C84.9855 21.4889 85.0066 20.8918 85.1585 20.3785C85.3104 19.8652 85.5734 19.3891 85.6996 18.8653C85.7307 18.7125 85.7698 18.5614 85.8165 18.4125C86.0362 17.791 86.693 17.4301 87.3357 17.2753C87.9785 17.1205 88.654 17.1112 89.2816 16.9075C89.9091 16.7038 90.5192 16.2266 90.5916 15.5712C90.0634 15.7819 89.5737 15.2325 89.0642 14.9799C88.2251 14.5656 87.2679 14.9555 86.4031 15.0509C85.4179 15.1604 84.483 14.7541 83.4861 14.8263Z" fill="black"/>
<path d="M83.4382 14.7325C82.8936 14.7744 82.2859 15.1492 82.3163 15.6928C82.3326 15.992 82.5383 16.2446 82.6283 16.5309C82.8445 17.2235 82.363 17.9184 81.9399 18.5097C81.5169 19.101 81.1219 19.8843 81.4842 20.5106C81.5874 20.6613 81.699 20.8063 81.8184 20.9447C82.266 21.5465 82.2602 22.359 82.4588 23.0818C82.7125 24.0066 83.3123 24.7994 84.1348 25.2973C84.9573 25.7952 85.94 25.9604 86.8811 25.759C86.5268 25.3086 86.3502 24.7447 86.3844 24.1736C86.4113 23.7593 86.5457 23.3262 86.3844 22.9433C86.1764 22.4509 85.5663 22.2565 85.2519 21.8259C84.9376 21.3952 84.9586 20.7981 85.1105 20.2848C85.2625 19.7714 85.5254 19.2954 85.6516 18.7716C85.6828 18.6188 85.7218 18.4676 85.7685 18.3188C85.9882 17.6972 86.645 17.3364 87.2878 17.1816C87.9305 17.0268 88.606 17.0174 89.2336 16.8137C89.8612 16.6101 90.4712 16.1328 90.5437 15.4775C90.0154 15.6882 89.5257 15.1388 89.0162 14.8862C88.1771 14.4718 87.22 14.8617 86.3552 14.9572C85.3723 15.0654 84.4409 14.6546 83.4382 14.7325Z" fill="#9B9EA8"/>
<path opacity="0.1" d="M88.8831 24.1016C88.8831 24.1016 89.8741 24.9827 90.0692 25.3715L88.8831 24.1016Z" fill="black"/>
<path opacity="0.1" d="M91.0275 29.3633C91.0275 29.3633 89.7899 29.3633 89.2184 29.5053C88.6469 29.6473 87.2667 29.5053 87.2667 29.5053" fill="black"/>
<g opacity="0.1">
<path opacity="0.1" d="M90.1918 25.3096C90.0851 25.3704 89.9696 25.4144 89.8494 25.44C90.1598 25.5085 90.4847 25.4622 90.7633 25.3096C92.4298 24.3609 89.0021 22.2285 89.0021 22.2285H88.4307C88.4307 22.2285 91.8583 24.3621 90.1918 25.3096Z" fill="black"/>
<path opacity="0.1" d="M97.01 12.1701C97.01 12.1399 97.003 12.1108 96.9983 12.084C96.8026 12.1244 96.6048 12.1543 96.4058 12.1736C96.6067 12.1956 96.8094 12.1944 97.01 12.1701Z" fill="black"/>
<path opacity="0.1" d="M84.8136 34.8408C85.8129 34.0819 85.2425 29.7681 85.2425 29.7681C85.2425 29.7681 83.5293 27.1131 83.4814 26.1179C83.4334 25.1227 79.5313 20.1443 79.5313 20.1443C79.0077 19.8603 78.4362 18.8173 78.4362 18.8173C78.4362 18.8173 75.199 13.555 74.7234 13.3652L77.8648 18.8173C77.8648 18.8173 78.4362 19.8649 78.9598 20.1443C78.9598 20.1443 82.8631 25.1227 82.9099 26.1179C82.9566 27.1131 84.6699 29.7716 84.6699 29.7716C84.6699 29.7716 85.2414 34.0853 84.241 34.8443C84.241 34.8443 87.664 35.7184 89.7162 35.6393C87.6593 35.5671 84.8136 34.8408 84.8136 34.8408Z" fill="black"/>
<path opacity="0.1" d="M85.841 22.6923L85.813 22.6562C85.7804 22.6658 85.7472 22.6732 85.7136 22.6784C85.758 22.6842 85.8001 22.6888 85.841 22.6923Z" fill="black"/>
</g>
<g opacity="0.1">
<path opacity="0.1" d="M96.9981 12.0781L96.9689 12.0839C96.9186 13.5401 95.9042 16.961 95.9042 16.961C95.9042 17.5768 95.2381 18.5254 95.2381 18.5254C95.2381 18.5254 92.4777 22.7449 91.8583 23.3141C91.2389 23.8833 91.4773 25.0205 91.4773 25.0205L91.4831 25.0321C91.4644 24.6492 91.5112 24.0555 91.905 23.6924C92.5233 23.1232 95.2848 18.9037 95.2848 18.9037C95.2848 18.9037 95.9509 17.9551 95.9509 17.3393C95.9509 17.3463 97.1886 13.1746 96.9981 12.0781Z" fill="black"/>
<path opacity="0.1" d="M90.9539 29.0077C91.0251 29.4104 90.9772 28.9844 91.0018 29.3871C91.0018 29.3871 92.1704 28.0218 91.8514 26.334C91.9472 27.8425 90.9539 29.0077 90.9539 29.0077Z" fill="black"/>
</g>
<path opacity="0.1" d="M54.9027 76.9989C82.5061 76.9989 104.883 74.858 104.883 72.2172C104.883 69.5764 82.5061 67.4355 54.9027 67.4355C27.2993 67.4355 4.92236 69.5764 4.92236 72.2172C4.92236 74.858 27.2993 76.9989 54.9027 76.9989Z" fill="#FA4659"/>
<path d="M35.5285 67.3665C35.5285 67.3665 33.827 61.6106 35.8476 57.3748C36.707 55.6034 36.9662 53.602 36.5862 51.6713C36.3985 50.7561 36.127 49.86 35.7751 48.9941" stroke="#535461" stroke-width="2" stroke-miterlimit="10"/>
<path d="M37.0351 46.3202C37.0351 47.0256 35.7495 49.0707 35.7495 49.0707C35.7495 49.0707 34.464 47.0256 34.464 46.3202C34.451 46.1446 34.4744 45.9682 34.5329 45.802C34.5915 45.6358 34.6838 45.4834 34.8041 45.3544C34.9244 45.2253 35.0702 45.1224 35.2322 45.052C35.3943 44.9816 35.5692 44.9453 35.746 44.9453C35.9229 44.9453 36.0978 44.9816 36.2598 45.052C36.4219 45.1224 36.5677 45.2253 36.688 45.3544C36.8083 45.4834 36.9006 45.6358 36.9591 45.802C37.0177 45.9682 37.0411 46.1446 37.0281 46.3202H37.0351Z" fill="#FA4659"/>
<path d="M39.1515 50.2258C38.767 50.8183 36.5746 51.8403 36.5746 51.8403C36.5746 51.8403 36.6143 49.4297 36.9988 48.8372C37.0841 48.6834 37.2002 48.5487 37.34 48.4415C37.4798 48.3344 37.6403 48.257 37.8114 48.2142C37.9825 48.1715 38.1606 48.1643 38.3347 48.1931C38.5087 48.2218 38.6749 48.286 38.823 48.3815C38.971 48.477 39.0978 48.6019 39.1953 48.7483C39.2929 48.8947 39.3591 49.0595 39.3899 49.2325C39.4207 49.4055 39.4155 49.583 39.3744 49.7539C39.3334 49.9248 39.2575 50.0854 39.1515 50.2258Z" fill="#FA4659"/>
<path d="M39.0592 56.9035C38.4269 57.2213 36.0206 57.0013 36.0206 57.0013C36.0206 57.0013 37.2769 54.9399 37.9092 54.6221C38.0608 54.5315 38.2295 54.473 38.4048 54.4502C38.5801 54.4274 38.7582 54.4409 38.928 54.4898C39.0978 54.5388 39.2557 54.622 39.3918 54.7345C39.5278 54.8469 39.6391 54.9861 39.7187 55.1433C39.7984 55.3005 39.8445 55.4724 39.8544 55.6482C39.8643 55.824 39.8377 55.9999 39.7763 56.165C39.7148 56.3301 39.6198 56.4808 39.4972 56.6077C39.3746 56.7345 39.2271 56.8349 39.0638 56.9024L39.0592 56.9035Z" fill="#FA4659"/>
<path d="M37.8474 61.9398C37.2782 62.3589 34.8638 62.5486 34.8638 62.5486C34.8638 62.5486 35.752 60.3056 36.3223 59.8854C36.5967 59.7193 36.9237 59.6615 37.2387 59.7234C37.5538 59.7854 37.8342 59.9625 38.0247 60.22C38.2152 60.4775 38.3021 60.7967 38.2682 61.1148C38.2343 61.4328 38.0821 61.7268 37.8415 61.9387L37.8474 61.9398Z" fill="#FA4659"/>
<path d="M33.8797 51.9769C34.3881 52.4681 36.7547 52.978 36.7547 52.978C36.7547 52.978 36.1703 50.6372 35.6666 50.1448C35.5491 50.0136 35.4057 49.9079 35.2454 49.8343C35.085 49.7607 34.9112 49.7208 34.7346 49.7171C34.5581 49.7134 34.3827 49.7459 34.2194 49.8126C34.0561 49.8794 33.9083 49.9789 33.7853 50.105C33.6622 50.2312 33.5666 50.3812 33.5044 50.5457C33.4421 50.7103 33.4146 50.8859 33.4234 51.0615C33.4323 51.2371 33.4774 51.409 33.5559 51.5665C33.6344 51.724 33.7446 51.8637 33.8797 51.9769Z" fill="#FA4659"/>
<path d="M32.5391 57.8852C33.1714 58.2029 35.5777 57.9829 35.5777 57.9829C35.5777 57.9829 34.326 55.9215 33.6938 55.6096C33.394 55.4856 33.0583 55.4792 32.7539 55.5916C32.4496 55.704 32.1992 55.9269 32.0531 56.2155C31.9069 56.5042 31.8758 56.8372 31.9659 57.1478C32.0561 57.4583 32.2609 57.7234 32.5391 57.8898V57.8852Z" fill="#FA4659"/>
<path d="M32.025 63.8054C32.5942 64.2245 35.0086 64.4142 35.0086 64.4142C35.0086 64.4142 34.1204 62.1712 33.5501 61.751C33.4165 61.6333 33.2596 61.5445 33.0896 61.4904C32.9196 61.4363 32.7402 61.4181 32.5627 61.4368C32.3853 61.4556 32.2137 61.511 32.0589 61.5994C31.9041 61.6878 31.7694 61.8074 31.6636 61.9505C31.5577 62.0936 31.4829 62.257 31.4439 62.4305C31.405 62.6039 31.4027 62.7836 31.4372 62.958C31.4718 63.1323 31.5424 63.2976 31.6446 63.4433C31.7468 63.5891 31.8784 63.712 32.0309 63.8043L32.025 63.8054Z" fill="#FA4659"/>
<path opacity="0.1" d="M37.0351 46.3202C37.0351 47.0256 35.7495 49.0707 35.7495 49.0707C35.7495 49.0707 34.464 47.0256 34.464 46.3202C34.451 46.1446 34.4744 45.9682 34.5329 45.802C34.5915 45.6358 34.6838 45.4834 34.8041 45.3544C34.9244 45.2253 35.0702 45.1224 35.2322 45.052C35.3943 44.9816 35.5692 44.9453 35.746 44.9453C35.9229 44.9453 36.0978 44.9816 36.2598 45.052C36.4219 45.1224 36.5677 45.2253 36.688 45.3544C36.8083 45.4834 36.9006 45.6358 36.9591 45.802C37.0177 45.9682 37.0411 46.1446 37.0281 46.3202H37.0351Z" fill="#FA4659"/>
<path opacity="0.1" d="M39.1515 50.2258C38.767 50.8183 36.5746 51.8403 36.5746 51.8403C36.5746 51.8403 36.6143 49.4297 36.9988 48.8372C37.0841 48.6834 37.2002 48.5487 37.34 48.4415C37.4798 48.3344 37.6403 48.257 37.8114 48.2142C37.9825 48.1715 38.1606 48.1643 38.3347 48.1931C38.5087 48.2218 38.6749 48.286 38.823 48.3815C38.971 48.477 39.0978 48.6019 39.1953 48.7483C39.2929 48.8947 39.3591 49.0595 39.3899 49.2325C39.4207 49.4055 39.4155 49.583 39.3744 49.7539C39.3334 49.9248 39.2575 50.0854 39.1515 50.2258Z" fill="#FA4659"/>
<path opacity="0.1" d="M39.0592 56.9035C38.4269 57.2213 36.0206 57.0013 36.0206 57.0013C36.0206 57.0013 37.2769 54.9399 37.9092 54.6221C38.0608 54.5315 38.2295 54.473 38.4048 54.4502C38.5801 54.4274 38.7582 54.4409 38.928 54.4898C39.0978 54.5388 39.2557 54.622 39.3918 54.7345C39.5278 54.8469 39.6391 54.9861 39.7187 55.1433C39.7984 55.3005 39.8445 55.4724 39.8544 55.6482C39.8643 55.824 39.8377 55.9999 39.7763 56.165C39.7148 56.3301 39.6198 56.4808 39.4972 56.6077C39.3746 56.7345 39.2271 56.8349 39.0638 56.9024L39.0592 56.9035Z" fill="#FA4659"/>
<path opacity="0.1" d="M37.8474 61.9398C37.2782 62.3589 34.8638 62.5486 34.8638 62.5486C34.8638 62.5486 35.752 60.3056 36.3223 59.8854C36.5967 59.7193 36.9237 59.6615 37.2387 59.7234C37.5538 59.7854 37.8342 59.9625 38.0247 60.22C38.2152 60.4775 38.3021 60.7967 38.2682 61.1148C38.2343 61.4328 38.0821 61.7268 37.8415 61.9387L37.8474 61.9398Z" fill="#FA4659"/>
<path opacity="0.1" d="M33.8797 51.9769C34.3881 52.4681 36.7547 52.978 36.7547 52.978C36.7547 52.978 36.1703 50.6372 35.6666 50.1448C35.5491 50.0136 35.4057 49.9079 35.2454 49.8343C35.085 49.7607 34.9112 49.7208 34.7346 49.7171C34.5581 49.7134 34.3827 49.7459 34.2194 49.8126C34.0561 49.8794 33.9083 49.9789 33.7853 50.105C33.6622 50.2312 33.5666 50.3812 33.5044 50.5457C33.4421 50.7103 33.4146 50.8859 33.4234 51.0615C33.4323 51.2371 33.4774 51.409 33.5559 51.5665C33.6344 51.724 33.7446 51.8637 33.8797 51.9769Z" fill="#FA4659"/>
<path opacity="0.1" d="M32.5391 57.8852C33.1714 58.2029 35.5777 57.9829 35.5777 57.9829C35.5777 57.9829 34.326 55.9215 33.6938 55.6096C33.394 55.4856 33.0583 55.4792 32.7539 55.5916C32.4496 55.704 32.1992 55.9269 32.0531 56.2155C31.9069 56.5042 31.8758 56.8372 31.9659 57.1478C32.0561 57.4583 32.2609 57.7234 32.5391 57.8898V57.8852Z" fill="#FA4659"/>
<path opacity="0.1" d="M32.025 63.8054C32.5942 64.2245 35.0086 64.4142 35.0086 64.4142C35.0086 64.4142 34.1204 62.1712 33.5501 61.751C33.4165 61.6333 33.2596 61.5445 33.0896 61.4904C32.9196 61.4363 32.7402 61.4181 32.5627 61.4368C32.3853 61.4556 32.2137 61.511 32.0589 61.5994C31.9041 61.6878 31.7694 61.8074 31.6636 61.9505C31.5577 62.0936 31.4829 62.257 31.4439 62.4305C31.405 62.6039 31.4027 62.7836 31.4372 62.958C31.4718 63.1323 31.5424 63.2976 31.6446 63.4433C31.7468 63.5891 31.8784 63.712 32.0309 63.8043L32.025 63.8054Z" fill="#FA4659"/>
<path d="M69.9623 67.4505C69.9623 67.4505 68.2607 61.6946 70.2813 57.4588C71.1407 55.6873 71.3999 53.686 71.0199 51.7553C70.8322 50.8401 70.5607 49.944 70.2088 49.0781" stroke="#535461" stroke-width="2" stroke-miterlimit="10"/>
<path d="M71.4664 46.4007C71.4664 47.1061 70.1809 49.1512 70.1809 49.1512C70.1809 49.1512 68.8953 47.1061 68.8953 46.4007C68.9193 46.0784 69.0647 45.777 69.3025 45.557C69.5403 45.3371 69.8528 45.2148 70.1774 45.2148C70.5019 45.2148 70.8144 45.3371 71.0522 45.557C71.29 45.777 71.4354 46.0784 71.4594 46.4007H71.4664Z" fill="#FA4659"/>
<path d="M73.5863 50.3079C73.2018 50.9003 71.0094 51.9223 71.0094 51.9223C71.0094 51.9223 71.0491 49.5117 71.4336 48.9192C71.5189 48.7654 71.6351 48.6307 71.7749 48.5236C71.9147 48.4164 72.0751 48.339 72.2462 48.2963C72.4173 48.2535 72.5954 48.2463 72.7695 48.2751C72.9435 48.3039 73.1097 48.368 73.2578 48.4635C73.4059 48.559 73.5326 48.6839 73.6301 48.8303C73.7277 48.9767 73.7939 49.1415 73.8247 49.3145C73.8555 49.4875 73.8503 49.665 73.8093 49.8359C73.7682 50.0068 73.6924 50.1674 73.5863 50.3079Z" fill="#FA4659"/>
<path d="M73.4975 56.9859C72.8652 57.3037 70.4589 57.0837 70.4589 57.0837C70.4589 57.0837 71.7152 55.0223 72.3475 54.7045C72.4992 54.6131 72.6683 54.5539 72.8442 54.5306C73.02 54.5074 73.1987 54.5207 73.3692 54.5696C73.5396 54.6185 73.698 54.7021 73.8345 54.8149C73.9709 54.9278 74.0824 55.0676 74.162 55.2254C74.2416 55.3833 74.2875 55.5559 74.2969 55.7323C74.3062 55.9087 74.2789 56.0851 74.2164 56.2505C74.154 56.4158 74.0579 56.5666 73.9342 56.6931C73.8105 56.8197 73.6618 56.9194 73.4975 56.9859Z" fill="#FA4659"/>
<path d="M72.2809 62.0199C71.7118 62.4389 69.2973 62.6287 69.2973 62.6287C69.2973 62.6287 70.1855 60.3857 70.7558 59.9655C71.0302 59.7994 71.3572 59.7416 71.6722 59.8035C71.9873 59.8655 72.2677 60.0426 72.4582 60.3001C72.6487 60.5576 72.7356 60.8768 72.7017 61.1948C72.6678 61.5129 72.5156 61.8068 72.2751 62.0187L72.2809 62.0199Z" fill="#FA4659"/>
<path d="M68.3155 52.059C68.8239 52.5502 71.1905 53.06 71.1905 53.06C71.1905 53.06 70.6061 50.7192 70.1024 50.2269C69.9849 50.0956 69.8415 49.9899 69.6811 49.9164C69.5208 49.8428 69.3469 49.8029 69.1704 49.7991C68.9939 49.7954 68.8185 49.8279 68.6552 49.8946C68.4918 49.9614 68.3441 50.0609 68.221 50.1871C68.098 50.3132 68.0024 50.4632 67.9402 50.6278C67.8779 50.7923 67.8504 50.9679 67.8592 51.1435C67.8681 51.3191 67.9132 51.4911 67.9917 51.6486C68.0702 51.8061 68.1804 51.9458 68.3155 52.059Z" fill="#FA4659"/>
<path d="M66.9728 57.9672C67.605 58.2849 70.0113 58.0649 70.0113 58.0649C70.0113 58.0649 68.755 56.0035 68.1227 55.6858C67.823 55.5618 67.4872 55.5554 67.1829 55.6678C66.8786 55.7802 66.6282 56.0031 66.482 56.2917C66.3359 56.5803 66.3047 56.9134 66.3949 57.2239C66.4851 57.5345 66.6898 57.7996 66.9681 57.966L66.9728 57.9672Z" fill="#FA4659"/>
<path d="M66.4598 63.8871C67.0289 64.3061 69.4434 64.4959 69.4434 64.4959C69.4434 64.4959 68.5552 62.2529 67.9849 61.8327C67.7105 61.6666 67.3835 61.6088 67.0685 61.6707C66.7534 61.7326 66.473 61.9098 66.2825 62.1673C66.0919 62.4248 66.0051 62.744 66.039 63.062C66.0729 63.3801 66.2251 63.674 66.4656 63.8859L66.4598 63.8871Z" fill="#FA4659"/>
<path opacity="0.1" d="M71.4664 46.4007C71.4664 47.1061 70.1809 49.1512 70.1809 49.1512C70.1809 49.1512 68.8953 47.1061 68.8953 46.4007C68.9193 46.0784 69.0647 45.777 69.3025 45.557C69.5403 45.3371 69.8528 45.2148 70.1774 45.2148C70.5019 45.2148 70.8144 45.3371 71.0522 45.557C71.29 45.777 71.4354 46.0784 71.4594 46.4007H71.4664Z" fill="#FA4659"/>
<path opacity="0.1" d="M73.5863 50.3079C73.2018 50.9003 71.0094 51.9223 71.0094 51.9223C71.0094 51.9223 71.0491 49.5117 71.4336 48.9192C71.5189 48.7654 71.6351 48.6307 71.7749 48.5236C71.9147 48.4164 72.0751 48.339 72.2462 48.2963C72.4173 48.2535 72.5954 48.2463 72.7695 48.2751C72.9435 48.3039 73.1097 48.368 73.2578 48.4635C73.4059 48.559 73.5326 48.6839 73.6301 48.8303C73.7277 48.9767 73.7939 49.1415 73.8247 49.3145C73.8555 49.4875 73.8503 49.665 73.8093 49.8359C73.7682 50.0068 73.6924 50.1674 73.5863 50.3079Z" fill="#FA4659"/>
<path opacity="0.1" d="M73.4975 56.9859C72.8652 57.3037 70.4589 57.0837 70.4589 57.0837C70.4589 57.0837 71.7152 55.0223 72.3475 54.7045C72.4992 54.6131 72.6683 54.5539 72.8442 54.5306C73.02 54.5074 73.1987 54.5207 73.3692 54.5696C73.5396 54.6185 73.698 54.7021 73.8345 54.8149C73.9709 54.9278 74.0824 55.0676 74.162 55.2254C74.2416 55.3833 74.2875 55.5559 74.2969 55.7323C74.3062 55.9087 74.2789 56.0851 74.2164 56.2505C74.154 56.4158 74.0579 56.5666 73.9342 56.6931C73.8105 56.8197 73.6618 56.9194 73.4975 56.9859Z" fill="#FA4659"/>
<path opacity="0.1" d="M72.2809 62.0199C71.7118 62.4389 69.2973 62.6287 69.2973 62.6287C69.2973 62.6287 70.1855 60.3857 70.7558 59.9655C71.0302 59.7994 71.3572 59.7416 71.6722 59.8035C71.9873 59.8655 72.2677 60.0426 72.4582 60.3001C72.6487 60.5576 72.7356 60.8768 72.7017 61.1948C72.6678 61.5129 72.5156 61.8068 72.2751 62.0187L72.2809 62.0199Z" fill="#FA4659"/>
<path opacity="0.1" d="M68.3155 52.059C68.8239 52.5502 71.1905 53.06 71.1905 53.06C71.1905 53.06 70.6061 50.7192 70.1024 50.2269C69.9849 50.0956 69.8415 49.9899 69.6811 49.9164C69.5208 49.8428 69.3469 49.8029 69.1704 49.7991C68.9939 49.7954 68.8185 49.8279 68.6552 49.8946C68.4918 49.9614 68.3441 50.0609 68.221 50.1871C68.098 50.3132 68.0024 50.4632 67.9402 50.6278C67.8779 50.7923 67.8504 50.9679 67.8592 51.1435C67.8681 51.3191 67.9132 51.4911 67.9917 51.6486C68.0702 51.8061 68.1804 51.9458 68.3155 52.059Z" fill="#FA4659"/>
<path opacity="0.1" d="M66.9728 57.9672C67.605 58.2849 70.0113 58.0649 70.0113 58.0649C70.0113 58.0649 68.755 56.0035 68.1227 55.6858C67.823 55.5618 67.4872 55.5554 67.1829 55.6678C66.8786 55.7802 66.6282 56.0031 66.482 56.2917C66.3359 56.5803 66.3047 56.9134 66.3949 57.2239C66.4851 57.5345 66.6898 57.7996 66.9681 57.966L66.9728 57.9672Z" fill="#FA4659"/>
<path opacity="0.1" d="M66.4598 63.8871C67.0289 64.3061 69.4434 64.4959 69.4434 64.4959C69.4434 64.4959 68.5552 62.2529 67.9849 61.8327C67.7105 61.6666 67.3835 61.6088 67.0685 61.6707C66.7534 61.7326 66.473 61.9098 66.2825 62.1673C66.0919 62.4248 66.0051 62.744 66.039 63.062C66.0729 63.3801 66.2251 63.674 66.4656 63.8859L66.4598 63.8871Z" fill="#FA4659"/>
<path opacity="0.5" d="M78.289 1.78154H77.5551C77.6246 1.78484 77.6941 1.77406 77.7593 1.74984C77.8245 1.72562 77.8841 1.68847 77.9345 1.64064C77.9848 1.59281 78.0249 1.5353 78.0523 1.47159C78.0797 1.40787 78.0938 1.33928 78.0938 1.26997C78.0938 1.20065 78.0797 1.13206 78.0523 1.06835C78.0249 1.00463 77.9848 0.947118 77.9345 0.899289C77.8841 0.85146 77.8245 0.814312 77.7593 0.790093C77.6941 0.765875 77.6246 0.755091 77.5551 0.758395H71.6043C71.4723 0.764667 71.3478 0.821303 71.2566 0.916554C71.1654 1.0118 71.1146 1.13836 71.1146 1.26997C71.1146 1.40157 71.1654 1.52813 71.2566 1.62338C71.3478 1.71863 71.4723 1.77527 71.6043 1.78154H72.3382C72.2062 1.78781 72.0817 1.84445 71.9905 1.9397C71.8994 2.03495 71.8485 2.1615 71.8485 2.29311C71.8485 2.42472 71.8994 2.55127 71.9905 2.64652C72.0817 2.74177 72.2062 2.79841 72.3382 2.80468H71.3109C71.2414 2.80138 71.172 2.81216 71.1068 2.83638C71.0416 2.8606 70.982 2.89775 70.9316 2.94558C70.8812 2.9934 70.8411 3.05092 70.8137 3.11463C70.7863 3.17835 70.7722 3.24694 70.7722 3.31625C70.7722 3.38557 70.7863 3.45416 70.8137 3.51787C70.8411 3.58159 70.8812 3.6391 70.9316 3.68693C70.982 3.73476 71.0416 3.77191 71.1068 3.79613C71.172 3.82034 71.2414 3.83113 71.3109 3.82783H77.2571C77.3266 3.83113 77.3961 3.82034 77.4613 3.79613C77.5265 3.77191 77.5861 3.73476 77.6365 3.68693C77.6868 3.6391 77.7269 3.58159 77.7543 3.51787C77.7817 3.45416 77.7958 3.38557 77.7958 3.31625C77.7958 3.24694 77.7817 3.17835 77.7543 3.11463C77.7269 3.05092 77.6868 2.9934 77.6365 2.94558C77.5861 2.89775 77.5265 2.8606 77.4613 2.83638C77.3961 2.81216 77.3266 2.80138 77.2571 2.80468H78.289C78.421 2.79841 78.5455 2.74177 78.6367 2.64652C78.7279 2.55127 78.7788 2.42472 78.7788 2.29311C78.7788 2.1615 78.7279 2.03495 78.6367 1.9397C78.5455 1.84445 78.421 1.78781 78.289 1.78154Z" fill="#DEE3F3"/>
<path opacity="0.5" d="M43.9045 4.76562H43.3459C43.3991 4.76851 43.4522 4.76059 43.5022 4.74233C43.5521 4.72407 43.5978 4.69586 43.6365 4.65942C43.6751 4.62298 43.7059 4.57908 43.7269 4.53039C43.748 4.48171 43.7588 4.42926 43.7588 4.37626C43.7588 4.32326 43.748 4.27082 43.7269 4.22214C43.7059 4.17345 43.6751 4.12955 43.6365 4.09311C43.5978 4.05667 43.5521 4.02846 43.5022 4.0102C43.4522 3.99194 43.3991 3.98402 43.3459 3.98691H38.8209C38.7209 3.99236 38.6268 4.03575 38.5579 4.10817C38.4891 4.18059 38.4507 4.27653 38.4507 4.37626C38.4507 4.47599 38.4891 4.57193 38.5579 4.64435C38.6268 4.71677 38.7209 4.76017 38.8209 4.76562H39.3795C39.3263 4.76272 39.2732 4.77065 39.2232 4.78891C39.1733 4.80716 39.1276 4.83538 39.0889 4.87182C39.0503 4.90825 39.0195 4.95216 38.9985 5.00084C38.9774 5.04952 38.9666 5.10197 38.9666 5.15497C38.9666 5.20797 38.9774 5.26041 38.9985 5.3091C39.0195 5.35778 39.0503 5.40169 39.0889 5.43813C39.1276 5.47456 39.1733 5.50277 39.2232 5.52103C39.2732 5.53929 39.3263 5.54722 39.3795 5.54432H38.5976C38.5445 5.54143 38.4913 5.54935 38.4414 5.56761C38.3914 5.58587 38.3457 5.61408 38.3071 5.65052C38.2684 5.68696 38.2377 5.73086 38.2166 5.77955C38.1956 5.82823 38.1848 5.88068 38.1848 5.93368C38.1848 5.98668 38.1956 6.03912 38.2166 6.08781C38.2377 6.13649 38.2684 6.18039 38.3071 6.21683C38.3457 6.25327 38.3914 6.28148 38.4414 6.29974C38.4913 6.318 38.5445 6.32593 38.5976 6.32303H43.1227C43.1758 6.32593 43.229 6.318 43.279 6.29974C43.3289 6.28148 43.3746 6.25327 43.4133 6.21683C43.4519 6.18039 43.4827 6.13649 43.5037 6.08781C43.5247 6.03912 43.5356 5.98668 43.5356 5.93368C43.5356 5.88068 43.5247 5.82823 43.5037 5.77955C43.4827 5.73086 43.4519 5.68696 43.4133 5.65052C43.3746 5.61408 43.3289 5.58587 43.279 5.56761C43.229 5.54935 43.1758 5.54143 43.1227 5.54432H43.9045C44.0045 5.53888 44.0986 5.49548 44.1675 5.42306C44.2363 5.35064 44.2747 5.2547 44.2747 5.15497C44.2747 5.05524 44.2363 4.9593 44.1675 4.88688C44.0986 4.81446 44.0045 4.77106 43.9045 4.76562Z" fill="#DEE3F3"/>
<path d="M5.9228 59.918C5.9228 59.918 7.96796 63.9163 6.30144 66.1034C4.63493 68.2905 6.45337 74.2513 6.45337 74.2513" stroke="#FA4659" stroke-miterlimit="10"/>
<path d="M6.53286 58.6663C6.53286 59.4369 5.96488 60.0631 5.96488 60.0631C5.96488 60.0631 5.39691 59.438 5.39691 58.6663C5.39691 57.8946 5.96488 57.2695 5.96488 57.2695C5.96488 57.2695 6.53286 57.8958 6.53286 58.6663Z" fill="#FA4659"/>
<path d="M6.98285 59.918C6.98285 59.918 4.93768 63.9163 6.6042 66.1034C8.27071 68.2905 6.45227 74.2513 6.45227 74.2513" stroke="#FA4659" stroke-miterlimit="10"/>
<path d="M6.37744 58.6663C6.37744 59.4369 6.94541 60.0631 6.94541 60.0631C6.94541 60.0631 7.51339 59.438 7.51339 58.6663C7.51339 57.8946 6.94541 57.2695 6.94541 57.2695C6.94541 57.2695 6.37744 57.8958 6.37744 58.6663Z" fill="#FA4659"/>
<path opacity="0.1" d="M6.37744 58.6663C6.37744 59.4369 6.94541 60.0631 6.94541 60.0631C6.94541 60.0631 7.51339 59.438 7.51339 58.6663C7.51339 57.8946 6.94541 57.2695 6.94541 57.2695C6.94541 57.2695 6.37744 57.8958 6.37744 58.6663Z" fill="black"/>
<path d="M7.81843 59.918C7.81843 59.918 9.8636 63.9163 8.19708 66.1034C6.53055 68.2905 8.349 74.2513 8.349 74.2513" stroke="#FA4659" stroke-miterlimit="10"/>
<path d="M8.4225 58.6663C8.4225 59.4369 7.85453 60.0631 7.85453 60.0631C7.85453 60.0631 7.28656 59.438 7.28656 58.6663C7.28656 57.8946 7.85453 57.2695 7.85453 57.2695C7.85453 57.2695 8.4225 57.8958 8.4225 58.6663Z" fill="#FA4659"/>
<path d="M8.10353 61.8694C7.56712 62.4247 6.72217 62.4828 6.72217 62.4828C6.72217 62.4828 6.74788 61.6401 7.2843 61.0861C7.82071 60.532 8.66566 60.4727 8.66566 60.4727C8.66566 60.4727 8.63645 61.3131 8.10353 61.8694Z" fill="#FA4659"/>
<path d="M8.15736 64.6292C7.62095 65.1844 6.776 65.2426 6.776 65.2426C6.776 65.2426 6.80171 64.3999 7.33813 63.8458C7.87455 63.2918 8.71949 63.2324 8.71949 63.2324C8.71949 63.2324 8.69378 64.0728 8.15736 64.6292Z" fill="#FA4659"/>
<path d="M5.24727 66.1462C5.75447 66.7281 5.73694 67.5709 5.73694 67.5709C5.73694 67.5709 4.89667 67.4696 4.38946 66.8876C3.88226 66.3056 3.89979 65.4629 3.89979 65.4629C3.89979 65.4629 4.74006 65.5642 5.24727 66.1462Z" fill="#FA4659"/>
<path d="M5.71478 60.2667C6.35988 60.6927 6.56907 61.5098 6.56907 61.5098C6.56907 61.5098 5.73231 61.6367 5.08721 61.2106C4.4421 60.7846 4.23291 59.9675 4.23291 59.9675C4.23291 59.9675 5.07318 59.8383 5.71478 60.2667Z" fill="#FA4659"/>
<path opacity="0.1" d="M5.71478 60.2667C6.35988 60.6927 6.56907 61.5098 6.56907 61.5098C6.56907 61.5098 5.73231 61.6367 5.08721 61.2106C4.4421 60.7846 4.23291 59.9675 4.23291 59.9675C4.23291 59.9675 5.07318 59.8383 5.71478 60.2667Z" fill="black"/>
<path d="M8.87597 59.918C8.87597 59.918 6.8308 63.9163 8.49733 66.1034C10.1638 68.2905 8.3454 74.2513 8.3454 74.2513" stroke="#FA4659" stroke-miterlimit="10"/>
<path d="M8.27063 58.6663C8.27063 59.4369 8.8386 60.0631 8.8386 60.0631C8.8386 60.0631 9.40657 59.438 9.40657 58.6663C9.40657 57.8946 8.8386 57.2695 8.8386 57.2695C8.8386 57.2695 8.27063 57.8958 8.27063 58.6663Z" fill="#FA4659"/>
<path opacity="0.1" d="M8.27063 58.6663C8.27063 59.4369 8.8386 60.0631 8.8386 60.0631C8.8386 60.0631 9.40657 59.438 9.40657 58.6663C9.40657 57.8946 8.8386 57.2695 8.8386 57.2695C8.8386 57.2695 8.27063 57.8958 8.27063 58.6663Z" fill="black"/>
<path d="M8.43431 61.9292C7.89088 62.4786 7.84998 63.3259 7.84998 63.3259C7.84998 63.3259 8.69492 63.2782 9.23835 62.7288C9.78178 62.1794 9.82269 61.332 9.82269 61.332C9.82269 61.332 8.97774 61.3798 8.43431 61.9292Z" fill="#FA4659"/>
<path opacity="0.1" d="M8.43431 61.9292C7.89088 62.4786 7.84998 63.3259 7.84998 63.3259C7.84998 63.3259 8.69492 63.2782 9.23835 62.7288C9.78178 62.1794 9.82269 61.332 9.82269 61.332C9.82269 61.332 8.97774 61.3798 8.43431 61.9292Z" fill="black"/>
<path d="M9.49895 65.7495C8.95552 66.2989 8.91461 67.1463 8.91461 67.1463C8.91461 67.1463 9.75956 67.0985 10.303 66.5491C10.8464 65.9997 10.8873 65.1523 10.8873 65.1523C10.8873 65.1523 10.0389 65.2001 9.49895 65.7495Z" fill="#FA4659"/>
<path d="M7.9353 64.9104C7.9353 64.9104 9.16591 62.9782 10.8944 62.9316" stroke="#FA4659" stroke-miterlimit="10"/>
<path d="M6.97341 63.7424C6.97341 63.7424 5.7428 61.8102 4.01434 61.7637" stroke="#FA4659" stroke-miterlimit="10"/>
<path d="M6.81335 66.5003C6.81335 66.5003 8.04396 64.568 9.77242 64.5215" stroke="#FA4659" stroke-miterlimit="10"/>
<path d="M10.8348 63.239C11.011 63.239 11.1538 63.0968 11.1538 62.9213C11.1538 62.7458 11.011 62.6035 10.8348 62.6035C10.6586 62.6035 10.5157 62.7458 10.5157 62.9213C10.5157 63.0968 10.6586 63.239 10.8348 63.239Z" fill="#FA4659"/>
<path d="M4.04475 62.0984C4.22096 62.0984 4.3638 61.9561 4.3638 61.7807C4.3638 61.6052 4.22096 61.4629 4.04475 61.4629C3.86855 61.4629 3.72571 61.6052 3.72571 61.7807C3.72571 61.9561 3.86855 62.0984 4.04475 62.0984Z" fill="#FA4659"/>
<path d="M7.71901 67.135C7.71901 67.135 6.48841 65.2028 4.75995 65.1562" stroke="#FA4659" stroke-miterlimit="10"/>
<path d="M4.79042 65.491C4.96663 65.491 5.10947 65.3487 5.10947 65.1732C5.10947 64.9977 4.96663 64.8555 4.79042 64.8555C4.61422 64.8555 4.47137 64.9977 4.47137 65.1732C4.47137 65.3487 4.61422 65.491 4.79042 65.491Z" fill="#FA4659"/>
<path d="M9.79579 64.8562C9.972 64.8562 10.1148 64.714 10.1148 64.5385C10.1148 64.363 9.972 64.2207 9.79579 64.2207C9.61959 64.2207 9.47675 64.363 9.47675 64.5385C9.47675 64.714 9.61959 64.8562 9.79579 64.8562Z" fill="#FA4659"/>
<path d="M14.5242 71.924C14.5242 71.924 11.5581 71.3327 10.7658 70.5446C9.97341 69.7566 6.41598 68.3785 6.0198 69.3632C5.62363 70.3479 0.680163 73.6967 4.04242 74.288C7.40468 74.8793 11.9531 75.076 12.9418 74.6814C13.9305 74.2869 14.5242 71.924 14.5242 71.924Z" fill="#A8A8A8"/>
<path opacity="0.2" d="M4.04234 73.9207C7.4046 74.512 11.9531 74.7087 12.9417 74.3141C13.6944 74.0138 14.2179 72.5681 14.4248 71.9023L14.5241 71.9233C14.5241 71.9233 13.9304 74.2874 12.9417 74.6808C11.9531 75.0742 7.4046 74.8775 4.04234 74.2874C3.07235 74.1163 2.79421 73.7158 2.89939 73.2095C2.98119 73.5354 3.32011 73.7938 4.04234 73.9207Z" fill="black"/>
<path d="M104.576 60.8242C104.576 60.8242 105.555 62.1046 104.124 64.0252C102.692 65.9458 101.512 67.5765 101.99 68.7777C101.99 68.7777 104.149 65.2008 105.907 65.1508C107.665 65.1007 106.51 62.9741 104.576 60.8242Z" fill="#FA4659"/>
<path opacity="0.1" d="M104.576 60.8242C104.661 60.9476 104.728 61.0824 104.776 61.2246C106.491 63.2313 107.404 65.1042 105.756 65.1519C104.221 65.1962 102.379 67.9304 101.937 68.6218C101.952 68.6751 101.969 68.7275 101.99 68.7789C101.99 68.7789 104.149 65.202 105.907 65.1519C107.665 65.1019 106.51 62.9741 104.576 60.8242Z" fill="black"/>
<path d="M106.397 62.4475C106.397 62.8968 106.346 63.2623 106.28 63.2623C106.213 63.2623 106.163 62.8979 106.163 62.4475C106.163 61.997 106.226 62.2147 106.288 62.2147C106.35 62.2147 106.397 61.9993 106.397 62.4475Z" fill="#FFD037"/>
<path d="M107.022 62.9851C106.626 63.2004 106.281 63.3343 106.252 63.2749C106.223 63.2156 106.518 63.0014 106.914 62.7872C107.311 62.573 107.154 62.729 107.184 62.7872C107.215 62.8454 107.417 62.7698 107.022 62.9851Z" fill="#FFD037"/>
<path d="M99.4034 60.8242C99.4034 60.8242 98.424 62.1046 99.8556 64.0252C101.287 65.9458 102.468 67.5765 101.99 68.7777C101.99 68.7777 99.8299 65.2008 98.0722 65.1508C96.3146 65.1007 97.4692 62.9741 99.4034 60.8242Z" fill="#FA4659"/>
<path opacity="0.1" d="M99.4033 60.8242C99.318 60.9476 99.2507 61.0824 99.2035 61.2246C97.4879 63.2313 96.5752 65.1042 98.223 65.1519C99.7586 65.1962 101.6 67.9304 102.042 68.6218C102.028 68.6751 102.01 68.7275 101.99 68.7789C101.99 68.7789 99.8299 65.202 98.0722 65.1519C96.3146 65.1019 97.4692 62.9741 99.4033 60.8242Z" fill="black"/>
<path d="M97.5825 62.4475C97.5825 62.8968 97.6328 63.2623 97.6994 63.2623C97.766 63.2623 97.8163 62.8979 97.8163 62.4475C97.8163 61.997 97.7531 62.2147 97.6912 62.2147C97.6293 62.2147 97.5825 61.9993 97.5825 62.4475Z" fill="#FFD037"/>
<path d="M96.9572 62.9851C97.3534 63.2004 97.6982 63.3343 97.7274 63.2749C97.7566 63.2156 97.4609 63.0014 97.0648 62.7872C96.6686 62.573 96.8252 62.729 96.7948 62.7872C96.7644 62.8454 96.5611 62.7698 96.9572 62.9851Z" fill="#FFD037"/>
<path d="M97.8945 68.6098C97.8945 68.6098 100.633 68.526 101.458 67.9405C102.283 67.355 105.665 66.6601 105.874 67.5913C106.083 68.5225 109.989 72.2601 106.898 72.2845C103.807 72.309 99.7153 71.805 98.8914 71.3056C98.0675 70.8063 97.8945 68.6098 97.8945 68.6098Z" fill="#A8A8A8"/>
<path opacity="0.2" d="M106.953 71.9601C103.862 71.9845 99.7702 71.4805 98.9463 70.9812C98.3188 70.6005 98.0687 69.2352 97.9857 68.6055H97.8945C97.8945 68.6055 98.0675 70.8054 98.8914 71.3048C99.7153 71.8041 103.807 72.3093 106.898 72.2837C107.791 72.2767 108.098 71.9601 108.082 71.4922C107.958 71.7773 107.623 71.9543 106.953 71.9601Z" fill="black"/>
<path opacity="0.5" d="M20.7836 8.68779H20.0497C20.1192 8.69109 20.1886 8.68031 20.2538 8.65609C20.319 8.63187 20.3786 8.59472 20.429 8.54689C20.4794 8.49906 20.5195 8.44155 20.5469 8.37783C20.5742 8.31412 20.5884 8.24553 20.5884 8.17622C20.5884 8.1069 20.5742 8.03831 20.5469 7.9746C20.5195 7.91088 20.4794 7.85337 20.429 7.80554C20.3786 7.75771 20.319 7.72056 20.2538 7.69634C20.1886 7.67213 20.1192 7.66134 20.0497 7.66464H14.1035C13.9715 7.67092 13.847 7.72755 13.7558 7.8228C13.6646 7.91806 13.6138 8.04461 13.6138 8.17622C13.6138 8.30782 13.6646 8.43438 13.7558 8.52963C13.847 8.62488 13.9715 8.68152 14.1035 8.68779H14.8374C14.7054 8.69406 14.5809 8.7507 14.4897 8.84595C14.3986 8.9412 14.3477 9.06775 14.3477 9.19936C14.3477 9.33096 14.3986 9.45752 14.4897 9.55277C14.5809 9.64802 14.7054 9.70466 14.8374 9.71093H13.8101C13.6782 9.7172 13.5537 9.77384 13.4625 9.86909C13.3713 9.96434 13.3204 10.0909 13.3204 10.2225C13.3204 10.3541 13.3713 10.4807 13.4625 10.5759C13.5537 10.6712 13.6782 10.7278 13.8101 10.7341H19.7563C19.8258 10.7374 19.8953 10.7266 19.9605 10.7024C20.0257 10.6782 20.0853 10.641 20.1357 10.5932C20.186 10.5453 20.2261 10.4878 20.2535 10.4241C20.2809 10.3604 20.295 10.2918 20.295 10.2225C20.295 10.1532 20.2809 10.0846 20.2535 10.0209C20.2261 9.95717 20.186 9.89965 20.1357 9.85182C20.0853 9.804 20.0257 9.76685 19.9605 9.74263C19.8953 9.71841 19.8258 9.70763 19.7563 9.71093H20.7836C20.9156 9.70466 21.0401 9.64802 21.1312 9.55277C21.2224 9.45752 21.2733 9.33096 21.2733 9.19936C21.2733 9.06775 21.2224 8.9412 21.1312 8.84595C21.0401 8.7507 20.9156 8.69406 20.7836 8.68779Z" fill="#DEE3F3"/>
</g>
<defs>
<linearGradient id="paint0_linear" x1="53.8171" y1="63.2931" x2="53.8171" y2="15.1041" gradientUnits="userSpaceOnUse">
<stop stop-color="#808080" stop-opacity="0.25"/>
<stop offset="0.54" stop-color="#808080" stop-opacity="0.12"/>
<stop offset="1" stop-color="#808080" stop-opacity="0.1"/>
</linearGradient>
<linearGradient id="paint1_linear" x1="44.7449" y1="55.0941" x2="44.7449" y2="55.0885" gradientUnits="userSpaceOnUse">
<stop stop-color="#808080" stop-opacity="0.25"/>
<stop offset="0.54" stop-color="#808080" stop-opacity="0.12"/>
<stop offset="1" stop-color="#808080" stop-opacity="0.1"/>
</linearGradient>
<linearGradient id="paint2_linear" x1="7525.7" y1="23535.7" x2="7525.7" y2="10552.2" gradientUnits="userSpaceOnUse">
<stop stop-color="#808080" stop-opacity="0.25"/>
<stop offset="0.54" stop-color="#808080" stop-opacity="0.12"/>
<stop offset="1" stop-color="#808080" stop-opacity="0.1"/>
</linearGradient>
<linearGradient id="paint3_linear" x1="21199.9" y1="28529.8" x2="21199.9" y2="9247.33" gradientUnits="userSpaceOnUse">
<stop stop-color="#808080" stop-opacity="0.25"/>
<stop offset="0.54" stop-color="#808080" stop-opacity="0.12"/>
<stop offset="1" stop-color="#808080" stop-opacity="0.1"/>
</linearGradient>
<clipPath id="clip0">
<rect width="111" height="77" fill="white"/>
</clipPath>
</defs>
</svg>
