<svg width="76" height="76" viewBox="0 0 76 76" fill="none" xmlns="http://www.w3.org/2000/svg">
<g opacity="0.5">
<path opacity="0.5" d="M38 76C58.9868 76 76 58.9868 76 38C76 17.0132 58.9868 0 38 0C17.0132 0 0 17.0132 0 38C0 58.9868 17.0132 76 38 76Z" fill="url(#paint0_linear)"/>
</g>
<path d="M38.0741 74.9558C58.6183 74.9558 75.2727 58.3014 75.2727 37.7572C75.2727 17.213 58.6183 0.558594 38.0741 0.558594C17.5299 0.558594 0.875488 17.213 0.875488 37.7572C0.875488 58.3014 17.5299 74.9558 38.0741 74.9558Z" fill="#F5F5F5"/>
<path d="M38.1088 75.1035C45.3774 75.1154 52.4887 72.9872 58.5559 68.9843C57.185 61.4932 51.9685 61.0664 51.9685 61.0664H23.2017C23.2017 61.0664 18.2791 61.4704 16.7417 68.3615C22.9969 72.7615 30.4611 75.1167 38.1088 75.1035V75.1035Z" fill="#FA4659"/>
<path d="M37.714 54.927C47.6301 54.927 55.6687 46.8884 55.6687 36.9723C55.6687 27.0562 47.6301 19.0176 37.714 19.0176C27.7979 19.0176 19.7593 27.0562 19.7593 36.9723C19.7593 46.8884 27.7979 54.927 37.714 54.927Z" fill="#333333"/>
<path opacity="0.1" d="M31.9185 51.9277H43.423V61.1316C43.423 62.6568 42.8172 64.1196 41.739 65.1983C40.6607 66.277 39.1981 66.8833 37.6729 66.8838V66.8838C36.1473 66.8838 34.6842 66.2778 33.6054 65.199C32.5267 64.1203 31.9206 62.6572 31.9206 61.1316V51.9277H31.9185Z" fill="black"/>
<path d="M32.284 51.502H43.0633C43.1601 51.502 43.2528 51.5404 43.3213 51.6088C43.3897 51.6772 43.4281 51.77 43.4281 51.8667V60.7058C43.4282 61.4615 43.2795 62.2098 42.9903 62.9079C42.7012 63.6061 42.2773 64.2404 41.7429 64.7747C41.2085 65.309 40.5741 65.7328 39.8759 66.0218C39.1776 66.3108 38.4293 66.4594 37.6736 66.4591V66.4591C36.1481 66.4591 34.6849 65.8531 33.6062 64.7743C32.5274 63.6956 31.9214 62.2325 31.9214 60.7069V51.8667C31.9214 51.7703 31.9595 51.6779 32.0274 51.6096C32.0954 51.5412 32.1876 51.5025 32.284 51.502V51.502Z" fill="#FDB797"/>
<path opacity="0.1" d="M31.9399 56.2726C35.6477 57.6578 39.7291 57.669 43.4445 56.3041V54.8887H31.9399V56.2726Z" fill="black"/>
<path d="M37.7134 57.043C46.8207 57.043 54.2037 49.6601 54.2037 40.5528C54.2037 31.4454 46.8207 24.0625 37.7134 24.0625C28.6061 24.0625 21.2231 31.4454 21.2231 40.5528C21.2231 49.6601 28.6061 57.043 37.7134 57.043Z" fill="#FDB797"/>
<path opacity="0.1" d="M25.9673 25.5525C25.9673 25.5525 32.9173 39.6593 52.5216 31.467L47.9572 24.3101L39.8661 21.4062L25.9673 25.5525Z" fill="black"/>
<path d="M25.9673 25.3457C25.9673 25.3457 32.9173 39.4525 52.5216 31.258L47.9572 24.1012L39.8661 21.1973L25.9673 25.3457Z" fill="#333333"/>
<path d="M25.9063 24.3891C26.3749 22.9385 27.1848 21.6215 28.2679 20.5488C31.5115 17.3422 36.8294 16.666 39.5569 13.0098C40.2102 14.0246 39.7049 15.5848 38.5769 16.0204C41.1901 16.0029 44.2181 15.7743 45.6957 13.625C46.0608 14.475 46.1772 15.4113 46.0313 16.3249C45.8854 17.2385 45.4832 18.0919 44.8714 18.786C47.1873 18.8949 49.6623 20.4628 49.8082 22.7765C49.9083 24.3183 48.9371 25.7773 47.6751 26.6615C46.4132 27.5456 44.8758 27.9517 43.3678 28.2838C38.9645 29.2561 23.0329 33.3251 25.9063 24.3891Z" fill="#333333"/>
<path d="M21.2173 43.4135C22.0645 43.4135 22.7514 42.1256 22.7514 40.5368C22.7514 38.9481 22.0645 37.6602 21.2173 37.6602C20.37 37.6602 19.6831 38.9481 19.6831 40.5368C19.6831 42.1256 20.37 43.4135 21.2173 43.4135Z" fill="#FDB797"/>
<path d="M54.2016 43.4135C55.0489 43.4135 55.7358 42.1256 55.7358 40.5368C55.7358 38.9481 55.0489 37.6602 54.2016 37.6602C53.3543 37.6602 52.6675 38.9481 52.6675 40.5368C52.6675 42.1256 53.3543 43.4135 54.2016 43.4135Z" fill="#FDB797"/>
<defs>
<linearGradient id="paint0_linear" x1="38" y1="76" x2="38" y2="0" gradientUnits="userSpaceOnUse">
<stop stop-color="#808080" stop-opacity="0.25"/>
<stop offset="0.54" stop-color="#808080" stop-opacity="0.12"/>
<stop offset="1" stop-color="#808080" stop-opacity="0.1"/>
</linearGradient>
</defs>
</svg>
