<svg width="135" height="83" viewBox="0 0 135 83" fill="none" xmlns="http://www.w3.org/2000/svg">
<g clip-path="url(#clip0)">
<path d="M51.05 52.1543C50.994 52.0983 49.6656 50.7439 48.5396 47.5303C47.5065 44.5819 46.464 39.4403 47.3648 31.6894C49.0714 17.0058 40.3202 7.64796 40.2314 7.55513L40.4905 7.30469C40.513 7.32823 42.763 9.70949 44.7649 13.8899C47.4148 19.4333 48.4404 25.6223 47.7215 31.7315C46.0179 46.39 51.2503 51.8447 51.3034 51.8982L51.05 52.1543Z" fill="#F2F2F2"/>
<path d="M37.5447 7.3104C38.8336 7.3104 39.8785 6.25848 39.8785 4.96086C39.8785 3.66325 38.8336 2.61133 37.5447 2.61133C36.2558 2.61133 35.2109 3.66325 35.2109 4.96086C35.2109 6.25848 36.2558 7.3104 37.5447 7.3104Z" fill="#F2F2F2"/>
<path d="M46.739 13.9803C48.028 13.9803 49.0728 12.9284 49.0728 11.6308C49.0728 10.3332 48.028 9.28125 46.739 9.28125C45.4501 9.28125 44.4053 10.3332 44.4053 11.6308C44.4053 12.9284 45.4501 13.9803 46.739 13.9803Z" fill="#F2F2F2"/>
<path d="M43.2185 20.7987C44.5074 20.7987 45.5523 19.7468 45.5523 18.4491C45.5523 17.1515 44.5074 16.0996 43.2185 16.0996C41.9296 16.0996 40.8848 17.1515 40.8848 18.4491C40.8848 19.7468 41.9296 20.7987 43.2185 20.7987Z" fill="#F2F2F2"/>
<path d="M50.2976 24.0819C51.5865 24.0819 52.6314 23.03 52.6314 21.7324C52.6314 20.4347 51.5865 19.3828 50.2976 19.3828C49.0087 19.3828 47.9639 20.4347 47.9639 21.7324C47.9639 23.03 49.0087 24.0819 50.2976 24.0819Z" fill="#F2F2F2"/>
<path d="M44.4129 33.3417C45.7018 33.3417 46.7467 32.2897 46.7467 30.9921C46.7467 29.6945 45.7018 28.6426 44.4129 28.6426C43.124 28.6426 42.0791 29.6945 42.0791 30.9921C42.0791 32.2897 43.124 33.3417 44.4129 33.3417Z" fill="#F2F2F2"/>
<path d="M52.4406 51.9019C52.4406 51.9019 48.8108 46.8408 54.5903 40.9551L52.4406 51.9019Z" fill="#F2F2F2"/>
<path d="M49.6273 52.4861C49.6273 52.4861 47.1465 46.765 39.1729 48.7793L49.6273 52.4861Z" fill="#F2F2F2"/>
<path d="M95.0315 70.48C95.0217 70.3615 94.8133 67.5209 96.6273 62.7595C98.2917 58.3912 102.059 51.5149 110.555 43.5637C126.649 28.5009 125.697 9.29117 125.685 9.09873L126.222 9.06641C126.225 9.1152 126.493 14.026 124.746 20.7444C122.423 29.6486 117.627 37.7017 110.92 43.96C94.8531 58.9972 95.558 70.3229 95.5669 70.4356L95.0315 70.48Z" fill="#F2F2F2"/>
<path d="M125.125 7.03201C127.054 7.03201 128.618 5.45784 128.618 3.516C128.618 1.57417 127.054 0 125.125 0C123.196 0 121.633 1.57417 121.633 3.516C121.633 5.45784 123.196 7.03201 125.125 7.03201Z" fill="#F2F2F2"/>
<path d="M129.172 23.6121C131.101 23.6121 132.665 22.0379 132.665 20.0961C132.665 18.1542 131.101 16.5801 129.172 16.5801C127.243 16.5801 125.68 18.1542 125.68 20.0961C125.68 22.0379 127.243 23.6121 129.172 23.6121Z" fill="#F2F2F2"/>
<path d="M118.59 27.9422C120.519 27.9422 122.082 26.368 122.082 24.4262C122.082 22.4843 120.519 20.9102 118.59 20.9102C116.661 20.9102 115.098 22.4843 115.098 24.4262C115.098 26.368 116.661 27.9422 118.59 27.9422Z" fill="#F2F2F2"/>
<path d="M123.492 38.5984C125.421 38.5984 126.985 37.0242 126.985 35.0824C126.985 33.1406 125.421 31.5664 123.492 31.5664C121.564 31.5664 120 33.1406 120 35.0824C120 37.0242 121.564 38.5984 123.492 38.5984Z" fill="#F2F2F2"/>
<path d="M107.863 43.4012C109.791 43.4012 111.355 41.827 111.355 39.8851C111.355 37.9433 109.791 36.3691 107.863 36.3691C105.934 36.3691 104.37 37.9433 104.37 39.8851C104.37 41.827 105.934 43.4012 107.863 43.4012Z" fill="#F2F2F2"/>
<path d="M96.8584 71.5503C96.8584 71.5503 97.6002 62.2384 109.857 61.1777L96.8584 71.5503Z" fill="#F2F2F2"/>
<path d="M93.091 69.468C93.091 69.468 95.7779 60.5265 84.752 55.0332L93.091 69.468Z" fill="#F2F2F2"/>
<path d="M16.864 61.5762C15.6999 65.9088 11.7123 68.5921 11.7123 68.5921C11.7123 68.5921 9.61219 64.2508 10.7764 59.9182C11.9406 55.5856 15.9281 52.9023 15.9281 52.9023C15.9281 52.9023 18.0282 57.2436 16.864 61.5762Z" fill="#FA4659"/>
<path d="M6.27295 61.5762C7.43714 65.9088 11.4247 68.5921 11.4247 68.5921C11.4247 68.5921 13.5248 64.2508 12.3606 59.9182C11.1964 55.5856 7.20885 52.9023 7.20885 52.9023C7.20885 52.9023 5.10877 57.2436 6.27295 61.5762Z" fill="#FA4659"/>
<path d="M7.98373 60.644C11.1783 63.7748 11.5685 68.5875 11.5685 68.5875C11.5685 68.5875 6.77927 68.3242 3.58473 65.1935C0.39019 62.0627 0 57.25 0 57.25C0 57.25 4.78919 57.5133 7.98373 60.644Z" fill="#3F3D56"/>
<path d="M15.1531 60.644C11.9585 63.7748 11.5684 68.5875 11.5684 68.5875C11.5684 68.5875 16.3575 68.3242 19.5521 65.1935C22.7466 62.0627 23.1368 57.25 23.1368 57.25C23.1368 57.25 18.3476 57.5133 15.1531 60.644Z" fill="#3F3D56"/>
<path d="M135 77.9023H1.18018V78.2157H135V77.9023Z" fill="#2F2E41"/>
<path d="M71.8119 29.7833C71.8119 29.7833 70.423 28.385 67.2285 28.6647C67.2285 28.6647 36.3954 25.4487 35.7009 31.1816C35.0065 36.9144 34.8676 40.2703 36.6732 41.5287C36.6732 41.5287 42.5759 46.912 39.5204 51.6661L37.8537 54.4626L103.27 53.9033C103.27 53.9033 103.964 43.696 106.048 41.7384C108.131 39.7809 108.826 29.4337 106.048 29.1541C103.27 28.8744 71.048 27.3363 71.8119 29.7833Z" fill="#3F3D56"/>
<path d="M37.2987 41.1774C37.2987 41.1774 17.7154 45.7917 25.4932 54.4609L26.7432 55.7194L26.1876 75.0154H116.465L117.437 56.1388L118.548 53.9016C118.548 53.9016 125.467 45.547 105.48 42.5233L101.882 51.6644L41.0486 51.2449C41.0486 51.2449 40.632 40.8978 37.2987 41.1774Z" fill="#3F3D56"/>
<path d="M33.5489 73.7578H27.8545V78.0924H33.5489V73.7578Z" fill="#3F3D56"/>
<path d="M115.492 73.7578H109.798V78.0924H115.492V73.7578Z" fill="#3F3D56"/>
<path d="M70.7554 51.7359C70.7554 51.7359 57.1592 42.018 40.2148 51.8058L35.2148 59.0768L36.1871 65.0893C36.1871 65.0893 71.3258 65.6486 71.7424 61.8733C72.1591 58.098 70.7554 51.7359 70.7554 51.7359Z" fill="#3F3D56"/>
<path d="M102.576 51.8066C102.576 51.8066 78.7217 44.1162 71.5518 51.8066L72.4373 62.8529C72.4373 62.8529 107.298 65.5096 107.854 63.6919C108.409 61.8741 108.687 58.6581 108.687 58.6581L102.576 51.8066Z" fill="#3F3D56"/>
<path opacity="0.1" d="M102.576 51.8048C102.576 51.8048 78.7212 44.1143 71.5513 51.8048L71.571 52.0511C71.5475 51.9368 71.5341 51.8747 71.5341 51.8747C71.5341 51.8747 57.1592 42.0169 40.2148 51.8048L35.2148 59.0757L36.1871 65.0883C36.1871 65.0883 70.2125 65.8169 72.3985 62.3722L72.4369 62.8511C72.4369 62.8511 107.298 65.5078 107.853 63.69C108.409 61.8723 108.687 58.6563 108.687 58.6563L102.576 51.8048Z" fill="black"/>
<path d="M37.8545 32.5086C44.6049 32.3641 51.0043 31.5016 56.8822 29.5723C57.0251 36.3791 57.9972 42.7452 60.2155 48.4488C53.6441 47.2466 46.9745 48.4363 40.2156 51.8046C41.4295 45.6514 40.38 39.1829 37.8545 32.5086Z" fill="#FA4659"/>
<path d="M106.882 33.6278C100.131 33.4832 93.7317 32.6207 87.8538 30.6914C87.7108 37.4982 86.7388 43.8643 84.5205 49.5679C91.0919 48.3657 97.7615 49.5554 104.52 52.9238C103.306 46.7706 104.356 40.302 106.882 33.6278Z" fill="#FA4659"/>
<path d="M63.5306 31.8415C63.9238 31.5598 64.3578 31.3407 64.8172 31.192C67.7302 30.1008 70.7823 29.4319 73.8822 29.2053C76.5777 29.0129 79.4991 29.2415 81.6044 30.9469C81.9318 31.1888 82.1998 31.5032 82.3877 31.8657C82.6525 32.4411 82.5723 33.11 82.4865 33.7383C82.4673 33.982 82.4063 34.2205 82.3062 34.4432C82.0229 34.9863 81.3254 35.1765 80.7195 35.1114C80.1137 35.0463 79.5452 34.7882 78.9476 34.6685C78.5778 34.6036 78.2038 34.5653 77.8285 34.5538L74.0807 34.3495C71.7501 34.2225 69.3889 34.0976 67.1028 34.5711C66.3991 34.6985 65.719 34.9344 65.0868 35.2705C64.5646 35.5657 64.213 35.9892 63.7285 35.444C62.8773 34.4863 62.4062 32.7261 63.5306 31.8415Z" fill="#2F2E41"/>
<path d="M69.3379 33.5106C69.3379 33.5106 74.3789 31.2356 76.291 33.8606C78.2031 36.4856 75.248 35.4356 75.248 35.4356L71.9453 36.4856L68.2949 35.7856L69.3379 33.5106Z" fill="#F2F2F2"/>
<path d="M69.5986 31.8484C69.5986 31.8484 70.2939 35.1735 69.7725 36.0485C69.251 36.9235 72.7275 38.1485 72.7275 38.1485L76.0302 36.7485C76.0302 36.7485 75.1611 31.3234 76.0302 30.2734L69.5986 31.8484Z" fill="#FFB9B9"/>
<path opacity="0.1" d="M69.5986 31.8484C69.5986 31.8484 70.2939 35.1735 69.7725 36.0485C69.251 36.9235 72.7275 38.1485 72.7275 38.1485L76.0302 36.7485C76.0302 36.7485 75.1611 31.3234 76.0302 30.2734L69.5986 31.8484Z" fill="black"/>
<path d="M66.3415 71.8279C66.8389 72.7879 67.1612 73.8278 67.4902 74.8585C67.4951 74.8929 67.5071 74.9259 67.5255 74.9552C67.544 74.9846 67.5683 75.0097 67.597 75.029C67.6258 75.0482 67.6582 75.0611 67.6922 75.0669C67.7262 75.0726 67.7611 75.071 67.7945 75.0623L70.8864 75.0588C71.268 75.0584 71.7799 74.935 71.7759 74.5508C71.7731 74.2809 71.4991 74.1127 71.2952 73.9375C70.7292 73.4513 70.5818 72.6496 70.3474 71.9387C69.8918 70.5691 69.0137 69.3819 67.8411 68.5498C67.6826 68.4248 67.5002 68.334 67.3053 68.2831C67.1094 68.2545 66.9097 68.2654 66.7179 68.3152C66.1752 68.4255 64.1483 68.8027 64.5312 69.5975C64.6961 69.9397 65.307 70.2959 65.5632 70.6156C65.8617 70.9929 66.1224 71.399 66.3415 71.8279V71.8279Z" fill="#575A89"/>
<path d="M77.0932 68.2187C76.9842 68.4494 76.8628 68.6739 76.7297 68.8914C76.2817 69.6352 75.7531 70.329 75.336 71.0907C75.0758 71.5658 74.8568 72.0793 74.828 72.6211C74.7993 73.1629 74.9888 73.7395 75.4181 74.0675C75.8669 74.4104 76.4823 74.4262 77.0401 74.3463C77.598 74.2665 78.1526 74.1055 78.7144 74.1479C78.525 73.0687 79.4291 72.1189 79.6552 71.0468C79.7187 70.7457 79.7281 70.4335 79.8132 70.1378C79.9048 69.8675 80.022 69.6066 80.1632 69.3588C80.6134 68.4762 80.9316 67.5314 81.1074 66.5551C81.1287 66.4367 78.359 66.4173 78.0992 66.4739C77.2884 66.6504 77.407 67.5418 77.0932 68.2187Z" fill="#575A89"/>
<path d="M55.7454 51.2636C54.9547 52.5093 55.1369 54.1602 55.6922 55.5287C56.2475 56.8972 57.1314 58.1071 57.7364 59.4541C58.122 60.3129 58.3925 61.2234 58.8267 62.0584C59.3645 63.0922 60.1497 64.0035 60.5106 65.1126C60.7406 65.8196 60.7934 66.5944 61.166 67.2368C61.3912 67.5802 61.6483 67.9012 61.9337 68.1957C62.7363 69.1214 63.3389 70.2051 63.7032 71.3778C64.0438 70.3564 65.0636 69.6867 66.111 69.4658C67.1585 69.2449 68.2438 69.395 69.3034 69.5457C68.7123 68.6238 68.1155 67.6902 67.7631 66.6518C67.4224 65.6476 67.3218 64.5792 67.0923 63.5434C66.6215 61.4194 65.6159 59.4603 64.6204 57.5285L69.7373 57.1199C70.5725 57.0354 71.4122 57.0041 72.2513 57.026C73.5721 57.0887 74.866 57.4147 76.1797 57.5653C77.4934 57.716 78.8831 57.6765 80.0538 57.0579C77.8152 60.2917 76.6493 64.1552 76.7228 68.0962C77.2232 67.7059 77.8039 67.4332 78.4225 67.298C79.0411 67.1628 79.6818 67.1687 80.2979 67.315C80.9139 67.4614 81.4896 67.7446 81.9829 68.1439C82.4762 68.5432 82.8745 69.0486 83.1488 69.6229C85.1541 66.8641 84.9157 63.0235 86.5046 60.0023C86.8314 59.3811 87.2318 58.8024 87.5845 58.1957C88.2819 56.9957 88.7877 55.6947 89.2906 54.3999C89.7351 53.2554 90.1828 51.9819 89.7565 50.8304C89.5795 50.3935 89.3218 49.9944 88.9969 49.6543C88.0801 48.6367 86.804 47.884 85.4397 47.8526C83.3455 47.8045 81.6154 49.3674 79.7783 50.3808C77.6144 51.5745 75.0899 52.049 72.6286 51.8735C70.1052 51.6936 67.6951 50.862 65.2909 50.1297C64.0882 49.7463 62.8657 49.4288 61.6289 49.1786C60.5979 48.9839 59.616 49.1996 58.6 49.465C57.4938 49.754 56.382 50.2606 55.7454 51.2636Z" fill="#2F2E41"/>
<path d="M77.5952 28.5235C77.5941 29.9155 77.0443 31.2502 76.0666 32.2346C75.0889 33.2189 73.7631 33.7724 72.3804 33.7735C72.0697 33.7741 71.7596 33.7459 71.4539 33.6895C70.478 33.5121 69.5725 33.0582 68.8438 32.381C68.115 31.7038 67.5932 30.8315 67.3395 29.8663C67.0858 28.9011 67.1108 27.883 67.4115 26.9316C67.7121 25.9802 68.2761 25.1348 69.0371 24.4946C69.7981 23.8545 70.7247 23.446 71.7081 23.3173C72.6916 23.1885 73.6911 23.3448 74.5894 23.7677C75.4878 24.1906 76.2477 24.8626 76.7801 25.705C77.3125 26.5473 77.5953 27.5251 77.5952 28.5235V28.5235Z" fill="#FFB9B9"/>
<path d="M69.3379 33.5113C69.3379 33.5113 70.2939 33.9488 70.6416 34.2988C70.9892 34.6488 72.0322 36.5739 73.7705 35.3488C75.5087 34.1238 75.6826 33.4238 76.204 33.4238C76.7255 33.4238 77.4208 34.4738 77.4208 34.4738L82.2011 48.9115C80.9127 50.3755 79.4195 51.643 77.7685 52.674C74.9873 54.424 71.6845 55.299 70.1201 54.599C68.5556 53.899 65.6006 53.374 65.0791 51.974C64.5576 50.574 63.6885 46.3739 63.6885 46.3739L66.1221 35.6988L69.3379 33.5113Z" fill="#F2F2F2"/>
<path d="M68.6667 48.113C69.0457 47.2889 69.1008 46.3561 69.1328 45.4485C69.1839 44.5497 69.1602 43.648 69.0621 42.7531C68.908 41.5825 68.5294 40.4547 68.2903 39.2987C68.0806 38.2848 67.9787 37.2513 67.9863 36.2156C67.9898 35.7431 68.0237 35.2456 68.2795 34.8494C68.458 34.5729 68.7371 34.3588 68.8486 34.0489C69.0672 33.441 68.527 32.8046 67.935 32.5543C67.2307 32.2566 66.4258 32.2766 65.6848 32.4634C64.9438 32.6502 64.2527 32.9939 63.5682 33.3351C63.0737 33.5816 62.5687 33.8357 62.1852 34.2352C61.6456 34.7973 61.4084 35.5802 61.2168 36.3378C61.0635 36.9441 60.9272 37.5764 61.0439 38.1909C61.2333 39.1889 62.0414 39.9394 62.4722 40.8583C62.9724 41.9252 62.9387 43.1685 62.7397 44.3312C62.5408 45.4939 62.1876 46.6308 62.0787 47.8055C61.9697 48.9802 62.1369 50.2429 62.868 51.1651C63.1659 51.5408 63.974 52.4314 64.5194 52.3306C64.9478 52.2515 65.569 51.302 65.9141 51.001C66.9111 50.1315 68.0941 49.3581 68.6667 48.113Z" fill="#2F2E41"/>
<path d="M77.7743 32.9389C77.7895 33.9149 77.3621 34.8427 76.8596 35.6775C76.357 36.5123 75.7666 37.3018 75.3963 38.2039C74.936 39.3332 74.8421 40.58 75.1278 41.7663C75.234 42.1704 75.362 42.5683 75.5113 42.9584L76.4637 45.5884C76.5918 46.0019 76.7778 46.395 77.016 46.7558C77.2313 47.0321 77.4839 47.2768 77.7666 47.4827C78.49 48.0708 79.3225 48.508 80.2155 48.7689C81.1116 49.0073 82.0921 48.9924 82.9387 48.6125C83.0305 45.0471 83.5995 41.5104 84.6302 38.0981C84.8207 37.4682 85.0288 36.805 84.8819 36.1634C84.7173 35.4447 84.1439 34.9051 83.5989 34.4124C81.9319 32.9053 80.0988 31.3223 77.8675 31.1192C76.5761 31.0016 77.7633 32.2333 77.7743 32.9389Z" fill="#2F2E41"/>
<path d="M66.3674 53.2852C66.4996 53.5457 66.5819 53.8295 66.7126 54.0908C66.9055 54.4412 67.1441 54.7641 67.4219 55.051C68.5842 56.3484 70.0049 57.6409 71.7385 57.7192C71.9108 57.7354 72.0844 57.7134 72.2473 57.6547C72.5506 57.5278 72.7298 57.2006 72.7888 56.8753C72.9117 56.1976 72.6146 55.5214 72.317 54.901C71.6722 53.5563 70.9466 52.1776 69.7393 51.3104C68.5491 50.4555 66.9544 50.2479 65.5665 50.6784C64.9376 50.8734 63.8948 51.214 64.7274 51.7917C65.3591 52.2299 66.0012 52.5635 66.3674 53.2852Z" fill="#FFB9B9"/>
<path d="M67.41 74.4643C66.8918 75.1733 66.9957 76.1867 66.5367 76.9359C66.1387 77.5853 65.3888 77.9258 64.8911 78.5013C64.7323 78.6925 64.5907 78.8975 64.4681 79.114C64.0064 79.8926 63.6311 80.8904 64.0858 81.6732C64.4516 82.3028 65.2205 82.5489 65.9256 82.7167C66.8169 82.9287 67.7429 83.0983 68.6444 82.9363C69.546 82.7743 70.4271 82.2186 70.7485 81.3552C70.8117 81.1382 70.8868 80.9248 70.9735 80.7161C71.4622 79.7476 72.9949 79.7371 73.4949 78.7746C73.8449 78.101 73.5232 77.2867 73.2016 76.5989L72.2194 74.4982C71.8935 73.8011 70.5722 74.202 69.8834 74.0349C68.985 73.817 68.0563 73.577 67.41 74.4643Z" fill="#2F2E41"/>
<path d="M75.0064 72.6584C74.5896 72.9525 74.3201 73.4139 74.1177 73.8841C73.6316 75.0131 73.4647 76.2508 73.3026 77.4704C73.2377 77.959 73.1731 78.4591 73.2745 78.9414C73.4839 79.9374 74.3805 80.6709 75.3455 80.9754C76.3105 81.28 77.3455 81.2331 78.3556 81.1832C78.68 81.1672 79.0173 81.1476 79.3018 80.9898C79.8094 80.708 80.0077 80.0455 79.9207 79.4686C79.8336 78.8916 79.5205 78.3782 79.214 77.8828C78.9076 77.3875 78.5942 76.8744 78.5064 76.2975C78.3587 75.3271 78.7754 73.9027 78.1833 73.0248C77.5898 72.145 75.7983 72.0996 75.0064 72.6584Z" fill="#2F2E41"/>
<path d="M77.4637 25.7865C77.3709 25.4726 77.1665 25.204 76.8896 25.0321C76.9039 24.6958 76.8629 24.3594 76.7684 24.0365C76.4526 23.0966 75.7044 23.1505 74.9985 22.7349C74.6923 22.5546 74.7112 22.3953 74.5518 22.0991C74.3429 21.7109 74.03 21.3895 73.6486 21.1714C73.1958 20.8809 72.7177 20.5818 72.182 20.545C71.0561 20.4677 70.1929 21.5339 69.1168 21.876C68.6425 22.0268 68.1328 22.0331 67.656 22.1756C67.1792 22.3182 66.7035 22.6586 66.6324 23.1543C66.5996 23.3831 66.6575 23.6178 66.6242 23.8465C66.5581 24.3012 66.1619 24.6196 65.8966 24.9936C65.3101 25.8205 65.3772 26.9887 65.8462 27.8885C65.9451 28.0747 66.0582 28.2528 66.1845 28.4213C66.2236 28.8466 66.3449 29.2601 66.5416 29.6385C67.0106 30.5382 67.8177 31.2106 68.6608 31.7692C68.5918 31.4708 68.5499 31.1667 68.5358 30.8606C68.5239 30.7586 68.537 30.6552 68.5741 30.5596C68.668 30.362 68.9161 30.3094 69.1053 30.2012C69.4971 29.977 69.6508 29.481 69.6621 29.0274C69.6734 28.5738 69.5779 28.1195 69.6251 27.6683C69.627 27.5646 69.6504 27.4624 69.6939 27.3683C69.7374 27.2742 69.8 27.1903 69.8777 27.1221C70.0223 27.039 70.1875 26.9994 70.3537 27.0078C71.1565 26.9748 71.9953 26.96 72.7034 26.5778C72.945 26.4474 73.1695 26.275 73.4347 26.2053C74.0365 26.0474 74.6516 26.472 74.9984 26.9917C75.3452 27.5114 75.5181 28.1299 75.8381 28.6667C76.1581 29.2036 76.7109 29.6824 77.3296 29.6188C77.3644 29.6188 77.3989 29.6115 77.4307 29.5973C77.4625 29.583 77.491 29.5621 77.5143 29.536C77.541 29.4878 77.5528 29.4326 77.5483 29.3776L77.5829 26.9967C77.6116 26.5894 77.5713 26.1802 77.4637 25.7865V25.7865Z" fill="#2F2E41"/>
<path d="M60.9603 38.2412C60.4627 38.9801 59.889 39.6907 59.6155 40.5399C59.4548 41.0391 59.4049 41.5668 59.2885 42.0782C58.9009 43.7819 57.781 45.2951 57.6684 47.0392C57.629 47.4267 57.6855 47.8181 57.833 48.1782C58.1542 48.8817 58.9231 49.2525 59.6564 49.4857C60.3898 49.7189 61.1774 49.887 61.7627 50.3892C62.0574 50.6736 62.3247 50.9855 62.5609 51.3207C63.5159 52.5166 64.8007 53.4016 66.2538 53.8645C66.139 53.0682 66.0851 52.1084 66.7174 51.6162C67.0597 51.3498 67.517 51.3023 67.948 51.2648L69.9847 51.0876C68.6266 49.7614 67.1296 48.5873 65.52 47.5861C64.9568 47.2358 64.3439 46.8663 64.0867 46.2522C63.9259 45.8683 63.9282 45.4383 63.9243 45.0217C63.9103 43.4967 63.7821 41.975 63.5407 40.4694C63.373 39.4241 63.151 38.388 62.8971 37.3604C62.8258 37.0719 62.4045 35.778 61.8859 36.0807C61.7637 36.1521 61.6494 36.9729 61.5781 37.1432C61.4083 37.5287 61.2014 37.8964 60.9603 38.2412V38.2412Z" fill="#2F2E41"/>
<path opacity="0.1" d="M63.779 40.4844C63.802 41.7206 63.5412 42.9454 63.0168 44.0635C62.8804 44.3106 62.7799 44.5761 62.7184 44.852C62.6271 45.4403 62.9597 46.0099 63.3398 46.4661C64.0897 47.3634 65.0623 48.0446 66.1587 48.4404" fill="black"/>
<path d="M76.7553 34.2124L76.878 34.232C76.7706 34.2149 76.6744 34.1555 76.6105 34.067C76.5466 33.9785 76.5203 33.8681 76.5373 33.76L77.8056 25.6926C77.8226 25.5845 77.8816 25.4877 77.9695 25.4234C78.0574 25.359 78.1671 25.3325 78.2744 25.3496L78.1518 25.3301C78.2371 25.3437 78.319 25.3741 78.3927 25.4195C78.4664 25.465 78.5305 25.5246 78.5813 25.595C78.6321 25.6654 78.6686 25.7452 78.6888 25.8298C78.709 25.9144 78.7124 26.0022 78.6989 26.0881L77.5082 33.6616C77.4947 33.7475 77.4645 33.8299 77.4194 33.9041C77.3742 33.9783 77.315 34.0428 77.2451 34.094C77.1752 34.1451 77.0959 34.1819 77.0119 34.2023C76.9278 34.2226 76.8406 34.226 76.7553 34.2124V34.2124Z" fill="#2F2E41"/>
<path d="M78.1093 25.3233L78.2953 25.3529L76.8988 34.2352L76.7128 34.2056C76.6814 34.2006 76.6513 34.1894 76.6242 34.1727C76.5971 34.1559 76.5735 34.134 76.5548 34.1081C76.5361 34.0822 76.5226 34.0528 76.5152 34.0217C76.5078 33.9906 76.5065 33.9583 76.5115 33.9266L77.8323 25.526C77.8372 25.4943 77.8483 25.464 77.8649 25.4367C77.8816 25.4094 77.9034 25.3857 77.9291 25.3669C77.9548 25.348 77.984 25.3345 78.0149 25.327C78.0458 25.3195 78.0779 25.3183 78.1093 25.3233V25.3233Z" fill="#FA4659"/>
<path d="M78.133 26.5016L78.0972 26.4959C78.0845 26.4938 78.0726 26.5026 78.0706 26.5153L77.964 27.1934C77.962 27.2062 77.9706 27.2182 77.9833 27.2203L78.0191 27.226C78.0318 27.228 78.0437 27.2193 78.0457 27.2065L78.1523 26.5284C78.1544 26.5156 78.1457 26.5036 78.133 26.5016Z" fill="#464353"/>
<path d="M81.2874 32.6617C81.4792 32.1754 81.674 31.6726 81.6609 31.1495C81.6279 30.6755 81.4851 30.2158 81.2441 29.8073C80.9511 29.259 80.5853 28.7534 80.1568 28.3045C79.6466 27.7702 78.9097 27.2931 78.2141 27.5356C77.6616 27.7282 77.3468 28.3071 77.1424 28.8586C77.0207 29.1278 76.9726 29.4249 77.003 29.7192C77.0707 30.0988 77.362 30.3902 77.573 30.7122C77.9039 31.217 78.0456 31.8201 78.1815 32.4092L78.5224 33.8867L79.1079 36.4245C79.0925 36.3576 80.1953 35.3061 80.3262 35.0822C80.7479 34.3611 80.9804 33.4402 81.2874 32.6617Z" fill="#FFB9B9"/>
<path d="M84.4184 35.4485L85.2502 37.1899C85.6509 37.906 85.8332 38.725 85.7745 39.5447L85.8239 44.7686C85.8305 45.4667 85.8358 46.1753 85.6533 46.8487C85.6014 47.0736 85.5038 47.2851 85.3664 47.4699C85.2254 47.6292 85.0592 47.764 84.8745 47.8688C83.3004 48.859 81.2592 49.4218 79.5961 48.592C79.2152 48.3876 78.853 48.1496 78.5139 47.8808C77.8511 47.3867 77.1784 46.8828 76.6826 46.2193C76.1636 45.5248 78.55 42.8827 78.2008 42.0879C77.5754 40.6641 77.9216 37.2873 76.9508 36.0754C76.8096 35.8991 78.0936 36.0578 78.0885 35.8314C78.0782 35.3735 79.169 34.7115 79.5897 34.5373C80.3085 34.2397 81.1361 33.6324 81.2564 32.8594C82.7849 34.8773 78.4929 40.9747 80.9049 41.7121C80.9427 41.7364 80.9864 41.75 81.0312 41.7514C81.0761 41.7528 81.1205 41.7419 81.1597 41.72C81.199 41.698 81.2316 41.6658 81.2541 41.6267C81.2766 41.5876 81.2882 41.5431 81.2877 41.498C81.4246 40.9212 81.473 40.3274 81.5732 39.743C81.7568 38.679 82.1106 37.6519 82.6206 36.7018C82.9063 36.1691 83.8313 34.2192 84.4184 35.4485Z" fill="#2F2E41"/>
<path opacity="0.1" d="M81.8399 39.4414C81.7174 39.7732 81.8287 40.1401 81.9231 40.4811C82.1968 41.4701 82.3246 42.4942 82.3023 43.5207C82.3063 43.5386 82.3058 43.5573 82.3008 43.575C82.2958 43.5927 82.2865 43.6088 82.2737 43.622C82.261 43.6352 82.2452 43.6449 82.2277 43.6504C82.2103 43.6558 82.1917 43.6568 82.1738 43.6533C81.7726 43.678 81.3132 43.6806 81.041 43.3829" fill="black"/>
<path d="M17.3681 77.8834H5.84037L3.83514 71.0013C3.71294 70.5819 3.6895 70.1396 3.76666 69.7095C3.84383 69.2794 4.01949 68.8733 4.27971 68.5234C4.53992 68.1736 4.87753 67.8896 5.26576 67.6939C5.65399 67.4983 6.08216 67.3965 6.51629 67.3965H16.6008C17.032 67.3965 17.4574 67.497 17.8436 67.6901C18.2298 67.8832 18.5664 68.1637 18.827 68.5096C19.0876 68.8555 19.2651 69.2574 19.3457 69.6839C19.4263 70.1104 19.4077 70.5499 19.2914 70.9679L17.3681 77.8834Z" fill="#3F3D56"/>
<path d="M23.2011 26.1765C22.844 26.1765 22.4949 26.0699 22.1979 25.8702C21.901 25.6704 21.6696 25.3865 21.5329 25.0544C21.3963 24.7222 21.3605 24.3567 21.4302 24.0041C21.4999 23.6515 21.6718 23.3276 21.9243 23.0734C22.1769 22.8192 22.4986 22.6461 22.8488 22.5759C23.1991 22.5058 23.5621 22.5418 23.892 22.6794C24.2219 22.817 24.5039 23.0499 24.7023 23.3489C24.9007 23.6478 25.0066 23.9992 25.0066 24.3588C25.0061 24.8407 24.8157 25.3027 24.4772 25.6435C24.1387 25.9843 23.6798 26.176 23.2011 26.1765V26.1765ZM23.2011 22.8207C22.8989 22.8207 22.6035 22.9109 22.3523 23.0799C22.101 23.2489 21.9052 23.4891 21.7896 23.7702C21.6739 24.0512 21.6437 24.3605 21.7026 24.6588C21.7616 24.9572 21.9071 25.2312 22.1208 25.4463C22.3344 25.6615 22.6066 25.8079 22.903 25.8673C23.1994 25.9266 23.5065 25.8962 23.7857 25.7798C24.0649 25.6634 24.3035 25.4662 24.4714 25.2133C24.6392 24.9603 24.7288 24.663 24.7288 24.3588C24.7284 23.951 24.5673 23.56 24.2808 23.2717C23.9944 22.9833 23.6061 22.8211 23.2011 22.8207Z" fill="#3F3D56"/>
<path d="M89.035 17.9265C88.6779 17.9265 88.3289 17.8199 88.0319 17.6202C87.735 17.4204 87.5036 17.1365 87.3669 16.8044C87.2303 16.4722 87.1945 16.1067 87.2642 15.7541C87.3339 15.4015 87.5058 15.0776 87.7583 14.8234C88.0108 14.5692 88.3326 14.3961 88.6828 14.3259C89.033 14.2558 89.3961 14.2918 89.726 14.4294C90.0559 14.567 90.3379 14.7999 90.5363 15.0989C90.7347 15.3978 90.8406 15.7492 90.8406 16.1088C90.8401 16.5907 90.6497 17.0527 90.3112 17.3935C89.9727 17.7343 89.5137 17.926 89.035 17.9265ZM89.035 14.5707C88.7329 14.5707 88.4375 14.6609 88.1863 14.8299C87.935 14.9989 87.7392 15.2391 87.6236 15.5202C87.5079 15.8012 87.4777 16.1105 87.5366 16.4088C87.5956 16.7072 87.7411 16.9812 87.9547 17.1963C88.1684 17.4115 88.4406 17.5579 88.737 17.6173C89.0334 17.6766 89.3405 17.6462 89.6197 17.5298C89.8989 17.4134 90.1375 17.2162 90.3053 16.9633C90.4732 16.7103 90.5628 16.413 90.5628 16.1088C90.5624 15.701 90.4013 15.31 90.1148 15.0217C89.8284 14.7333 89.4401 14.5711 89.035 14.5707V14.5707Z" fill="#3F3D56"/>
<path d="M59.4509 4.75462H55.8398V1.11914H59.4509V4.75462ZM56.1176 4.47497H59.1732V1.39879H56.1176V4.47497Z" fill="#3F3D56"/>
</g>
<defs>
<clipPath id="clip0">
<rect width="135" height="83" fill="white"/>
</clipPath>
</defs>
</svg>
