<svg width="120" height="97" viewBox="0 0 120 97" fill="none" xmlns="http://www.w3.org/2000/svg">
<g clip-path="url(#clip0)">
<path d="M78.9598 54.308C76.4494 55.8279 71.9768 57.7322 67.4063 55.7751L64.4518 54.51L70.3724 47.8102C65.6478 42.5515 63.034 35.7042 63.0412 28.6049C63.0484 21.5055 65.6761 14.6636 70.4113 9.41473C75.1465 4.16582 81.6494 0.886586 88.6508 0.217107C95.6521 -0.452372 102.649 1.53596 108.277 5.79399C113.904 10.052 117.757 16.2741 119.085 23.2458C120.412 30.2176 119.119 37.4385 115.456 43.4991C111.794 49.5598 106.026 54.0252 99.2774 56.0238C92.5291 58.0224 85.2853 57.4107 78.9598 54.308V54.308ZM67.6159 28.5888C67.6028 31.8615 68.2608 35.1015 69.5483 38.105C70.8358 41.1085 72.7251 43.8105 75.0973 46.0412L76.7304 47.5904L73.0048 51.8063C74.9454 51.4088 76.6356 50.3491 77.4927 49.7335L78.6686 48.8888L79.9334 49.5904C83.4295 51.5227 87.3513 52.5353 91.3371 52.5349C104.417 52.5349 115.058 41.7928 115.058 28.5889C115.058 15.385 104.417 4.64277 91.3371 4.64277C78.2572 4.64277 67.6159 15.385 67.6159 28.5889V28.5888Z" fill="#3F3D56"/>
<path d="M65.3162 28.588C65.3162 14.0808 76.9662 2.32031 91.3372 2.32031C105.708 2.32031 117.358 14.0808 117.358 28.588C117.358 43.0953 105.708 54.8558 91.3372 54.8558C86.9634 54.8622 82.6593 53.7506 78.8261 51.6245C77.0273 52.9164 72.6393 55.4933 68.3044 53.6371L73.5225 47.7323C70.9286 45.2789 68.8617 42.3136 67.45 39.0204C66.0384 35.7272 65.3121 32.1763 65.3162 28.588Z" fill="#FA4659"/>
<path opacity="0.1" d="M112.925 28.6466C112.925 14.9219 102.497 3.65769 89.204 2.48219C89.9619 2.41517 90.7286 2.37891 91.5038 2.37891C105.875 2.37891 117.525 14.1394 117.525 28.6466C117.525 43.1539 105.875 54.9143 91.5038 54.9143C90.7298 54.9143 89.9644 54.8776 89.2076 54.8107C102.499 53.6335 112.925 42.3701 112.925 28.6466Z" fill="black"/>
<path d="M31.3746 90.8002C24.8728 90.8033 18.5675 88.5503 13.5153 84.4188C8.46323 80.2873 4.97134 74.5284 3.62488 68.1072C2.27842 61.686 3.15922 54.9927 6.11965 49.1491C9.08009 43.3055 13.9403 38.6666 19.8857 36.0099C25.831 33.3532 32.5004 32.8401 38.7759 34.5567C45.0514 36.2732 50.5518 40.1151 54.3553 45.4384C58.1587 50.7617 60.034 57.2429 59.667 63.796C59.3 70.349 56.7129 76.5755 52.3393 81.4321L58.2599 88.132L55.3054 89.3971C50.7349 91.3542 46.2622 89.4498 43.7519 87.93C39.8938 89.818 35.6621 90.7993 31.3746 90.8002ZM31.3746 38.2647C18.2947 38.2647 7.65345 49.0069 7.65345 62.2108C7.65345 75.4147 18.2947 86.1569 31.3746 86.1569C35.3604 86.1573 39.2822 85.1447 42.7782 83.2123L44.043 82.5108L45.219 83.3555C46.076 83.971 47.7662 85.0308 49.7069 85.4283L45.9812 81.2124L47.6144 79.6632C49.9865 77.4325 51.8758 74.7304 53.1633 71.7269C54.4509 68.7234 55.1088 65.4834 55.0958 62.2108C55.0957 49.0069 44.4545 38.2647 31.3746 38.2647Z" fill="#3F3D56"/>
<path d="M57.3954 62.2111C57.3954 47.7038 45.7454 35.9434 31.3744 35.9434C17.0034 35.9434 5.35339 47.7038 5.35339 62.2111C5.35339 76.7184 17.0034 88.4788 31.3744 88.4788C35.7481 88.4853 40.0522 87.3736 43.8855 85.2475C45.6842 86.5395 50.0722 89.1163 54.4071 87.2601L49.1891 81.3554C51.783 78.9019 53.8499 75.9367 55.2615 72.6435C56.6732 69.3503 57.3995 65.7994 57.3954 62.2111Z" fill="#FA4659"/>
<path opacity="0.1" d="M9.95306 62.0783C9.95306 48.3535 20.3807 37.0893 33.6742 35.9138C32.9162 35.8468 32.1496 35.8105 31.3744 35.8105C17.0034 35.8105 5.35339 47.571 5.35339 62.0783C5.35339 76.5856 17.0034 88.346 31.3744 88.346C32.1484 88.346 32.9137 88.3093 33.6706 88.2424C20.3788 87.0652 9.95306 75.8018 9.95306 62.0783Z" fill="black"/>
<path d="M97.4455 20.2436C95.743 17.3397 92.3747 17.2043 92.3747 17.2043C92.3747 17.2043 89.0925 16.7806 86.987 21.2034C85.0245 25.3259 82.316 29.3062 86.551 30.2712L87.3159 27.8677L87.7897 30.4501C88.3927 30.4939 88.9975 30.5043 89.6017 30.4814C94.137 30.3336 98.4561 30.5246 98.3171 28.8817C98.1322 26.6978 99.0837 23.0379 97.4455 20.2436Z" fill="#2F2E41"/>
<path d="M86.3094 45.6742C86.2594 45.9936 86.1868 46.309 86.0922 46.618C85.9857 46.9204 85.8212 47.2001 85.7238 47.5056C85.4133 48.4795 85.8437 49.5654 86.5312 50.3171C87.1274 50.9664 87.897 51.4277 88.7471 51.6454C89.3729 51.7806 90.0112 51.8483 90.6513 51.8474C92.4211 51.908 94.2365 51.9622 95.9136 51.388C96.4434 51.2021 96.9552 50.9674 97.4424 50.6869C97.5962 50.6129 97.7318 50.5051 97.8391 50.3715C97.9515 50.1759 98.0014 49.95 97.9823 49.7247C97.9785 48.9673 97.8264 48.2137 97.8625 47.4572C97.8825 47.0382 97.9602 46.6194 97.922 46.2017C97.869 45.7272 97.6721 45.2809 97.3583 44.9238C97.0444 44.5666 96.6288 44.3161 96.1685 44.2066C95.6927 44.1034 95.1993 44.1596 94.7149 44.2066C93.4577 44.3286 92.1951 44.3856 90.9321 44.3774C89.6416 44.3691 88.3591 44.1702 87.0751 44.1494C86.6953 44.1433 86.703 44.2615 86.5821 44.6325C86.4708 44.9739 86.3797 45.3218 86.3094 45.6742Z" fill="#2F2E41"/>
<path d="M89.9716 26.9732C89.9096 27.301 89.8426 27.6408 89.6475 27.9102C89.423 28.2201 89.0569 28.3972 88.8154 28.6938C88.4518 29.1403 88.431 29.7685 88.4295 30.3464C88.4281 30.8788 88.4388 31.4467 88.7329 31.8886C88.9422 32.1631 89.202 32.3944 89.4981 32.5696C90.601 33.3199 91.7929 34.0838 93.1227 34.1085C93.6737 34.1188 94.2645 33.9751 94.627 33.5561C94.7835 33.3593 94.9066 33.1377 94.9912 32.9002C95.3313 32.0541 95.5374 31.1592 95.602 30.2484C95.651 29.8203 95.6114 29.3865 95.4858 28.9746C95.3242 28.5199 94.9976 28.1458 94.7817 27.7147C94.5265 27.2021 94.4331 26.6228 94.5142 26.055C94.525 26.015 94.5217 25.9725 94.5049 25.9347C94.4871 25.9145 94.465 25.8986 94.4401 25.8885C94.4153 25.8783 94.3885 25.8741 94.3618 25.8762L91.725 25.6846C91.4795 25.6722 91.2349 25.644 90.9929 25.6C90.8508 25.5708 90.4754 25.367 90.3398 25.4212C90.0889 25.5215 90.0231 26.7014 89.9716 26.9732Z" fill="#A0616A"/>
<path opacity="0.1" d="M89.9716 27.0572C89.9096 27.385 89.8426 27.7248 89.6475 27.9942C89.423 28.3041 89.0569 28.4812 88.8154 28.7778C88.4518 29.2242 88.431 29.8525 88.4295 30.4304C88.4281 30.9628 88.4388 31.5307 88.7329 31.9726C88.9422 32.2471 89.202 32.4783 89.4981 32.6536C90.601 33.4039 91.7929 34.1677 93.1227 34.1925C93.6737 34.2027 94.2645 34.0591 94.627 33.6401C94.7835 33.4433 94.9066 33.2217 94.9912 32.9842C95.3313 32.138 95.5374 31.2432 95.602 30.3324C95.651 29.9043 95.6114 29.4705 95.4858 29.0586C95.3242 28.6039 94.9976 28.2298 94.7817 27.7987C94.5265 27.2861 94.4331 26.7068 94.5143 26.1389C94.525 26.099 94.5217 26.0565 94.5049 26.0187C94.4871 25.9984 94.465 25.9826 94.4401 25.9725C94.4153 25.9623 94.3885 25.9581 94.3618 25.9602L91.725 25.7685C91.4795 25.7562 91.2349 25.728 90.9929 25.684C90.8508 25.6548 90.4754 25.451 90.3398 25.5052C90.0889 25.6055 90.0231 26.7854 89.9716 27.0572Z" fill="black"/>
<path d="M92.4932 27.3318C94.6297 27.3318 96.3617 25.5834 96.3617 23.4267C96.3617 21.2699 94.6297 19.5215 92.4932 19.5215C90.3567 19.5215 88.6247 21.2699 88.6247 23.4267C88.6247 25.5834 90.3567 27.3318 92.4932 27.3318Z" fill="#A0616A"/>
<path d="M90.5143 32.1714C90.7054 32.3948 90.9357 32.5807 91.1938 32.7195C91.4627 32.8317 91.7516 32.8873 92.0426 32.8827C92.74 32.9025 93.4959 32.7735 93.981 32.2674C94.6063 31.615 94.5857 30.5628 95.0759 29.8017C95.1154 29.7327 95.1693 29.6732 95.2338 29.6274C95.316 29.5822 95.4089 29.5606 95.5025 29.565C96.1215 29.5592 96.6607 29.9645 97.1474 30.3507C97.3764 30.5098 97.573 30.712 97.7264 30.9461C97.8226 31.1356 97.8885 31.3394 97.9216 31.5497C98.1631 32.7398 98.2413 33.9566 98.319 35.1689C98.3618 35.8385 98.4047 36.5087 98.4015 37.1797C98.391 39.3903 97.8821 41.5639 97.3759 43.7147C97.3107 43.9918 97.2214 44.3016 96.9718 44.4343C96.8605 44.4849 96.741 44.5143 96.6191 44.5212C95.1694 44.6931 93.7167 44.8652 92.2572 44.8879C91.6876 44.8967 91.1183 44.8828 90.5492 44.8461C90.4512 44.8448 90.3541 44.8277 90.2615 44.7955C90.1358 44.7346 90.0277 44.6419 89.9478 44.5266C89.1583 43.5223 89.1117 42.1339 89.1168 40.8518C89.1291 37.7173 89.24 34.5853 89.4496 31.4558C89.4669 31.1975 89.4707 30.8838 89.2863 30.6805C89.6453 31.2176 90.0567 31.7171 90.5143 32.1714Z" fill="white"/>
<path d="M89.6947 27.6635C89.564 27.9022 88.6008 28.4951 88.4148 28.693C87.3757 29.7986 85.4794 29.7571 84.5291 30.9413C84.1947 31.3579 84.021 31.8814 83.8933 32.4018C83.7126 33.1379 83.6161 33.9407 83.9188 34.6347C84.2101 35.3025 84.8232 35.7643 85.2394 36.3608C85.6965 37.0158 85.902 37.8111 86.0989 38.5873C86.2443 39.1603 86.3909 39.7476 86.3343 40.3364C86.2699 41.0059 85.949 41.6188 85.7595 42.2637C85.5701 42.9085 85.5374 43.6765 85.9755 44.1833C86.2973 44.5556 86.8021 44.7032 87.2847 44.7862C87.9027 44.88 88.526 44.9347 89.1508 44.9502C89.7024 44.9748 90.3104 44.9796 90.7344 44.6226C91.069 44.3409 91.2145 43.8839 91.2333 43.4445C91.2521 43.0051 91.1616 42.5696 91.1048 42.1335C91.046 41.6815 91.0234 41.2255 91.0045 40.77C90.9197 38.7261 90.9081 36.6809 90.9698 34.6344C91.0009 34.2091 90.9802 33.7815 90.9083 33.3613C90.79 32.8138 90.4969 32.3246 90.2523 31.8216C89.7635 30.8742 89.5422 29.8094 89.6124 28.7436C89.6864 27.6483 90.1596 26.8139 89.6947 27.6635Z" fill="white"/>
<path d="M95.127 27.7467C95.326 27.9531 96.0023 28.0212 96.2554 28.1542C96.4936 28.2652 96.742 28.3521 96.9972 28.4135C97.9206 28.6824 98.799 29.0893 99.6031 29.6208C99.7701 29.7195 99.9178 29.8483 100.039 30.0008C100.166 30.2101 100.248 30.4443 100.28 30.6879C100.404 31.3078 100.528 31.9351 100.501 32.5669C100.471 33.2374 100.271 33.8869 100.072 34.5275L99.3307 36.9212C98.7771 38.708 98.2199 40.5123 98.0641 42.3778C97.978 43.4117 98.0163 44.4524 98.1783 45.477C98.1935 45.5268 98.198 45.5794 98.1916 45.6311C98.1851 45.6829 98.1678 45.7326 98.1409 45.7771C98.092 45.8259 98.0277 45.8558 97.9592 45.8615C97.6012 45.918 97.2548 45.7337 96.9305 45.5707C95.9391 45.0727 94.8812 44.7232 93.79 44.5334C94.2164 43.9113 94.5454 43.2267 94.7654 42.5035C94.8904 42.0444 94.9888 41.5782 95.0601 41.1075L95.4051 39.093C95.5455 38.3567 95.6443 37.613 95.7011 36.8653C95.7272 36.5848 95.711 36.3018 95.6531 36.0262C95.5736 35.7638 95.468 35.5103 95.338 35.2694C94.7693 34.0753 94.5025 32.7127 94.7263 31.4073C94.8242 30.836 95.0145 30.2639 94.9351 29.6897C94.8588 29.1376 94.9381 28.7085 94.7978 28.1621C94.2216 25.9187 94.7526 27.3582 95.127 27.7467Z" fill="white"/>
<path d="M84.5193 32.83C84.2601 33.373 83.8267 33.8356 83.6792 34.4198C83.6218 34.6928 83.5972 34.9718 83.6059 35.2507C83.5803 35.6711 83.6216 36.0929 83.728 36.5001C83.8104 36.7577 83.9443 36.9953 84.0408 37.2478C84.1753 37.6006 84.2352 37.9779 84.2167 38.3555C84.1907 38.8786 84.0146 39.3863 84.0009 39.9099C83.9793 40.7333 84.3565 41.5073 84.7246 42.2423C84.8172 42.0107 84.9589 41.8023 85.1397 41.6318C85.3204 41.4612 85.5359 41.3325 85.7711 41.2548C86.0062 41.1771 86.2554 41.1522 86.5011 41.1818C86.7468 41.2114 86.9831 41.2949 87.1935 41.4264C87.2778 41.3219 87.3178 41.188 87.3048 41.0538C87.332 40.0986 87.3582 39.1434 87.3835 38.1881C87.4233 36.7107 87.4613 35.2136 87.1246 33.7753C86.9726 33.1258 86.7361 32.479 86.3025 31.9753C86.0742 31.71 85.2992 31.0114 84.9244 31.3085C84.7559 31.4422 84.7953 31.8059 84.7686 31.9901C84.7283 32.2812 84.6442 32.5644 84.5193 32.83Z" fill="white"/>
<path d="M100.576 31.2646C100.681 31.6562 100.725 32.0615 100.709 32.4666C100.714 33.2924 100.703 34.118 100.676 34.9436C100.68 35.367 100.627 35.789 100.517 36.1976C100.433 36.4634 100.304 36.7126 100.217 36.9774C99.9584 37.7712 100.1 38.6321 100.122 39.4675C100.138 39.7379 100.115 40.0092 100.054 40.273C99.9175 40.7909 99.5501 41.2094 99.2936 41.6787C99.05 42.1244 98.903 42.624 98.6121 43.0397C98.3212 43.4555 97.8176 43.785 97.3294 43.6573C96.9596 43.5606 96.6967 43.2301 96.515 42.8909C96.1183 42.145 95.9826 41.2858 96.1299 40.4524C96.3124 39.4384 96.9024 38.5389 97.1152 37.5309C97.4074 36.1468 96.9633 34.7185 96.9765 33.3033C96.9705 33.0815 97.0003 32.8602 97.0648 32.648C97.1764 32.3248 97.4161 32.0666 97.6376 31.8074C97.9143 31.4834 98.1714 31.1428 98.4074 30.7875C98.5659 30.5489 98.7812 29.935 99.0623 29.8839C99.6898 29.77 100.421 30.7752 100.576 31.2646Z" fill="white"/>
<path d="M81.2631 45.0596C80.9161 44.9716 80.5585 44.9332 80.2009 44.9456C79.8252 44.9666 79.4582 45.0681 79.1243 45.2433C78.7905 45.4185 78.4974 45.6635 78.2646 45.9619C78.0317 46.2604 77.8645 46.6054 77.774 46.9741C77.6835 47.3428 77.6718 47.7268 77.7397 48.1004C77.8264 48.5051 77.968 48.8958 78.1606 49.2614C78.4423 49.8385 78.7801 50.4142 79.3016 50.784C79.6158 50.9874 79.9541 51.1499 80.3086 51.2679L83.0551 52.3124C83.4591 52.466 83.8632 52.6197 84.2713 52.7622C86.3213 53.4775 88.4585 53.9064 90.6236 54.037C91.2824 54.0993 91.9467 54.0654 92.596 53.9361C92.7529 53.9155 92.8967 53.837 92.9999 53.7158C93.0522 53.6238 93.0831 53.5208 93.0901 53.4149L93.2591 52.2205C93.297 52.0542 93.292 51.8809 93.2448 51.7171C93.1673 51.5163 92.9733 51.39 92.7883 51.2828C90.9826 50.2359 88.8743 49.6583 87.3545 48.2214C86.9967 47.8832 86.6973 47.347 86.2625 47.1172C85.7696 46.8567 85.189 46.708 84.6795 46.4679C83.5656 45.943 82.4704 45.3398 81.2631 45.0596Z" fill="#2F2E41"/>
<path opacity="0.1" d="M84.0051 46.671C84.9759 46.978 89.0745 49.1055 89.777 49.8482C89.6829 49.8825 86.4879 48.075 86.3921 48.046C85.5133 47.8023 84.6527 47.4962 83.8168 47.1298C83.6503 47.0521 82.7352 46.6867 82.7766 46.4747C82.8234 46.2354 83.8328 46.6164 84.0051 46.671Z" fill="black"/>
<path d="M96.1163 54.6562C96.1714 54.6603 96.2261 54.644 96.2702 54.6105C96.2896 54.5854 96.3038 54.5567 96.312 54.526C96.3203 54.4953 96.3224 54.4632 96.3183 54.4317L96.3138 52.8046C95.8503 52.5816 95.3318 52.5102 94.8229 52.4415L92.4484 52.1211C92.503 52.1285 92.0772 53.1535 92.1424 53.2903C92.2575 53.5315 93.137 53.7453 93.3852 53.8592C94.248 54.2551 95.1446 54.6903 96.1163 54.6562Z" fill="#A0616A"/>
<path d="M88.6663 52.7995C88.218 52.8716 87.7176 52.9353 87.4273 53.2876C87.0591 53.7344 87.2158 54.4004 87.3915 54.9539C87.4022 55.0253 87.427 55.0939 87.4644 55.1554C87.5018 55.217 87.5511 55.2704 87.6093 55.3125C87.6675 55.3545 87.7334 55.3843 87.8033 55.4001C87.8731 55.416 87.9454 55.4175 88.0158 55.4047C88.4246 55.4308 88.8598 55.4513 89.217 55.2488C89.3788 55.1409 89.5346 55.024 89.6836 54.8987C89.9471 54.7217 90.2366 54.5881 90.5416 54.5027C91.1021 54.3247 91.6791 54.2047 92.2637 54.1445C92.494 54.1339 92.7221 54.0933 92.9421 54.0237C93.052 53.988 93.1523 53.9271 93.2352 53.8459C93.318 53.7647 93.3812 53.6653 93.4199 53.5555C93.5026 53.2598 93.3324 52.9583 93.1691 52.699C92.981 52.3593 92.7367 52.0546 92.447 51.798C92.0045 51.451 91.7857 51.7174 91.34 51.9394C90.4965 52.3596 89.5952 52.6496 88.6663 52.7995Z" fill="#A0616A"/>
<path d="M87.4947 53.2081L84.648 52.3587C84.3065 52.2387 83.9498 52.1689 83.5886 52.1515C83.4078 52.144 83.2275 52.1755 83.0597 52.244C82.8919 52.3125 82.7406 52.4164 82.6158 52.5486C82.395 52.8102 82.3318 53.1676 82.2768 53.5067L82.1591 54.232C82.0806 54.5976 82.0584 54.9733 82.0932 55.3458C82.1121 55.5321 82.1729 55.7116 82.2709 55.8706C82.3689 56.0296 82.5015 56.1639 82.6587 56.2634C83.0526 56.4804 83.5354 56.3744 83.9751 56.2837C84.8631 56.1004 85.7664 56.0026 86.6727 55.9916C87.0135 55.9875 87.3709 55.9918 87.6719 55.8307C87.8467 55.7262 87.9935 55.5801 88.0996 55.4052C88.2057 55.2303 88.2679 55.0319 88.2808 54.8272C88.3368 54.2076 88.1322 53.3983 87.4947 53.2081Z" fill="#2F2E41"/>
<path d="M97.2351 52.4669C97.6041 52.4016 97.9298 52.1899 98.2834 52.0649C98.7811 51.889 99.3205 51.889 99.8478 51.8909C100.042 51.873 100.237 51.9124 100.409 52.0043C100.641 52.1604 100.701 52.4728 100.74 52.7517L100.978 54.4342C101.042 54.7481 101.049 55.0711 100.998 55.3874C100.928 55.6992 100.717 55.9998 100.411 56.0802C100.039 56.1779 99.6737 55.9379 99.3222 55.7802C98.4438 55.3861 97.4226 55.4868 96.5066 55.1922C96.4191 55.1745 96.3362 55.1382 96.2636 55.0858C96.191 55.0334 96.1302 54.9659 96.0853 54.888C96.0539 54.7946 96.0428 54.6955 96.0525 54.5973C96.0682 54.0565 95.9552 53.318 96.1165 52.8011C96.2615 52.3363 96.8231 52.4669 97.2351 52.4669Z" fill="#2F2E41"/>
<path d="M103.259 44.3823C103.828 44.2383 104.418 44.1976 105.001 44.2622C105.466 44.314 105.946 44.4447 106.286 44.77C106.7 45.1659 106.832 45.7782 106.844 46.3536C106.862 47.4995 106.485 48.6163 105.778 49.5132C105.606 49.74 105.4 49.9395 105.169 50.105C104.92 50.2624 104.654 50.3917 104.377 50.4905L98.2263 52.9395C96.6082 53.5838 94.9843 54.2299 93.2966 54.6547C93.2504 54.6772 93.2003 54.6901 93.1491 54.6927C93.0979 54.6954 93.0467 54.6876 92.9986 54.67C92.9504 54.6524 92.9062 54.6252 92.8686 54.5901C92.831 54.5549 92.8007 54.5126 92.7796 54.4655C92.2407 53.6884 91.7886 52.8535 91.4315 51.9761C91.4146 51.9553 91.4029 51.9306 91.3974 51.9042C91.392 51.8779 91.3929 51.8505 91.4001 51.8246C91.4073 51.7986 91.4206 51.7748 91.4388 51.7552C91.4571 51.7355 91.4798 51.7206 91.5049 51.7116L95.8554 49.1883C96.1744 49.0203 96.4718 48.8135 96.7409 48.5724C96.9289 48.3885 97.0828 48.1721 97.1955 47.9335C97.2856 47.7434 97.2941 47.2947 97.4092 47.1541C97.522 47.0165 97.9078 47.0055 98.086 46.9514C98.3373 46.8737 98.5834 46.7798 98.8227 46.6703C99.7959 46.2308 100.662 45.5922 101.595 45.0776C102.119 44.7756 102.678 44.542 103.259 44.3823Z" fill="#2F2E41"/>
<path opacity="0.1" d="M100.793 46.268C100.046 46.8347 99.0779 47.3556 98.3371 47.9372C98.0843 48.1357 93.8698 50.5277 93.8102 50.8453C94.5013 50.9629 98.9037 47.8539 99.5335 47.5437C100.163 47.2334 100.722 46.796 101.275 46.3617C101.416 46.251 102.014 45.9183 101.609 45.7947C101.381 45.725 100.961 46.1547 100.793 46.268Z" fill="black"/>
<path d="M95.6502 27.8008H89.0892C88.8227 27.8008 88.567 27.9077 88.3785 28.0979C88.1901 28.2882 88.0842 28.5463 88.0842 28.8154V29.1869H88.0129V30.0178H88.0842V30.5994H88.0129V31.0979H88.0842V37.2287C88.0842 37.4978 88.1901 37.7558 88.3785 37.9461C88.567 38.1364 88.8227 38.2433 89.0892 38.2433H95.6502C95.9167 38.2433 96.1724 38.1364 96.3609 37.9461C96.5493 37.7558 96.6552 37.4978 96.6552 37.2287V28.8154C96.6552 28.5463 96.5493 28.2882 96.3608 28.0979C96.1724 27.9077 95.9167 27.8008 95.6502 27.8008Z" fill="#D0CDE1"/>
<path d="M96.6931 19.9628L93.3654 18.2031L88.7699 18.923L87.8192 23.1621L90.1859 23.0701L90.8471 21.5128V23.0445L91.9392 23.0021L92.573 20.5226L92.9692 23.1621L96.8515 23.082L96.6931 19.9628Z" fill="#2F2E41"/>
<path d="M85.3899 43.8335C85.5404 44.0918 85.7544 44.3067 86.011 44.4573C86.1794 44.5349 86.3632 44.5727 86.5482 44.5677C86.7333 44.5627 86.9148 44.5151 87.0788 44.4284C87.4064 44.2511 87.6746 43.9797 87.8494 43.6485C88.211 43.0038 88.286 42.2324 88.2408 41.4929C88.1957 40.7534 88.0393 40.0253 87.9701 39.2877C87.9197 38.7515 87.9156 38.2122 87.9116 37.6736C87.8991 37.5603 87.9226 37.446 87.9788 37.3472C88.0755 37.2501 88.2006 37.1871 88.3355 37.1673C89.0654 36.9484 89.5499 36.2578 89.8973 35.5738C90.1292 35.117 90.3309 34.6177 90.2861 34.1065C90.2414 33.5952 89.8774 33.0802 89.3716 33.028C88.9546 32.985 88.5695 33.2524 88.2687 33.5471C87.5099 34.2951 87.0223 35.279 86.8841 36.3405C86.8181 36.8604 86.837 37.3944 86.6969 37.899C86.3978 38.9766 85.4621 39.6372 84.9958 40.6068C84.482 41.6752 84.7656 42.8882 85.3899 43.8335Z" fill="#A0616A"/>
<path d="M99.1595 39.7173C99.0531 39.9672 98.8982 40.193 98.7039 40.3815C98.5096 40.57 98.2799 40.7172 98.0282 40.8146C97.7155 40.9414 97.3705 40.9627 97.0448 40.8754C96.8833 40.8302 96.7342 40.7479 96.6093 40.6351C96.4843 40.5223 96.3868 40.3819 96.3244 40.2249C96.2745 40.0667 96.2472 39.9022 96.2432 39.7363C96.1964 39.0096 96.2145 38.2608 96.476 37.5821C96.5768 37.3204 96.7128 37.0721 96.7924 36.803C96.8706 36.4922 96.9106 36.1728 96.9115 35.8521L96.9975 33.8694C97.0117 33.7255 97.0018 33.5802 96.9683 33.4395C96.8826 33.1526 96.617 32.9662 96.3733 32.7951C95.7847 32.3819 95.2031 31.8998 94.9179 31.2359C94.8199 31.036 94.7848 30.8106 94.8173 30.59C94.8977 30.1963 95.2913 29.9414 95.6804 29.8555C95.9349 29.7993 96.1981 29.7958 96.454 29.845C96.71 29.8942 96.9534 29.9952 97.1696 30.142C97.3859 30.2887 97.5705 30.4781 97.7122 30.6987C97.854 30.9194 97.9501 31.1668 97.9947 31.4259C98.0332 31.6496 98.0327 31.8782 98.0552 32.1042C98.103 32.5835 98.2537 33.0455 98.348 33.5177C98.5803 34.6809 98.4599 35.8834 98.6896 37.0464C98.8817 38.0188 99.6058 38.6533 99.1595 39.7173Z" fill="#A0616A"/>
<path d="M92.4576 32.2614C92.9122 32.2614 93.2807 31.8894 93.2807 31.4305C93.2807 30.9716 92.9122 30.5996 92.4576 30.5996C92.003 30.5996 91.6345 30.9716 91.6345 31.4305C91.6345 31.8894 92.003 32.2614 92.4576 32.2614Z" fill="#6C63FF"/>
<path d="M3.08613 61.2927C4.42707 61.2927 5.51412 60.1953 5.51412 58.8416C5.51412 57.488 4.42707 56.3906 3.08613 56.3906C1.74519 56.3906 0.658142 57.488 0.658142 58.8416C0.658142 60.1953 1.74519 61.2927 3.08613 61.2927Z" fill="#838291"/>
<path d="M11.8871 66.118L10.6642 64.918L8.20844 65.688L8.4443 68.5584L13.4936 68.3217L11.9424 66.194L11.8871 66.118Z" fill="#FBBEBE"/>
<path d="M9.21238 66.0932C11.3803 66.0932 13.1378 64.3191 13.1378 62.1306C13.1378 59.9421 11.3803 58.168 9.21238 58.168C7.04445 58.168 5.28699 59.9421 5.28699 62.1306C5.28699 64.3191 7.04445 66.0932 9.21238 66.0932Z" fill="#FBBEBE"/>
<path d="M33.5815 71.2051C33.5815 71.2051 38.4039 79.5711 39.5516 80.827C40.0974 81.4452 40.6789 82.0302 41.293 82.5791C41.293 82.5791 40.7534 84.3857 39.8941 84.3212C39.4043 84.2914 38.924 84.172 38.4766 83.9686C38.4766 83.9686 38.0931 82.9649 37.4241 82.5248C36.7551 82.0846 31.2894 76.6565 31.4171 74.9216C31.5449 73.1867 33.5815 71.2051 33.5815 71.2051Z" fill="#2F2E41"/>
<path d="M16.4074 83.1423C16.4074 83.1423 21.5492 87.1711 28.5371 83.3855L29.1393 82.9381C29.1393 82.9381 28.123 85.246 28.0287 85.8717C27.9194 86.5973 25.2735 90.8472 24.8417 91.0508C24.4099 91.2544 24.3148 91.4422 24.3148 91.4422L26.1471 93.4781L26.8246 92.9748C26.8246 92.9748 29.4662 89.1967 30.2388 88.5055C31.0115 87.8144 34.6926 80.6868 34.6926 80.6868C34.6926 80.6868 36.1001 78.0012 32.5876 77.7992C29.0751 77.5973 27.4588 78.5637 27.4588 78.5637L21.225 79.5634L16.4074 83.1423Z" fill="#2F2E41"/>
<path d="M41.3526 82.1816L43.9533 83.9981C43.9533 83.9981 47.2713 85.0475 45.2275 85.7459C43.1836 86.4442 37.7977 86.6968 37.6755 85.7333C37.5533 84.7698 37.888 83.2533 38.1567 83.3362C38.4254 83.4192 40.2903 83.908 41.3526 82.1816Z" fill="#2F2E41"/>
<path d="M27.0548 92.3514L27.5361 95.0198C27.5361 95.0198 28.9049 97.6624 27.2615 96.8425C25.618 96.0225 22.2322 92.9081 22.7322 92.2552C23.2322 91.6022 24.3357 90.8941 24.4477 91.1069C24.5598 91.3197 25.3892 92.7443 27.0548 92.3514Z" fill="#2F2E41"/>
<path d="M22.0957 80.4407C22.0957 80.4407 18.6005 84.5601 16.4785 83.5594C14.3564 82.5587 5.67482 70.9683 6.66612 68.8262C7.65741 66.684 7.98978 67.14 7.98978 67.14L12.4724 67.5584L11.1826 65.4709C11.1826 65.4709 11.7848 65.0235 12.3587 65.6515C12.9325 66.2795 15.2364 67.8479 16.0389 70.0631C16.8415 72.2783 19.1979 72.1678 19.1979 72.1678L22.0957 80.4407Z" fill="white"/>
<path d="M36.2106 71.945L30.1518 78.4375L24.7242 68.7639L29.884 62.4707L36.2106 71.945Z" fill="#3F3D56"/>
<path d="M35.7532 71.8741L30.2809 77.5794L25.3221 68.7876L29.8698 63.0078L35.7532 71.8741Z" fill="white"/>
<path d="M29.8549 78.1895L30.1518 78.4375L29.9614 78.8131L21.4893 81.3586L21.4092 81.0656L21.7946 80.6631L29.8549 78.1895Z" fill="#B3B3B3"/>
<path d="M30.227 78.3814L21.4538 81.1504L16.1058 70.9491L24.7241 68.7637L30.227 78.3814Z" fill="#D0CDE1"/>
<path d="M29.5664 76.9981L29.19 77.2777L25.0126 69.9555L25.4443 69.752L29.5664 76.9981Z" fill="#3F3D56"/>
<path d="M28.7029 77.4049L24.9917 78.522L20.7787 70.9919L24.4502 70.1387L28.7029 77.4049Z" fill="#3F3D56"/>
<path d="M18.2477 71.8187L19.016 71.5993C19.016 71.5993 23.3012 71.1102 23.3637 72.4695C23.4263 73.8287 18.4409 73.1981 18.4409 73.1981L17.7761 72.2862L18.2477 71.8187Z" fill="#FBBEBE"/>
<path d="M22.0061 77.9291L23.0756 77.486C23.0756 77.486 26.3039 76.0248 25.3778 75.0728C24.4517 74.1208 21.5955 75.7741 21.5955 75.7741L21.0487 76.2975L22.0061 77.9291Z" fill="#FBBEBE"/>
<path d="M21.0529 75.8254C21.0529 75.8254 22.7943 77.5775 22.3981 77.989C22.0018 78.4005 15.5041 83.8134 13.8933 82.0815C12.2826 80.3495 4.43485 71.6539 7.48853 70.9082C10.5422 70.1624 11.349 71.9059 11.349 71.9059L15.3803 78.8682L21.0529 75.8254Z" fill="white"/>
<path d="M15.8386 70.5039L18.6992 71.4831L18.6525 73.5678L15.6271 73.2383L15.8386 70.5039Z" fill="white"/>
<path opacity="0.2" d="M18.4168 76.9056L15.3348 78.7267L11.8135 73.2598L15.2126 77.7632L18.4168 76.9056Z" fill="black"/>
<path d="M7.48949 65.6985C10.0704 65.6985 12.1626 63.5864 12.1626 60.9811C12.1626 58.3757 10.0704 56.2637 7.48949 56.2637C4.90862 56.2637 2.81641 58.3757 2.81641 60.9811C2.81641 63.5864 4.90862 65.6985 7.48949 65.6985Z" fill="#838291"/>
<path d="M32.7392 72.3564L29.4671 67.5243L30.8542 65.791L34.2541 70.7623L32.7392 72.3564Z" fill="#6C63FF"/>
<path d="M32.647 74.2997L27.6656 66.9891L27.9113 66.6895L32.8694 74.0173L32.647 74.2997Z" fill="#E6E6E6"/>
<path d="M32.0052 75.0107L27.0237 67.7001L27.2694 67.4004L32.2276 74.7284L32.0052 75.0107Z" fill="#E6E6E6"/>
<path d="M31.4582 75.5341L26.4768 68.2235L26.7225 67.9238L31.6806 75.2518L31.4582 75.5341Z" fill="#E6E6E6"/>
<path d="M9.55884 57.832H11.0045C11.7364 57.832 12.4384 58.1255 12.9559 58.648C13.4735 59.1705 13.7643 59.8791 13.7643 60.618H9.55884V57.832Z" fill="#838291"/>
<path d="M29.4721 56.0588L29.21 56.0391C29.1998 56.1766 29.1925 56.315 29.1839 56.453L28.0076 56.4133L29.2415 58.7474L30.6273 56.5018L29.4467 56.4619C29.4551 56.3275 29.4622 56.1928 29.4721 56.0588Z" fill="#3F3D56"/>
<path d="M36.3716 37.0335L36.5805 37.1946C36.8939 36.7802 37.2212 36.3665 37.5535 35.965L37.3517 35.7949C37.0171 36.1994 36.6873 36.6161 36.3716 37.0335Z" fill="#3F3D56"/>
<path d="M38.3851 34.6015L38.5792 34.7804C38.9279 34.3949 39.2899 34.0121 39.6551 33.6424L39.469 33.4551C39.1011 33.8274 38.7364 34.2132 38.3851 34.6015Z" fill="#3F3D56"/>
<path d="M40.6016 32.358L40.7793 32.5535C41.1607 32.2 41.5544 31.8508 41.9496 31.5156L41.7805 31.3125C41.3824 31.6501 40.9857 32.0019 40.6016 32.358Z" fill="#3F3D56"/>
<path d="M34.5776 39.6361L34.7998 39.7778C35.076 39.3366 35.3662 38.8953 35.662 38.466L35.4462 38.3145C35.1482 38.747 34.8559 39.1916 34.5776 39.6361Z" fill="#3F3D56"/>
<path d="M43.0035 30.3194L43.1636 30.5298C43.5743 30.2115 43.9968 29.8987 44.4193 29.6002L44.2686 29.3828C43.8429 29.6836 43.4172 29.9987 43.0035 30.3194Z" fill="#3F3D56"/>
<path d="M33.018 42.3908L33.2517 42.5121C33.4885 42.0472 33.7389 41.5815 33.9959 41.1278L33.7677 40.9961C33.5088 41.4532 33.2565 41.9224 33.018 42.3908Z" fill="#3F3D56"/>
<path d="M30.4828 49.8591L30.2283 49.793C30.0984 50.3021 29.9781 50.8212 29.8708 51.336L30.128 51.3907C30.2346 50.8797 30.3539 50.3644 30.4828 49.8591Z" fill="#3F3D56"/>
<path d="M45.5731 28.5036L45.7141 28.7274C46.1498 28.4476 46.5977 28.1738 47.0454 27.9136L46.9143 27.6836C46.4632 27.9458 46.0119 28.2216 45.5731 28.5036Z" fill="#3F3D56"/>
<path d="M29.8411 52.9356L29.5817 52.8926C29.4974 53.4105 29.4232 53.9384 29.3615 54.4614L29.6225 54.4927C29.6838 53.9737 29.7574 53.4498 29.8411 52.9356Z" fill="#3F3D56"/>
<path d="M31.7059 45.2755L31.9494 45.3754C32.1443 44.8911 32.3528 44.4045 32.569 43.9291L32.3302 43.8184C32.1123 44.2974 31.9022 44.7876 31.7059 45.2755Z" fill="#3F3D56"/>
<path d="M30.6533 48.2682L30.9047 48.3457C31.0563 47.845 31.221 47.3413 31.3943 46.8485L31.1467 46.7598C30.972 47.2562 30.806 47.7637 30.6533 48.2682Z" fill="#3F3D56"/>
<path d="M63.3528 23.2168C63.8681 23.1988 64.3927 23.1916 64.9117 23.1965L64.914 22.9312C64.3914 22.9263 63.8627 22.9335 63.3438 22.9516L63.3528 23.2168Z" fill="#3F3D56"/>
<path d="M48.2899 26.9251L48.4108 27.1607C48.8698 26.9206 49.3396 26.688 49.8074 26.4692L49.6969 26.2285C49.2256 26.4489 48.7523 26.6833 48.2899 26.9251Z" fill="#3F3D56"/>
<path d="M69.5724 23.5479C70.0851 23.6212 70.6026 23.7069 71.1104 23.8029L71.1587 23.5421C70.6471 23.4454 70.1258 23.3589 69.6091 23.2852L69.5724 23.5479Z" fill="#3F3D56"/>
<path d="M72.6359 24.1255C73.1392 24.2442 73.6472 24.3761 74.1454 24.5175L74.2165 24.262C73.7146 24.1196 73.2029 23.9868 72.6957 23.8672L72.6359 24.1255Z" fill="#3F3D56"/>
<path d="M75.6356 24.9766C76.1264 25.14 76.6206 25.317 77.1045 25.5027L77.1979 25.2547C76.7103 25.0676 76.2125 24.8893 75.718 24.7246L75.6356 24.9766Z" fill="#3F3D56"/>
<path d="M66.4698 23.2435C66.9874 23.2709 67.5104 23.3102 68.0244 23.3604L68.0499 23.0963C67.532 23.0458 67.005 23.0061 66.4837 22.9785L66.4698 23.2435Z" fill="#3F3D56"/>
<path d="M60.2149 23.1998L60.247 23.4632C60.7592 23.3996 61.2808 23.3465 61.7971 23.3056L61.7765 23.041C61.2563 23.0823 60.7308 23.1357 60.2149 23.1998Z" fill="#3F3D56"/>
<path d="M54.0832 24.5267L54.161 24.7801C54.6549 24.6258 55.1589 24.4805 55.6592 24.3484L55.5927 24.0918C55.0887 24.2248 54.5808 24.3711 54.0832 24.5267Z" fill="#3F3D56"/>
<path d="M51.1327 25.5968L51.2325 25.8423C51.7103 25.6443 52.1985 25.4548 52.6833 25.279L52.5945 25.0293C52.1059 25.2064 51.6142 25.3974 51.1327 25.5968Z" fill="#3F3D56"/>
<path d="M57.1199 23.7234L57.175 23.9829C57.6799 23.8737 58.1948 23.7742 58.7053 23.6875L58.6617 23.4258C58.1474 23.5132 57.6286 23.6134 57.1199 23.7234Z" fill="#3F3D56"/>
<path d="M81.0263 27.1444L79.5575 24.9531L79.0411 26.0263C78.9161 25.9699 78.7917 25.9124 78.6668 25.8578L78.5624 26.1014C78.6843 26.1546 78.8049 26.2105 78.9261 26.2651L78.4121 27.3332L81.0263 27.1444Z" fill="#3F3D56"/>
</g>
<defs>
<clipPath id="clip0">
<rect x="0.657837" width="119" height="97" fill="white"/>
</clipPath>
</defs>
</svg>
