<svg width="151" height="72" viewBox="0 0 151 72" fill="none" xmlns="http://www.w3.org/2000/svg">
<g clip-path="url(#clip0)">
<path d="M75.4471 60.224L74.712 60.9821L74.6409 59.4785L74.5529 61.6986L73.8755 60.9998L74.5468 61.8519L74.3245 67.4657H75.0186L74.7197 61.1472L75.4471 60.224Z" fill="#E6E6E6"/>
<path d="M76.8152 62.0932L76.0801 62.8513L76.0089 61.3477L75.9209 63.5678L75.2434 62.869L75.9149 63.721L75.6926 69.3348H76.3865L76.0878 63.0163L76.8152 62.0932Z" fill="#E6E6E6"/>
<path d="M78.8672 61.0737L78.132 61.8318L78.0609 60.3281L77.9729 62.5482L77.2954 61.8494L77.9668 62.7015L77.7446 68.3153H78.4385L78.1398 61.9968L78.8672 61.0737Z" fill="#E6E6E6"/>
<path d="M73.8511 61.9233L73.1158 62.6814L73.0447 61.1777L72.9568 63.3978L72.2793 62.699L72.9508 63.5511L72.7283 69.1649H73.4224L73.1236 62.8464L73.8511 61.9233Z" fill="#E6E6E6"/>
<path d="M58.259 0H2.85364V71.3748H58.259V0Z" fill="#E6E6E6"/>
<path d="M54.4662 4.30273H6.53125V34.8346H54.4662V4.30273Z" fill="white"/>
<path d="M54.4668 33.584H6.53101V66.3077H54.4668V33.584Z" fill="white"/>
<path d="M31.7439 4.14648H29.2538V34.8349H31.7439V4.14648Z" fill="#3F3D56"/>
<path d="M54.4663 4.14648H51.9762V34.8349H54.4663V4.14648Z" fill="#3F3D56"/>
<path d="M54.4664 32.332H6.53149V34.8372H54.4664V32.332Z" fill="#3F3D56"/>
<path d="M13.3057 20.7441L9.02161 23.6413V26.0381L15.5116 20.7441H13.3057Z" fill="white"/>
<path d="M20.3643 20.7441L9.02161 29.6774V31.7192L23.8054 20.7441H20.3643Z" fill="#E6E6E6"/>
<path d="M9.02138 4.14648H6.53125V34.8349H9.02138V4.14648Z" fill="#3F3D56"/>
<path d="M47.54 6.65136L37.9692 18.8641L40.9263 19.1771L49.1748 6.18164L47.54 6.65136Z" fill="#E6E6E6"/>
<path d="M54.4662 4.14648H6.53125V6.65167H54.4662V4.14648Z" fill="#3F3D56"/>
<path d="M54.4664 18.2383H6.53149V20.7435H54.4664V18.2383Z" fill="#3F3D56"/>
<path d="M148.969 0H93.5631V71.3748H148.969V0Z" fill="#E6E6E6"/>
<path d="M145.172 4.21484H97.2369V34.7467H145.172V4.21484Z" fill="white"/>
<path d="M145.171 33.4941H97.2371V66.2178H145.171V33.4941Z" fill="white"/>
<path d="M122.449 4.05664H119.959V34.7451H122.449V4.05664Z" fill="#3F3D56"/>
<path d="M145.172 4.05664H142.682V34.7451H145.172V4.05664Z" fill="#3F3D56"/>
<path d="M145.172 32.2402H97.2369V34.7454H145.172V32.2402Z" fill="#3F3D56"/>
<path d="M104.011 20.6543L99.7269 23.5516V25.9483L106.217 20.6543H104.011Z" fill="#E6E6E6"/>
<path d="M111.07 20.6543L99.7269 29.5875V31.6294L114.511 20.6543H111.07Z" fill="#E6E6E6"/>
<path d="M99.7271 4.05664H97.2369V34.7451H99.7271V4.05664Z" fill="#3F3D56"/>
<path d="M138.245 6.56346L128.675 18.7762L131.632 19.0892L139.88 6.09375L138.245 6.56346Z" fill="#E6E6E6"/>
<path d="M145.172 4.05664H97.2369V6.56182H145.172V4.05664Z" fill="#3F3D56"/>
<path d="M145.172 18.1504H97.2369V20.6556H145.172V18.1504Z" fill="#3F3D56"/>
<path d="M120.144 40.9121C120.144 40.9121 120.327 41.5236 119.293 42.074C118.26 42.6243 117.956 44.7035 119.172 45.315C120.387 45.9265 120.752 46.7215 120.144 47.2718C119.536 47.8222 118.442 49.2898 119.901 49.6567C121.36 50.0236 121.542 50.7574 121.117 51.0632C120.691 51.3689 122.089 50.5128 122.089 50.5128C122.089 50.5128 122.332 51.9804 123.609 51.6135C124.885 51.2466 128.472 44.2754 126.648 43.297C124.824 42.3186 120.144 40.9121 120.144 40.9121Z" fill="#838290"/>
<path d="M118.485 54.859L112.653 58.9821C112.653 58.9821 108.24 54.3833 108.24 51.6874C108.24 48.9916 105.875 43.917 104.772 45.9786C103.669 48.0401 106.033 52.9561 106.033 52.9561L110.446 63.4224C110.446 63.4224 112.969 63.8981 114.387 62.788C115.806 61.678 119.746 59.4579 119.746 59.4579L118.485 54.859Z" fill="#FFB9B9"/>
<path d="M124.239 47.9606C126.676 47.9606 128.652 45.9726 128.652 43.5203C128.652 41.068 126.676 39.0801 124.239 39.0801C121.801 39.0801 119.825 41.068 119.825 43.5203C119.825 45.9726 121.801 47.9606 124.239 47.9606Z" fill="#FFB9B9"/>
<path d="M121.953 46.6109C121.953 46.6109 123.53 50.734 122.899 51.6854C122.269 52.6369 121.48 52.6369 120.85 52.9541C120.535 53.1127 117.224 54.3813 117.224 55.3328C117.24 55.9441 117.402 56.5427 117.697 57.0772L118.17 59.773L122.111 62.3103L127.313 61.676L131.253 59.4558C131.253 59.4558 131.884 53.5884 130.15 52.6369C128.416 51.6854 126.367 49.4653 126.524 48.6724C126.682 47.8795 126.84 45.9766 126.84 45.9766L121.953 46.6109Z" fill="#FFB9B9"/>
<path d="M130.308 58.6641V58.6692L130.166 60.0695L129.986 61.8658L129.779 63.8965L129.546 66.2162H118.124C117.97 64.9485 117.698 63.6042 117.224 62.7868C116.925 62.3005 116.793 61.7296 116.845 61.1605C116.952 60.0984 117.697 59.3574 117.697 59.1399C117.697 58.902 116.369 57.5068 115.705 56.8219C115.482 56.5925 115.333 56.443 115.333 56.443L117.382 54.8574L117.411 54.9067L117.698 55.4131L118.643 57.0769L118.328 58.3463C118.328 58.3463 118.817 58.4313 119.496 58.54C120.67 58.7253 122.416 58.9802 123.214 58.9802C123.953 58.9802 124.857 59.3625 125.604 59.5818C125.627 59.5886 125.649 59.5954 125.671 59.6022C126.141 59.7347 126.543 59.7959 126.796 59.6429C126.812 59.6343 126.826 59.6247 126.84 59.6141C126.972 59.5241 127.115 59.4515 127.266 59.3982H127.268C127.814 59.2039 128.372 59.0483 128.94 58.9326C129.578 58.7915 130.139 58.693 130.276 58.6692C130.276 58.669 130.277 58.6688 130.277 58.6687C130.277 58.6685 130.277 58.6685 130.278 58.6685C130.278 58.6685 130.278 58.6685 130.279 58.6687C130.279 58.6688 130.279 58.669 130.279 58.6692C130.298 58.6658 130.308 58.6641 130.308 58.6641Z" fill="#FA4659"/>
<path d="M130.8 58.4234C130.788 58.5084 130.778 58.5951 130.768 58.68C130.719 59.0539 130.678 59.4278 130.643 59.8016C130.545 60.7941 130.486 61.7894 130.465 62.7875C130.459 63.1602 130.42 63.5315 130.349 63.8972C130.192 64.6843 129.981 65.4594 129.717 66.2169H125.254C125.372 65.3332 125.531 63.9737 125.609 62.5496V62.5479C125.621 62.327 125.629 62.1043 125.638 61.8817C125.667 61.1334 125.657 60.384 125.607 59.6368C125.606 59.6181 125.606 59.5994 125.604 59.5824C125.595 59.4856 125.587 59.3921 125.578 59.2986C125.264 56.1275 127.154 52.6387 127.154 52.6387C127.795 52.6387 128.42 52.9938 128.977 53.4833C129.658 54.0952 130.18 54.8651 130.497 55.726C130.815 56.587 130.919 57.5129 130.8 58.4234Z" fill="#FFB9B9"/>
<path opacity="0.1" d="M130.465 62.7877C130.459 63.1604 130.42 63.5318 130.349 63.8974C130.192 64.6845 129.981 65.4596 129.717 66.2171H125.22C125.358 64.7884 125.4 63.352 125.347 61.9176C125.338 61.7069 125.327 61.4928 125.31 61.2803V61.2769C125.298 61.0934 125.283 60.9099 125.264 60.7263C125.236 60.5142 125.248 60.2987 125.298 60.0908V60.0874C125.334 59.9294 125.42 59.7875 125.543 59.6829C125.563 59.6657 125.584 59.6504 125.607 59.637C125.627 59.6234 125.649 59.612 125.671 59.603C125.692 59.5917 125.713 59.582 125.735 59.5741C125.912 59.5155 126.099 59.4992 126.283 59.5266C126.457 59.5475 126.63 59.5868 126.796 59.6438C127.541 59.9181 128.236 60.3118 128.855 60.8096C129.267 61.1219 129.646 61.4761 129.985 61.8666C130.283 62.2201 130.465 62.5464 130.465 62.7877Z" fill="black"/>
<path d="M125.106 60.4074L125.608 62.5482L128.416 63.8961H130.78L131.884 58.8215C131.884 58.8215 129.936 58.407 128.939 58.9314C127.943 59.4559 125.603 59.5814 125.603 59.5814L125.106 60.4074Z" fill="#FA4659"/>
<path d="M124.275 39.0645C124.275 39.0645 124.477 39.7419 123.332 40.3516C122.187 40.9613 121.851 43.2645 123.197 43.9419C124.544 44.6194 124.948 45.5 124.275 46.1097C123.601 46.7194 122.389 48.3452 124.005 48.7517C125.621 49.1581 125.823 49.9711 125.352 50.3098C124.881 50.6485 126.429 49.7001 126.429 49.7001C126.429 49.7001 126.699 51.3259 128.113 50.9195C129.527 50.513 130.938 43.1245 129.362 41.2216C127.896 39.4522 124.275 39.0645 124.275 39.0645Z" fill="#838290"/>
<path d="M123.845 38.3661C123.845 37.3737 129.977 38.4632 131.242 39.8489C132.118 40.8085 133.449 42.2522 132.334 43.2698C131.219 44.2874 131.066 45.2451 131.877 45.6495C132.689 46.054 134.292 47.2908 132.845 48.1206C131.398 48.9504 131.421 49.788 131.966 49.9863C132.51 50.1846 130.765 49.6914 130.765 49.6914C130.765 49.6914 130.941 51.3301 129.47 51.3222C128 51.3144 123.781 43.1834 124.789 40.9234C125.726 38.822 123.845 38.3661 123.845 38.3661Z" fill="#838290"/>
<path d="M124.484 38.1484C120.537 37.9093 120.141 40.8981 120.141 40.8981C120.168 42.6278 122.899 41.785 123.657 42.0428C124.572 41.3807 126.335 40.128 127.596 39.234C126.681 38.5853 125.602 38.2091 124.484 38.1484Z" fill="#838290"/>
<path d="M70.9572 65.2578L71.2658 67.2121C71.2658 68.3614 71.7196 69.4637 72.5274 70.2764C73.3352 71.089 74.4308 71.5456 75.5732 71.5456C76.7156 71.5456 77.8113 71.089 78.6191 70.2764C79.4269 69.4637 79.8807 68.3614 79.8807 67.2121L79.8828 67.1852L80.1893 65.2578H70.9572Z" fill="#E6E6E6"/>
<path d="M150.658 71.3477H0.657715V71.6875H150.658V71.3477Z" fill="#3F3D56"/>
<path d="M16.2377 65.8398V66.8388C16.2377 66.8388 15.5757 72.0002 13.7553 72.0002C11.9348 72.0002 13.4243 66.6723 13.4243 66.6723V65.8399L16.2377 65.8398Z" fill="#9E616A"/>
<path d="M43.8757 47.0244L43.5447 46.1919C43.5447 46.1919 41.3932 43.0285 42.8827 42.196C44.3722 41.3635 46.1926 45.526 46.1926 45.526L46.5236 46.8579L43.8757 47.0244Z" fill="#9E616A"/>
<path d="M37.0077 46.0086C39.4203 46.0086 41.3761 44.0409 41.3761 41.6137C41.3761 39.1864 39.4203 37.2188 37.0077 37.2188C34.595 37.2188 32.6392 39.1864 32.6392 41.6137C32.6392 44.0409 34.595 46.0086 37.0077 46.0086Z" fill="#9E616A"/>
<path d="M33.8632 42.1133L30.8845 44.4442L35.0219 47.9405L37.3386 45.1102L33.8632 42.1133Z" fill="#9E616A"/>
<path d="M36.5818 66.3075H21.369L22.5227 53.9987L23.3792 44.8576V44.8559C23.3975 44.6598 23.4541 44.4692 23.5457 44.2951C23.6373 44.121 23.7622 43.9668 23.9131 43.8413C24.0641 43.7158 24.2381 43.6215 24.4253 43.5638C24.6125 43.5061 24.8092 43.4861 25.0042 43.5049L31.3166 44.1065L35.9619 46.7933L36.097 48.0253L40.7322 51.3545L37.5818 57.3839L35.6004 61.1787L36.5818 66.3075Z" fill="#FA4659"/>
<path d="M23.5197 52.6854L19.2168 58.3463L16.5688 66.3381H12.5969L15.4104 54.5168L22.8368 44.3009C23.0278 44.0395 23.2977 43.8473 23.6062 43.7528C23.9148 43.6582 24.2454 43.6666 24.5488 43.7765C24.6436 43.8158 24.7425 43.8442 24.8436 43.861L23.5197 52.6854Z" fill="#FA4659"/>
<path d="M37.0903 57.1822L47.4339 61.4278L49.2542 59.5965L46.6891 46.1934L43.3792 46.8595L44.7032 54.8513L40.7314 51.3549L39.4072 51.0219L37.0903 57.1822Z" fill="#FA4659"/>
<path d="M32.7299 43.0379C32.5206 41.2893 32.7152 39.5156 33.2986 37.8549C34.2678 35.2375 37.358 36.0264 39.1177 36.6199C40.8774 37.2135 43.2092 39.6964 42.6025 41.0517C41.9958 42.4069 39.1164 40.6948 38.0894 39.8219C37.0623 38.949 35.2679 41.6 35.2679 41.6L32.7299 43.0379Z" fill="#2F2E41"/>
<path d="M35.8249 41.4636C35.9862 41.0173 35.9171 40.5824 35.6707 40.4923C35.4242 40.4021 35.0937 40.6909 34.9324 41.1372C34.7711 41.5835 34.8402 42.0184 35.0866 42.1085C35.3331 42.1987 35.6636 41.9099 35.8249 41.4636Z" fill="#9E616A"/>
</g>
<defs>
<clipPath id="clip0">
<rect x="0.657715" width="150" height="72" fill="white"/>
</clipPath>
</defs>
</svg>
