<svg width="125" height="80" viewBox="0 0 125 80" fill="none" xmlns="http://www.w3.org/2000/svg">
<path d="M124.999 0.0703125H0.0524902V79.9996H124.999V0.0703125Z" fill="#E6E6E6"/>
<path d="M121.427 10.0957H3.62622V75.2712H121.427V10.0957Z" fill="white"/>
<path d="M124.947 0H0V5.30208H124.947V0Z" fill="#FA4659"/>
<path d="M3.94453 3.69391C4.48788 3.69391 4.92836 3.25394 4.92836 2.71121C4.92836 2.16849 4.48788 1.72852 3.94453 1.72852C3.40117 1.72852 2.96069 2.16849 2.96069 2.71121C2.96069 3.25394 3.40117 3.69391 3.94453 3.69391Z" fill="white"/>
<path d="M7.6789 3.69391C8.22225 3.69391 8.66273 3.25394 8.66273 2.71121C8.66273 2.16849 8.22225 1.72852 7.6789 1.72852C7.13554 1.72852 6.69507 2.16849 6.69507 2.71121C6.69507 3.25394 7.13554 3.69391 7.6789 3.69391Z" fill="white"/>
<path d="M11.4134 3.69391C11.9568 3.69391 12.3972 3.25394 12.3972 2.71121C12.3972 2.16849 11.9568 1.72852 11.4134 1.72852C10.87 1.72852 10.4296 2.16849 10.4296 2.71121C10.4296 3.25394 10.87 3.69391 11.4134 3.69391Z" fill="white"/>
<path d="M41.1605 15.4551H18.1204V40.4228H41.1605V15.4551Z" fill="#E6E6E6"/>
<path d="M74.0465 15.4551H51.0063V40.4228H74.0465V15.4551Z" fill="#E6E6E6"/>
<path d="M106.933 15.4551H83.8925V40.4228H106.933V15.4551Z" fill="#E6E6E6"/>
<path d="M41.1605 44.9434H18.1204V69.911H41.1605V44.9434Z" fill="#E6E6E6"/>
<path d="M74.0465 44.9434H51.0063V69.911H74.0465V44.9434Z" fill="#E6E6E6"/>
<path d="M106.933 44.9434H83.8925V69.911H106.933V44.9434Z" fill="#E6E6E6"/>
<path d="M27.0698 30.5538C29.2208 30.5538 30.9645 28.8121 30.9645 26.6636C30.9645 24.5151 29.2208 22.7734 27.0698 22.7734C24.9189 22.7734 23.1752 24.5151 23.1752 26.6636C23.1752 28.8121 24.9189 30.5538 27.0698 30.5538Z" fill="#FFB9B9"/>
<path d="M25.5483 29.6434C25.5483 29.6434 26.0352 31.9532 26.0352 32.1964C26.0352 32.4395 28.3476 33.5336 28.3476 33.5336L30.4167 33.1689L31.1469 30.9807C31.1469 30.9807 29.9299 29.1571 29.9299 28.4277L25.5483 29.6434Z" fill="#FFB9B9"/>
<path d="M23.6923 23.53C23.6923 23.53 24.9289 20.8539 27.2989 21.4714C29.669 22.089 31.0086 23.0153 31.1116 23.9417C31.2147 24.868 31.0601 26.2575 31.0601 26.2575C31.0601 26.2575 30.8025 24.3534 29.1537 24.7651C27.505 25.1768 24.9289 24.868 24.9289 24.868L24.5167 28.5734C24.5167 28.5734 24.053 27.9044 23.5378 28.3161C23.0225 28.7278 22.0436 24.3534 23.6923 23.53Z" fill="#2F2E41"/>
<path d="M39.4228 39.4894L38.45 35.1122C37.962 33.6531 36.746 32.4385 36.746 32.4385L30.7439 30.3301H30.7424C30.7307 30.86 30.5519 31.3728 30.2313 31.7952C29.9108 32.2177 29.465 32.5284 28.9574 32.6829C27.131 33.2895 25.8737 31.2452 25.8737 31.2452L20.8001 35.1122C20.8001 35.1122 19.2185 36.4505 19.3409 39.0035L19.1726 40.4244H39.8908L39.4228 39.4894Z" fill="#FA4659"/>
<path d="M59.8679 32.4935C62.7875 32.4935 65.1542 29.984 65.1542 26.8883C65.1542 23.7927 62.7875 21.2832 59.8679 21.2832C56.9484 21.2832 54.5817 23.7927 54.5817 26.8883C54.5817 29.984 56.9484 32.4935 59.8679 32.4935Z" fill="#2F2E41"/>
<path d="M64.5582 35.37C66.0941 35.37 67.3391 34.1263 67.3391 32.5922C67.3391 31.0581 66.0941 29.8145 64.5582 29.8145C63.0223 29.8145 61.7772 31.0581 61.7772 32.5922C61.7772 34.1263 63.0223 35.37 64.5582 35.37Z" fill="#2F2E41"/>
<path d="M62.6214 28.8711L64.1112 32.74L60.3371 34.3274L60.0057 33.5771L58.8472 30.9544L62.6214 28.8711Z" fill="#9F616A"/>
<path d="M59.6419 31.4007C61.4795 31.4007 62.9692 29.9128 62.9692 28.0773C62.9692 26.2418 61.4795 24.7539 59.6419 24.7539C57.8043 24.7539 56.3147 26.2418 56.3147 28.0773C56.3147 29.9128 57.8043 31.4007 59.6419 31.4007Z" fill="#9F616A"/>
<path d="M56.9223 27.7129C59.0136 26.3191 59.6388 25.9859 62.0358 26.5243L62.1796 23.0312L55.9852 24.3292L56.9223 27.7129Z" fill="#2F2E41"/>
<path d="M70.3678 35.6173L70.276 35.628C70.2738 35.6247 70.2712 35.6216 70.2684 35.6188C69.9043 35.2552 68.1667 34.5937 66.8711 34.1353H66.8696C66.0467 33.8435 65.4028 33.6342 65.4028 33.6342L63.8365 32.0254C63.4418 32.4685 62.6082 32.8107 61.8159 33.0521C61.2093 33.2355 60.5923 33.3824 59.9681 33.4921H59.9666L59.6423 34.5264C59.6423 34.5264 55.9667 37.3055 55.67 37.6019H55.6685V37.605C55.6448 37.6388 55.6349 37.6803 55.6409 37.7211V37.7288C55.4556 38.6158 55.3602 39.5192 55.3564 40.4254H71.362V39.4873C71.362 38.1978 70.3678 35.6173 70.3678 35.6173Z" fill="#C81C2E"/>
<path d="M99.8001 40.424H91.886L91.4501 36.1293L91.4241 35.868L91.3706 35.3501L91.1518 33.1851L90.8781 35.5105L90.2999 40.424H88.8621L88.9156 38.8946L88.9691 37.3439L88.9921 36.719L89.2873 28.2182C89.2646 26.8711 89.6914 25.5547 90.5002 24.4765C90.9493 23.8926 91.5288 23.4215 92.1924 23.1008C92.8561 22.7801 93.5855 22.6187 94.3227 22.6294C95.0748 22.627 95.8172 22.7985 96.4918 23.1307C97.1664 23.4628 97.7548 23.9465 98.2109 24.5438C99.0469 25.6328 99.4943 26.9697 99.482 28.3419L99.6181 33.4877L99.8001 40.424Z" fill="#2F2E41"/>
<path d="M94.3226 31.2607C96.2451 31.2607 97.8036 29.704 97.8036 27.7837C97.8036 25.8634 96.2451 24.3066 94.3226 24.3066C92.4001 24.3066 90.8416 25.8634 90.8416 27.7837C90.8416 29.704 92.4001 31.2607 94.3226 31.2607Z" fill="#FBBEBE"/>
<path d="M92.5822 30.2659C92.5822 30.2659 93.5768 33.6188 92.5822 34.6122C91.5876 35.6057 91.339 35.9782 91.339 35.9782L94.1984 39.8278L99.1713 33.743C99.1713 33.743 95.6903 32.7495 96.5605 30.0176L92.5822 30.2659Z" fill="#FBBEBE"/>
<path d="M103.321 40.4239H100.384L100.335 39.9212L100.291 39.4568L101.643 39.2872L103.274 39.084L103.292 39.605L103.321 40.4239Z" fill="#FBBEBE"/>
<path d="M103.523 39.5801C103.523 39.5801 103.025 36.4756 102.652 35.2338C102.279 33.992 101.906 33.992 101.906 33.992H101.906L101.906 33.9917C101.467 33.5532 100.412 33.4753 99.618 33.4875C99.0613 33.4936 98.633 33.5425 98.633 33.5425L94.1987 38.2146L91.9655 35.2491V35.2476C91.7644 35.2632 91.5652 35.2974 91.3705 35.3499C91.203 35.3925 91.0385 35.4461 90.878 35.5103C90.1864 35.8055 89.549 36.214 88.992 36.7189H88.9905C88.6693 37.0076 88.4796 37.22 88.4796 37.22C87.9878 38.2413 87.6171 39.3165 87.3752 40.4238H101.585L101.617 39.7852V39.784L103.523 39.5801Z" fill="#FA4659"/>
<path d="M91.4011 27.2256C93.6494 26.0149 94.5729 26.0661 97.3686 27.2256L98.1145 25.4103C98.1141 25.0685 97.978 24.7408 97.7361 24.4991C97.4941 24.2574 97.166 24.1215 96.8238 24.1211H91.8216C91.4794 24.1215 91.1513 24.2574 90.9093 24.4991C90.6674 24.7408 90.5313 25.0685 90.5309 25.4103L91.4011 27.2256Z" fill="#2F2E41"/>
<path d="M29.3357 50.9874C29.1505 50.9723 28.965 51.0136 28.8038 51.1061C28.651 51.2363 28.5282 51.3982 28.4441 51.5804C28.0549 52.2631 27.528 52.8576 26.8968 53.3262C26.437 53.6627 25.8525 54.0821 25.9311 54.7024C25.9726 54.9073 26.0484 55.1037 26.1552 55.2834C26.5794 56.1386 27.7368 56.7995 27.6229 57.7754C28.0443 57.0707 27.4807 56.7223 27.9021 56.0176C28.1028 55.682 28.4514 55.3032 28.7544 55.514C28.8558 55.5845 28.9224 55.7111 29.0281 55.773C29.2801 55.9207 29.5483 55.6383 29.7714 55.4383C30.5407 54.7484 31.6348 54.9291 32.5922 55.1441C33.0442 55.2456 33.5406 55.3787 33.8078 55.8102C34.1591 56.3775 33.4741 56.9902 33.301 57.6316C33.2868 57.6862 33.2862 57.7435 33.299 57.7985C33.3119 57.8534 33.3379 57.9045 33.3748 57.9472C33.4117 57.99 33.4584 58.0231 33.5109 58.0439C33.5635 58.0647 33.6203 58.0725 33.6765 58.0665C33.9637 58.0382 34.304 58.015 34.321 57.8891C34.6825 57.902 35.1253 57.8611 35.2802 57.4852C35.3275 57.3364 35.3525 57.1815 35.3544 57.0255C35.4113 56.394 35.6796 55.818 35.8573 55.217C36.0351 54.616 36.1123 53.9117 35.8124 53.3788C35.7053 53.2016 35.5729 53.0408 35.4194 52.9018C33.7172 51.2563 31.4791 50.985 29.3357 50.9874Z" fill="#2F2E41"/>
<path d="M27.9932 59.0071C27.9932 59.0071 28.3634 62.0886 27.006 62.3351C25.6486 62.5816 28.24 66.7724 28.24 66.7724L34.4101 67.512L32.9293 62.5816C32.9293 62.5816 31.9421 62.2118 32.5591 59.7467C33.1761 57.2815 27.9932 59.0071 27.9932 59.0071Z" fill="#9F616A"/>
<path d="M30.7697 61.042C32.8142 61.042 34.4717 59.3865 34.4717 57.3442C34.4717 55.302 32.8142 53.6465 30.7697 53.6465C28.7251 53.6465 27.0676 55.302 27.0676 57.3442C27.0676 59.3865 28.7251 61.042 30.7697 61.042Z" fill="#9F616A"/>
<path d="M24.3976 69.9108C25.0522 67.3395 25.9562 63.8759 25.9562 63.8759C25.9562 63.8759 26.308 63.9477 26.8617 64.0287C27.6706 64.149 28.4857 64.223 29.303 64.2502C30.3492 64.2793 31.4505 64.2105 32.3025 63.9156C32.6237 63.8127 32.9237 63.6528 33.1881 63.4436C33.2995 63.354 33.3992 63.2508 33.4848 63.1365C34.9655 61.164 35.5819 68.6825 35.5819 68.6825L35.6966 69.9108L24.3976 69.9108Z" fill="#FA4659"/>
<path d="M36.2259 77.8553C36.177 77.8553 36.128 77.8568 36.0791 77.8599L36.1495 77.7285C36.1739 77.7698 36.1984 77.8125 36.2259 77.8553Z" fill="#FFB8B8"/>
<path d="M29.5159 51.9535C29.3667 51.9424 29.2173 51.9714 29.083 52.0373C28.9616 52.1259 28.8615 52.2404 28.7901 52.3726C28.461 52.8671 28.032 53.2874 27.5306 53.6065C27.1563 53.8443 26.6804 54.1408 26.7445 54.5792C26.7792 54.7262 26.8411 54.8654 26.9269 54.9898C27.2734 55.6004 27.4113 56.307 27.3198 57.0029L28.3489 55.5088C28.5123 55.2716 28.7961 55.0039 29.0427 55.1528C29.1253 55.2027 29.1796 55.2921 29.2655 55.3359C29.4707 55.4403 29.689 55.2407 29.8706 55.0993C30.4969 54.6117 31.3875 54.7394 32.1669 54.8914C32.5348 54.9631 32.9389 55.0572 33.1564 55.3621C33.5179 55.8689 33.1405 56.6012 33.3514 57.1867C33.4105 57.1454 33.4606 57.0927 33.4989 57.0317C33.5372 56.9707 33.5628 56.9026 33.5742 56.8315C33.8684 56.8406 34.2289 56.8117 34.355 56.546C34.3933 56.4419 34.4138 56.332 34.4154 56.2211C34.4617 55.7748 34.6801 55.3677 34.8248 54.9429C34.9695 54.5181 35.0324 54.0203 34.7882 53.6437C34.6989 53.5161 34.5911 53.4024 34.4683 53.3065C33.0827 52.1435 31.2608 51.9517 29.5159 51.9535Z" fill="#2F2E41"/>
<path d="M29.1654 63.9982C28.3211 63.0341 27.8194 61.6285 27.7964 61.5659V61.5644C27.7964 61.5644 26.4504 60.7943 26.0802 61.5338C25.7101 62.2733 22.2547 64.1219 21.8846 64.1219C21.8816 64.1233 21.8786 64.1243 21.8754 64.125C21.7286 64.1739 19.89 64.8415 19.4174 67.3273C19.289 68.1827 19.2205 69.046 19.2124 69.9109H29.2755C29.3796 68.8215 29.4576 67.8025 29.4882 66.9224C29.5325 65.6956 29.4897 64.7422 29.3031 64.2503C29.2732 64.1584 29.2266 64.073 29.1654 63.9982Z" fill="#2F2E41"/>
<path d="M37.8183 64.6927C37.8122 64.6637 37.8076 64.6392 37.803 64.6163C37.7866 64.5508 37.7586 64.4887 37.7204 64.433C37.7196 64.4316 37.7191 64.43 37.7189 64.4284C37.0061 63.3253 32.4219 61.8066 32.4219 61.8066L32.2506 62.3979C32.2506 62.3979 32.272 62.9815 32.3026 63.9166C32.3332 64.792 32.3699 65.9745 32.4051 67.2732C32.4296 68.1211 32.451 69.0195 32.4709 69.9117H39.328C38.9438 68.1399 38.4394 66.3962 37.8183 64.6927Z" fill="#2F2E41"/>
<path d="M101.975 69.9114L102.5 67.3508L102.988 67.1445L102.991 67.1461C103.035 67.1629 103.566 67.3875 103.566 68.2385C103.566 68.4096 103.54 69.0253 103.497 69.9114H101.975Z" fill="#575A89"/>
<path d="M96.4644 60.9668C98.8175 60.9668 100.725 59.0614 100.725 56.7109C100.725 54.3605 98.8175 52.4551 96.4644 52.4551C94.1112 52.4551 92.2036 54.3605 92.2036 56.7109C92.2036 59.0614 94.1112 60.9668 96.4644 60.9668Z" fill="#FFB8B8"/>
<path d="M99.1274 59.1934L98.7722 66.4636L93.2688 63.2719L93.9788 59.1934H99.1274Z" fill="#FFB8B8"/>
<path d="M100.725 66.8188L100.364 69.9111H97.4751L94.3394 63.893L93.4553 62.1986L93.0316 61.9221L93.5226 61.8105L93.9096 62.0901L98.2398 65.2237L98.9343 63.1413L98.9526 63.0878L99.127 62.5638L100.725 66.8188Z" fill="#FA4659"/>
<path d="M93.8902 52.544C93.8902 52.544 94.4227 49.8841 97.4408 50.416L97.0857 50.5934C97.0857 50.5934 99.9262 50.2387 99.5712 51.8347C99.5712 51.8347 101.879 53.2533 101.346 54.8492C101.033 55.7742 100.796 56.7231 100.636 57.6864L100.104 57.1545C100.104 57.1545 99.5712 53.6079 96.3756 53.9626C93.9789 54.2286 93.0025 55.359 92.7528 56.1736C92.6379 56.5567 92.4912 56.9294 92.3142 57.2881L92.1148 57.3318C92.1148 57.3318 91.0496 53.4306 93.8902 52.544Z" fill="#2F2E41"/>
<path d="M102.991 67.1457L102.988 67.1442L100.726 65.045V63.6272L98.9788 62.2521L98.9528 63.0878L98.7723 68.7698L95.8677 64.7791L93.9098 62.0902L93.558 61.6089L93.6436 61.1582L92.5592 62.385L88.6343 65.3261L88.2977 65.5782C87.9117 65.964 87.5558 66.3787 87.2332 66.8188C87.1276 66.9762 86.6473 68.229 86.0217 69.9111H103.497C103.54 69.025 103.566 68.4093 103.566 68.2381C103.566 67.3871 103.035 67.1625 102.991 67.1457Z" fill="#2F2E41"/>
<path d="M62.1758 52.0352C59.2885 52.0352 56.948 54.6297 56.948 57.8302V61.8964H58.2L58.9249 60.3898L58.7437 61.8964H66.7913L67.4502 60.5268L67.2855 61.8964H68.1916V58.7037C68.1916 55.0208 65.4982 52.0352 62.1758 52.0352Z" fill="#2F2E41"/>
<path d="M57.9567 69.912H54.5565L54.5244 67.1421C54.5228 67.1131 54.5228 67.0856 54.5228 67.0565L55.2035 66.2911L55.2157 66.2773L57.8145 67.9213L57.9567 69.912Z" fill="#D0CDE1"/>
<path d="M61.7134 61.3293C63.7688 61.3293 65.435 59.6649 65.435 57.6119C65.435 55.5589 63.7688 53.8945 61.7134 53.8945C59.6579 53.8945 57.9917 55.5589 57.9917 57.6119C57.9917 59.6649 59.6579 61.3293 61.7134 61.3293Z" fill="#FBBEBE"/>
<path d="M59.5795 59.8433C59.5795 59.8433 60.6712 65.4937 60.1749 66.0885C59.6787 66.6833 65.4349 64.9981 65.4349 64.9981C65.4349 64.9981 63.5492 61.132 64.5417 58.9512L59.5795 59.8433Z" fill="#FBBEBE"/>
<path d="M69.6764 63.6637H69.6749C69.5872 63.4785 69.4357 63.331 69.2481 63.2482C68.5185 62.9411 67.8899 62.7058 67.3729 62.527C66.4584 62.2135 65.4608 62.2445 64.5676 62.6141C64.4804 62.6493 64.3948 62.6875 64.3107 62.7302C64.3107 62.7302 60.6718 63.4224 60.2389 63.3353C60.2068 63.3292 60.1731 63.3246 60.141 63.3215C60.0756 63.3121 60.0097 63.3065 59.9437 63.3047C59.097 63.2654 58.2571 63.4736 57.5269 63.9036C56.3323 64.5957 54.5611 65.8226 54.5244 67.0173L54.4907 67.0555L54.5244 69.911H70.4963C70.5284 67.1747 70.5468 65.1182 70.5468 64.9792C70.5468 64.5468 69.6764 63.6637 69.6764 63.6637Z" fill="#FA4659"/>
<path d="M63.6619 53.6339C63.4104 53.2965 63.0843 53.0215 62.7092 52.8303C62.334 52.639 61.9198 52.5367 61.4986 52.5312H61.396C59.4171 52.5312 57.8129 54.3199 57.8129 56.5262V56.5263H58.4759L58.583 55.7121L58.74 56.5263H62.6727L63.0022 55.8375L62.9198 56.5263H63.6935C64.0545 58.3171 63.5358 60.108 62.1373 61.8988H63.4553L64.1142 60.5213L63.9495 61.8988H66.4618L66.956 58.7304C66.956 56.3575 65.5757 54.3454 63.6619 53.6339Z" fill="#2F2E41"/>
<path d="M64.3843 53.9663C65.4657 53.9663 66.3424 53.0906 66.3424 52.0105C66.3424 50.9303 65.4657 50.0547 64.3843 50.0547C63.3029 50.0547 62.4263 50.9303 62.4263 52.0105C62.4263 53.0906 63.3029 53.9663 64.3843 53.9663Z" fill="#2F2E41"/>
</svg>
