<svg width="115" height="84" viewBox="0 0 115 84" fill="none" xmlns="http://www.w3.org/2000/svg">
<g clip-path="url(#clip0)">
<path opacity="0.1" d="M114.295 38.4375L101.34 68.2989L96.9075 78.5149C95.4678 81.8315 92.065 83.9959 88.2873 83.9959H26.712C22.9344 83.9959 19.5336 81.8315 18.0919 78.5149L17.4738 77.0896L0.704065 38.4375C-1.07958 34.3252 0.625301 29.5971 4.6921 27.3821L8.7599 25.169L11.0869 23.9026L22.7539 17.5534L26.1517 15.7039L30.5326 13.32L35.5246 10.6033L39.0879 8.66541L47.7619 3.94329L49.7519 2.86258L52.7808 1.21371L52.8656 1.16901C54.2887 0.399283 55.8824 -0.00390625 57.5017 -0.00390625C59.121 -0.00390625 60.7147 0.399283 62.1378 1.16901L77.5396 9.55342L82.4827 12.2443L87.5555 15.0046L91.074 16.9187L99.2165 21.3478L105.737 24.8969L110.303 27.3801C114.374 29.5941 116.079 34.3252 114.295 38.4375Z" fill="#FA4659"/>
<path opacity="0.1" d="M31.9659 13.6538C31.5921 13.5645 31.0935 13.4552 30.5322 13.3241L35.5243 10.6074C38.297 11.3107 40.964 11.8272 42.5522 11.7328C42.5522 11.7328 43.0288 12.599 41.6808 12.599C40.3329 12.599 41.6399 13.8048 40.8074 13.8803C39.9749 13.9558 39.301 14.4445 38.627 13.8803C37.953 13.3161 37.5173 13.0142 36.6848 13.1264C35.8523 13.2387 34.7017 13.8416 34.3049 13.1264C33.9081 12.4112 34.1863 14.1803 31.9659 13.6538Z" fill="#FA4659"/>
<path opacity="0.1" d="M72.3347 10.2461C73.569 10.3186 75.4593 10.0226 77.5431 9.55078L82.4863 12.2416C80.7365 12.4512 80.9499 10.9702 80.582 11.6347C80.1832 12.3499 79.0346 11.747 78.2021 11.6347C77.3696 11.5225 76.9339 11.8224 76.2599 12.3886C75.586 12.9548 74.912 12.4631 74.0795 12.3886C73.247 12.3141 74.554 11.1073 73.2061 11.1073C71.8581 11.1073 72.3347 10.2461 72.3347 10.2461Z" fill="#FA4659"/>
<path opacity="0.1" d="M107.065 36.5891C108.413 36.5891 107.938 35.7219 107.938 35.7219C104.259 35.9414 94.7681 32.8722 91.6335 31.8173L91.2975 22.8091C93.0014 23.9295 95.5697 24.3984 96.7921 24.6963C99.0124 25.2228 98.7352 23.4527 99.1311 24.1689C99.5269 24.8851 100.677 24.2811 101.511 24.1689C102.344 24.0567 102.779 24.3566 103.453 24.9218C104.127 25.487 104.801 24.9963 105.634 24.9218C105.67 24.9194 105.707 24.9131 105.742 24.9029L99.2218 21.3539C95.9815 20.4858 92.7781 19.4428 91.153 18.8955L91.0792 16.9248L87.5608 15.0107L87.6395 19.2024C83.8329 20.455 75.6834 22.977 72.3354 22.7783C72.3354 22.7783 71.8589 23.6444 73.2068 23.6444C74.5548 23.6444 73.2477 24.8503 74.0802 24.9258C74.9127 25.0013 75.5867 25.491 76.2606 24.9258C76.9346 24.3606 77.3703 24.0596 78.2028 24.1729C79.0353 24.2861 80.1859 24.888 80.5827 24.1729C80.9795 23.4577 80.7013 25.2268 82.9217 24.7003C83.9865 24.447 86.0692 24.0557 87.7163 23.2193L87.8788 31.8918C84.5588 33.0043 75.3823 35.9434 71.7761 35.7289C71.7761 35.7289 71.3005 36.596 72.6485 36.596C73.9964 36.596 72.6884 37.8019 73.5209 37.8764C74.3534 37.9509 75.0273 38.4416 75.7013 37.8764C76.3753 37.3112 76.812 37.0102 77.6445 37.1235C78.477 37.2367 79.6266 37.8386 80.0234 37.1235C80.4202 36.4083 80.142 38.1773 82.3633 37.6509C83.6086 37.3529 86.2517 36.8692 87.9466 35.704L88.1211 44.9417C84.5707 46.1217 75.8299 48.8831 72.3304 48.6755C72.3304 48.6755 71.8539 49.5416 73.2018 49.5416C74.5498 49.5416 73.2517 50.7415 74.0792 50.821C74.9067 50.9005 75.5857 51.3852 76.2597 50.821C76.9336 50.2568 77.3693 49.9539 78.2018 50.0671C79.0343 50.1803 80.1849 50.7823 80.5817 50.0671C80.9785 49.3519 80.7003 51.121 82.9207 50.5945C84.0922 50.3164 86.4999 49.8694 88.1988 48.8463L88.5847 69.2307C84.5737 70.5329 80.7153 72.3755 76.5209 72.9387C69.5159 73.8794 62.3633 71.1508 55.3892 71.2203L54.8389 56.4709C56.4341 57.2129 58.3444 57.5744 59.3474 57.8128C61.5687 58.3393 61.2915 56.5702 61.6874 57.2854C62.0832 58.0005 63.2337 57.3976 64.0662 57.2854C64.8987 57.1731 65.3354 57.4731 66.0094 58.0393C66.6834 58.6055 67.3574 58.1138 68.1899 58.0393C69.0224 57.9648 67.7153 56.7579 69.0632 56.7579C70.4112 56.7579 69.9346 55.8918 69.9346 55.8918C66.6026 56.0904 58.5149 53.5943 54.6804 52.3368L54.3294 42.9263C56.0333 44.0845 58.6614 44.5672 59.9027 44.8622C62.1231 45.3887 61.8459 43.6196 62.2417 44.3348C62.6375 45.05 63.7891 44.447 64.6216 44.3348C65.4541 44.2225 65.8898 44.5225 66.5637 45.0887C67.2377 45.6549 67.9117 45.1622 68.7452 45.0887C69.5787 45.0152 68.2696 43.8073 69.6176 43.8073C70.9655 43.8073 70.489 42.9412 70.489 42.9412C66.808 43.1597 57.3205 40.0904 54.1859 39.0356L53.8489 30.0274C55.5538 31.1478 58.1221 31.6166 59.3434 31.9146C61.5647 32.4411 61.2876 30.671 61.6834 31.3872C62.0792 32.1033 63.2297 31.4994 64.0622 31.3872C64.8947 31.2749 65.3314 31.5749 66.0054 32.1401C66.6794 32.7053 67.3534 32.2146 68.1859 32.1401C69.0184 32.0656 67.7113 30.8597 69.0592 30.8597C70.4072 30.8597 69.9306 29.9936 69.9306 29.9936C66.2826 30.2081 56.9177 27.1885 53.7103 26.1078L53.3753 17.1453C55.0363 18.524 58.0064 19.0644 59.3494 19.3832C61.5707 19.9097 61.2935 18.1406 61.6894 18.8558C62.0852 19.5709 63.2357 18.968 64.0682 18.8558C64.9007 18.7435 65.3374 19.0435 66.0114 19.6097C66.6854 20.1759 67.3593 19.6842 68.1919 19.6097C69.0244 19.5352 67.7173 18.3283 69.0652 18.3283C70.4132 18.3283 69.9366 17.4622 69.9366 17.4622C66.0832 17.6916 55.8678 14.3174 53.2367 13.4224L53.0273 7.78549C54.6475 8.57218 56.6405 8.94765 57.6734 9.19299C59.8937 9.71944 59.6166 7.94939 60.0124 8.66555C60.4082 9.38172 61.5597 8.77779 62.3922 8.66555C63.2248 8.55331 63.6604 8.85328 64.3344 9.41847C65.0084 9.98365 65.6824 9.49297 66.5149 9.41847C67.3474 9.34397 66.0403 8.13712 67.3883 8.13712C68.7362 8.13712 68.2596 7.27096 68.2596 7.27096C64.8868 7.46962 56.6435 4.91388 52.8728 3.67126L52.7811 1.21484L49.7512 2.86471L49.7591 3.28586C49.2746 3.44976 48.5896 3.68318 47.7651 3.94541L39.0911 8.66754C39.9236 8.78077 41.0702 9.38072 41.466 8.66754C41.8618 7.95435 41.5847 9.72142 43.806 9.19498C45.1619 8.87216 48.1799 8.32386 49.8309 6.9104L49.9645 13.9628C46.0622 15.2432 38.1719 17.6648 34.8907 17.4661C34.8907 17.4661 34.4152 18.3323 35.7631 18.3323C37.1111 18.3323 35.803 19.5382 36.6355 19.6137C37.468 19.6891 38.143 20.1778 38.817 19.6137C39.4909 19.0495 39.9266 18.7475 40.7591 18.8597C41.5916 18.972 42.7422 19.5749 43.139 18.8597C43.5358 18.1446 43.2576 19.9136 45.478 19.3872C46.4919 19.1468 48.4321 18.7793 50.0373 18.0224L50.1958 26.4187C46.3892 27.6713 38.2397 30.1932 34.8907 29.9946C34.8907 29.9946 34.4152 30.8607 35.7631 30.8607C37.1111 30.8607 35.803 32.0666 36.6355 32.1411C37.468 32.2156 38.143 32.7063 38.817 32.1411C39.4909 31.5759 39.9266 31.2749 40.7591 31.3882C41.5916 31.5014 42.7422 32.1033 43.139 31.3882C43.5358 30.673 43.2576 32.4421 45.478 31.9156C46.5418 31.6633 48.6255 31.271 50.2716 30.4346L50.4351 39.1071C47.1141 40.2126 37.9376 43.1548 34.3324 42.9412C34.3324 42.9412 33.8558 43.8073 35.2038 43.8073C36.5517 43.8073 35.2447 45.0132 36.0772 45.0887C36.9097 45.1642 37.5837 45.6529 38.2576 45.0887C38.9316 44.5245 39.3673 44.2225 40.1998 44.3348C41.0323 44.447 42.1829 45.05 42.5797 44.3348C42.9765 43.6196 42.6983 45.3887 44.9196 44.8622C46.1639 44.5642 48.808 44.0805 50.5079 42.9154L50.6824 52.158C47.13 53.339 38.3912 56.0994 34.8907 55.8918C34.8907 55.8918 34.4152 56.7579 35.7631 56.7579C37.1111 56.7579 35.803 57.9638 36.6355 58.0393C37.468 58.1148 38.143 58.6035 38.817 58.0393C39.4909 57.4751 39.9266 57.1731 40.7591 57.2854C41.5916 57.3976 42.7422 58.0005 43.139 57.2854C43.5358 56.5702 43.2576 58.3393 45.478 57.8128C46.6495 57.5347 49.0572 57.0877 50.7561 56.0646L51.0552 71.6881L50.9286 71.716C48.1021 72.3586 45.485 73.6867 42.6435 74.2379C38.0074 75.1408 33.0343 73.9618 28.3164 73.7751L27.456 50.7415C29.0512 51.4835 30.9615 51.8451 31.9655 52.0835C34.1858 52.6099 33.9087 50.8409 34.3045 51.556C34.7003 52.2712 35.8509 51.6683 36.6844 51.556C37.5179 51.4438 37.9525 51.7438 38.6265 52.3099C39.3005 52.8761 39.9745 52.3844 40.807 52.3099C41.6395 52.2354 40.3324 51.0286 41.6804 51.0286C43.0283 51.0286 42.5518 50.1624 42.5518 50.1624C39.2197 50.3611 31.132 47.865 27.3025 46.6074L26.9515 37.197C28.6544 38.3551 31.2835 38.8379 32.5238 39.1329C34.7452 39.6593 34.468 37.8903 34.8628 38.6055C35.2576 39.3206 36.4102 38.7177 37.2427 38.6055C38.0752 38.4932 38.5119 38.7932 39.1858 39.3594C39.8598 39.9255 40.5338 39.4329 41.3663 39.3594C42.1988 39.2859 40.8907 38.078 42.2387 38.078C43.5866 38.078 43.1111 37.2119 43.1111 37.2119C39.4291 37.4304 29.9416 34.3611 26.807 33.3062L26.47 24.298C28.1749 25.4195 30.7432 25.8873 31.9655 26.1853C34.1858 26.7117 33.9087 24.9417 34.3045 25.6579C34.7003 26.374 35.8509 25.7701 36.6844 25.6579C37.5179 25.5456 37.9575 25.8396 38.6265 26.4058C39.2955 26.972 39.9745 26.4793 40.807 26.4058C41.6395 26.3323 40.3324 25.1245 41.6804 25.1245C43.0283 25.1245 42.5518 24.2583 42.5518 24.2583C38.8997 24.4758 29.5338 21.4562 26.3254 20.3775L26.1509 15.709L22.7531 17.5555L22.812 20.6844C20.0313 21.6002 14.9356 23.1915 11.0831 23.9047L8.75612 25.1711C9.44605 25.3956 8.51883 26.3383 9.25462 26.4058C10.0871 26.4793 10.7611 26.97 11.4351 26.4058C12.1091 25.8416 12.5448 25.5387 13.3773 25.6519C14.2098 25.7651 15.3603 26.3671 15.7571 25.6519C16.1539 24.9367 15.8758 26.7058 18.0961 26.1793C19.1609 25.927 21.2437 25.5347 22.8907 24.6983L23.0532 33.3708C19.7332 34.4833 10.5567 37.4234 6.95054 37.2089C6.95054 37.2089 6.47496 38.075 7.82292 38.075C9.17088 38.075 7.8628 39.2809 8.6953 39.3564C9.5278 39.4319 10.2018 39.9206 10.8758 39.3564C11.5497 38.7922 11.9864 38.4902 12.8189 38.6025C13.6514 38.7147 14.801 39.3177 15.1978 38.6025C15.5946 37.8873 15.3164 39.6564 17.5378 39.1299C18.783 38.8319 21.4261 38.3482 23.126 37.1831L23.3015 46.4257C19.7511 47.6067 11.0104 50.3671 7.51085 50.1595C7.51085 50.1595 7.03428 51.0256 8.38224 51.0256C9.7302 51.0256 8.42212 52.2315 9.25562 52.307C10.0891 52.3825 10.7621 52.8712 11.4361 52.307C12.1101 51.7428 12.5458 51.4408 13.3783 51.5531C14.2108 51.6653 15.3613 52.2682 15.7581 51.5531C16.1549 50.8379 15.8768 52.6069 18.0971 52.0805C19.2686 51.8024 21.6764 51.3554 23.3753 50.3323L23.8229 74.0125C22.6246 74.2119 21.4608 74.5798 20.3663 75.1051C19.3118 75.6255 18.338 76.2946 17.475 77.0917L18.0931 78.5171C19.5328 81.8337 22.9356 83.9981 26.7133 83.9981H88.2866C92.0642 83.9981 95.465 81.8337 96.9067 78.5171L101.339 68.301C98.5882 67.741 95.7581 67.6811 92.9855 68.1242V68.1242L92.2876 49.2516C93.8828 49.9936 95.7931 50.3542 96.797 50.5935C99.0174 51.12 98.7402 49.3499 99.136 50.0661C99.5318 50.7823 100.682 50.1783 101.516 50.0661C102.349 49.9539 102.784 50.2538 103.458 50.82C104.132 51.3862 104.806 50.8935 105.639 50.82C106.471 50.7465 105.164 49.5387 106.512 49.5387C107.86 49.5387 107.383 48.6725 107.383 48.6725C104.051 48.8712 95.9636 46.375 92.134 45.1175L91.7831 35.707C93.486 36.8642 96.1151 37.3479 97.3554 37.643C99.5767 38.1694 99.2995 36.3993 99.6944 37.1155C100.089 37.8317 101.242 37.2278 102.074 37.1155C102.907 37.0033 103.343 37.3032 104.017 37.8684C104.691 38.4336 105.365 37.9429 106.198 37.8684C107.03 37.7939 105.717 36.5891 107.065 36.5891Z" fill="#FA4659"/>
<path d="M89.4407 18.2734C90.1147 22.6995 88.2443 26.6538 88.2443 26.6538C88.2443 26.6538 85.2762 23.4316 84.6022 19.0054C83.9282 14.5793 85.8036 10.625 85.8036 10.625C85.8036 10.625 88.7667 13.8473 89.4407 18.2734Z" fill="#FA4659"/>
<path d="M101.973 25.3285C104.419 25.3017 106.416 26.6079 106.416 26.6079C106.416 26.6079 104.448 27.9578 102.002 27.9846C99.5566 28.0114 97.5596 26.7042 97.5596 26.7042C97.5596 26.7042 99.5277 25.3544 101.973 25.3285Z" fill="#FA4659"/>
<path d="M95.0956 18.6001C92.8194 21.0923 92.3379 24.3493 92.3379 24.3493C92.3379 24.3493 95.5463 23.5646 97.8214 21.0715C100.097 18.5783 100.579 15.3223 100.579 15.3223C100.579 15.3223 97.3718 16.107 95.0956 18.6001Z" fill="#FA4659"/>
<path d="M98.344 21.8203H31.9173C31.0159 21.8203 30.2852 22.5483 30.2852 23.4463V82.3746C30.2852 83.2726 31.0159 84.0006 31.9173 84.0006H98.344C99.2453 84.0006 99.9761 83.2726 99.9761 82.3746V23.4463C99.9761 22.5483 99.2453 21.8203 98.344 21.8203Z" fill="#464353"/>
<g opacity="0.1">
<path opacity="0.1" d="M91.9816 54.0729L90.2288 54.9132L76.0713 61.7133L74.822 62.3093C74.7364 62.3496 74.6434 62.3722 74.5487 62.3756C74.4541 62.379 74.3597 62.3632 74.2713 62.3291C74.183 62.295 74.1026 62.2433 74.0349 62.1772C73.9673 62.1112 73.9138 62.0321 73.8779 61.9447C73.8447 61.863 73.8278 61.7756 73.828 61.6875V57.6706C73.828 57.4871 73.7552 57.3109 73.6254 57.1807C73.4956 57.0504 73.3193 56.9766 73.1351 56.9753H38.5788C38.3945 56.9753 38.2178 56.9027 38.087 56.7734C37.9563 56.6441 37.8822 56.4685 37.8809 56.285V50.6133C37.8809 50.4288 37.9544 50.252 38.0853 50.1216C38.2162 49.9912 38.3937 49.9179 38.5788 49.9179H73.1351C73.3185 49.9166 73.494 49.8435 73.6236 49.7143C73.7533 49.5851 73.8267 49.4103 73.828 49.2276V45.1213C73.8278 45.0332 73.8447 44.9458 73.8779 44.8641C73.914 44.7767 73.9677 44.6975 74.0355 44.6315C74.1034 44.5654 74.1841 44.5139 74.2726 44.4799C74.3612 44.446 74.4558 44.4304 74.5506 44.4341C74.6454 44.4378 74.7384 44.4608 74.824 44.5015L76.0713 45.1064L90.2288 51.978L91.9846 52.8273C92.1008 52.8851 92.1986 52.9742 92.2668 53.0844C92.335 53.1946 92.371 53.3216 92.3707 53.451C92.3703 53.5805 92.3338 53.7073 92.265 53.8172C92.1963 53.927 92.0981 54.0156 91.9816 54.0729Z" fill="black"/>
</g>
<path d="M91.9816 53.5768L90.2288 54.4172L76.0713 61.2173L74.822 61.8132C74.7364 61.8536 74.6434 61.8762 74.5487 61.8796C74.4541 61.883 74.3597 61.8672 74.2713 61.8331C74.183 61.799 74.1026 61.7473 74.0349 61.6812C73.9673 61.6151 73.9138 61.536 73.8779 61.4487C73.8447 61.367 73.8278 61.2796 73.828 61.1914V57.1745C73.828 56.991 73.7552 56.8149 73.6254 56.6846C73.4956 56.5544 73.3193 56.4805 73.1351 56.4792H38.5788C38.3945 56.4792 38.2178 56.4067 38.087 56.2773C37.9563 56.148 37.8822 55.9724 37.8809 55.7889V50.1172C37.8809 49.9328 37.9544 49.7559 38.0853 49.6255C38.2162 49.4951 38.3937 49.4219 38.5788 49.4219H73.1351C73.3185 49.4206 73.494 49.3474 73.6236 49.2182C73.7533 49.0891 73.8267 48.9142 73.828 48.7315V44.6252C73.8278 44.5371 73.8447 44.4497 73.8779 44.368C73.914 44.2806 73.9677 44.2014 74.0355 44.1354C74.1034 44.0693 74.1841 44.0178 74.2726 43.9838C74.3612 43.9499 74.4558 43.9343 74.5506 43.938C74.6454 43.9417 74.7384 43.9647 74.824 44.0054L76.0713 44.6103L90.2288 51.482L91.9846 52.3312C92.1008 52.3891 92.1986 52.4781 92.2668 52.5883C92.335 52.6985 92.371 52.8255 92.3707 52.955C92.3703 53.0844 92.3338 53.2112 92.265 53.3211C92.1963 53.431 92.0981 53.5195 91.9816 53.5768V53.5768Z" fill="#FA4659"/>
<path d="M17.4314 67.1438C17.4653 67.9742 16.9329 68.7103 16.4344 69.3718C16.2078 69.6818 16.0029 70.0071 15.8212 70.3452C15.2728 71.3186 14.0944 71.7815 13.4563 72.6993C13.3018 72.9218 13.1821 73.1662 13.0475 73.4016C12.5853 74.2111 12.0046 74.9476 11.3247 75.5868L10.1712 76.6636C9.84314 76.9695 9.50814 77.2844 9.31372 77.6886C9.09139 78.1545 9.07943 78.6819 9.09239 79.2034C9.09239 79.261 9.09239 79.3176 9.09239 79.3743C9.09239 79.414 9.09239 79.4527 9.09239 79.4925C9.11233 80.1232 9.14124 80.7569 9.29179 81.3678C9.34164 81.5665 9.40345 81.7751 9.32569 81.9638C9.24294 82.1624 9.02659 82.2727 8.81622 82.3422C8.59089 82.4167 8.34363 82.4674 8.11831 82.3889C7.89299 82.3104 7.73745 82.1167 7.59887 81.926C6.92589 81.0023 6.65271 79.862 6.25191 78.7922C6.16816 78.5697 6.25789 78.3154 6.40545 78.1297C6.56559 77.9541 6.74183 77.7938 6.93187 77.6509C7.72948 76.9556 8.09737 75.9126 8.40246 74.9054C8.70754 73.8982 9.00066 72.8443 9.69358 72.0537C10.1442 71.5401 10.7355 71.1726 11.238 70.7098C12.4892 69.5555 13.1143 67.8709 13.4413 66.2022C13.8264 66.1307 14.221 66.1256 14.6078 66.1873L16.6647 66.4594C16.887 66.4892 17.1303 66.53 17.2748 66.6998C17.3742 66.8268 17.4292 66.9828 17.4314 67.1438V67.1438Z" fill="#EFB7B9"/>
<path d="M26.2105 68.8368C26.1671 69.1465 26.0573 69.4433 25.8885 69.7069C25.6389 70.0866 25.3567 70.4439 25.045 70.7747C24.2593 71.6687 24.1267 72.952 23.6262 74.0337C23.4637 74.3854 23.2623 74.7171 23.0978 75.0668C22.6661 75.9866 22.5076 76.9987 22.4139 78.0159C22.4019 78.147 22.3909 78.2781 22.381 78.4082C22.367 78.5701 22.3561 78.732 22.3441 78.8929C22.3132 79.3191 22.2863 79.767 22.4667 80.1544C22.5594 80.3531 22.711 80.518 22.717 80.7375C22.4079 81.0355 21.8775 81.0017 21.5206 80.7594C21.1636 80.517 20.9413 80.1236 20.7608 79.7313C20.4294 79.012 20.1899 78.2542 20.048 77.4755C19.9931 77.1775 19.9682 76.8329 20.1806 76.6183C20.2873 76.511 20.4358 76.4574 20.5555 76.364C20.8177 76.1594 20.8934 75.8018 20.9543 75.47C21.1537 74.3443 21.3554 73.2186 21.5594 72.0928C21.6043 71.8175 21.6632 71.5447 21.7359 71.2754C21.9064 70.6804 22.1656 70.0119 22.6562 69.6146C22.7193 69.5563 22.7666 69.4829 22.7937 69.4015C22.8207 69.32 22.8266 69.233 22.8107 69.1487C22.7762 68.9809 22.7113 68.8206 22.6193 68.6759C22.2534 68.0243 21.8167 67.3707 21.1586 67.0131C21.8416 66.4436 22.6203 65.9991 23.4587 65.7C23.6066 65.6315 23.7701 65.6038 23.9323 65.6195C24.019 65.6389 24.1019 65.6725 24.1776 65.7189C24.6292 65.9712 24.9752 66.3685 25.3062 66.7658C25.7997 67.3638 26.2933 68.067 26.2105 68.8368Z" fill="#EFB7B9"/>
<path d="M10.2057 82.1393C10.0012 81.9467 9.76517 81.7905 9.50774 81.6774C9.44965 81.6437 9.38514 81.6223 9.31831 81.6148C9.15779 81.6069 9.03716 81.7509 8.89957 81.8343C8.78706 81.8945 8.66136 81.926 8.53367 81.926C8.40598 81.926 8.28027 81.8945 8.16776 81.8343C7.94427 81.7102 7.7565 81.531 7.6224 81.3139C7.32928 80.8828 7.27145 80.4527 7.14982 79.9799L8.42798 79.7395C8.66081 79.686 8.88545 79.6018 9.09598 79.4892C9.09598 79.4494 9.09598 79.4107 9.09598 79.371C9.09598 79.3144 9.09598 79.2577 9.09598 79.2001C8.85969 79.2707 8.35819 79.4981 8.23955 79.5289C7.85459 79.6162 7.46423 79.678 7.07105 79.7137C7.01024 79.5935 6.9225 79.4892 6.85171 79.371C6.70861 79.1335 6.61787 78.8684 6.58551 78.5932C6.58237 78.4846 6.56115 78.3771 6.5227 78.2754C6.50201 78.2229 6.46426 78.1788 6.41546 78.1501C6.36666 78.1215 6.30964 78.11 6.25351 78.1174C6.21206 78.129 6.17317 78.1482 6.13885 78.1741C5.78122 78.4203 5.50392 78.7657 5.34124 79.1674C5.10096 79.7633 5.13586 80.4328 5.04214 81.0695C4.97036 81.5463 4.8228 82.0191 4.84872 82.5008C4.84687 82.5149 4.84807 82.5292 4.85224 82.5428C4.85641 82.5564 4.86346 82.569 4.87291 82.5796C4.88236 82.5902 4.89399 82.5987 4.90702 82.6045C4.92004 82.6103 4.93416 82.6132 4.94842 82.6131C5.21462 82.6717 5.52071 82.7223 5.73706 82.5575C5.95341 82.3926 5.98431 82.0807 6.02619 81.8095C6.08242 81.4476 6.19265 81.096 6.35321 80.7666C6.68357 81.1695 6.85671 81.6778 6.84075 82.1979C6.84075 82.485 6.80485 82.8108 7.00226 83.0203C7.09913 83.1133 7.21715 83.1814 7.34623 83.219C7.60857 83.3104 7.88108 83.3698 8.15779 83.3958C8.6563 83.4435 9.16378 83.3809 9.66328 83.3183C9.8208 83.2985 9.97933 83.2786 10.1359 83.2438C10.2156 83.2316 10.2913 83.2002 10.3562 83.1524C10.4283 83.0869 10.4743 82.9977 10.4858 82.9011C10.501 82.7612 10.4836 82.6197 10.435 82.4876C10.3865 82.3555 10.308 82.2363 10.2057 82.1393V82.1393Z" fill="#464353"/>
<path d="M23.3939 80.5407C23.272 80.4308 23.1342 80.3397 22.9851 80.2706C22.8642 80.1961 22.7278 80.1502 22.5863 80.1365C22.4238 80.1365 22.2752 80.2159 22.1247 80.2775C21.9741 80.3391 21.7977 80.3769 21.6561 80.2974C21.5448 80.2159 21.4633 80.1004 21.4238 79.9686C21.2443 79.5415 21.1087 79.0965 20.9522 78.6614C20.989 78.6037 21.0431 78.5589 21.1067 78.5333C21.156 78.5194 21.2071 78.5134 21.2583 78.5154C21.4577 78.5154 22.0639 78.5154 22.3859 78.4042C22.3959 78.2741 22.4068 78.1429 22.4188 78.0118C22.1695 77.9602 21.7418 78.0496 21.6292 78.0804C21.4447 78.127 21.2563 78.1956 21.0698 78.1559C20.9402 78.129 20.8176 78.0506 20.691 78.0337C20.6312 77.9234 20.5663 77.8171 20.5045 77.7089C20.347 77.4307 20.2982 77.1069 20.1446 76.8378C20.1216 76.791 20.0866 76.751 20.0432 76.7219C19.9998 76.6928 19.9495 76.6756 19.8974 76.6719C19.7856 76.688 19.6846 76.7472 19.6162 76.8368C19.362 77.094 19.1007 77.3602 18.9552 77.691C18.893 77.8405 18.8449 77.9955 18.8116 78.1539C18.6021 79.043 18.5017 79.9543 18.5125 80.8675C18.7442 80.9411 18.989 80.9641 19.2304 80.9351C19.354 80.3206 19.5052 79.7123 19.684 79.1104C19.6881 79.0878 19.7005 79.0676 19.7189 79.0538C19.7578 79.0329 19.7986 79.0756 19.8186 79.1134C20.0363 79.4362 20.2125 79.7849 20.343 80.1514C20.4238 80.4126 20.4607 80.6957 20.6132 80.9232C20.7764 81.1468 21.0131 81.3064 21.2822 81.3741C21.5494 81.4406 21.8234 81.4759 22.0987 81.4794L22.5075 81.4993C22.7288 81.5251 22.953 81.5076 23.1675 81.4476C23.3769 81.3751 23.5663 81.1973 23.5823 80.9768C23.5837 80.895 23.5676 80.8138 23.5351 80.7386C23.5026 80.6634 23.4545 80.596 23.3939 80.5407V80.5407Z" fill="#464353"/>
<path d="M25.3109 66.4439C25.1434 66.6148 24.8971 66.6793 24.6638 66.7359L23.9549 66.9078C23.9158 66.912 23.8779 66.9242 23.8436 66.9435C23.8094 66.9628 23.7794 66.9888 23.7555 67.02C23.7146 67.0935 23.7436 67.1859 23.7236 67.2674C23.7158 67.2996 23.7004 67.3296 23.6788 67.3548C23.5787 67.4437 23.4478 67.4904 23.3138 67.4849C23.197 67.4802 23.0803 67.4974 22.9699 67.5355C22.9235 67.5556 22.8835 67.5879 22.8542 67.6289C22.8183 67.6806 22.8034 67.7441 22.7655 67.7938C22.7009 67.8631 22.6143 67.9081 22.5202 67.9209C22.4217 67.9432 22.3218 67.9585 22.2211 67.9666C21.8264 67.9992 21.4302 67.9248 21.0746 67.7511C20.9907 67.6935 20.8884 67.6691 20.7874 67.6826C20.7283 67.7035 20.678 67.7437 20.6449 67.7968C20.6084 67.8533 20.5688 67.9076 20.5262 67.9597C20.3428 68.1583 20.0277 68.1047 19.7635 68.0491C19.601 68.0143 19.4375 67.9845 19.274 67.9577C18.2969 67.7988 17.3009 67.767 16.3059 67.7382C15.0197 67.6994 13.7336 67.6647 12.4883 67.3617C12.2171 67.2962 11.8901 67.1412 11.9031 66.8651C11.9121 66.7071 12.0377 66.5671 12.0367 66.4121C12.0367 66.142 11.7047 65.9969 11.4385 65.9522C11.5382 64.4762 12.4245 63.1839 12.8881 61.7804C13.0038 61.4318 13.0875 61.0742 13.2181 60.7295C13.7824 59.176 15.0217 57.984 16.0526 56.6908C16.2104 56.5093 16.3401 56.3054 16.4375 56.0858C16.526 55.8222 16.5721 55.5463 16.5741 55.2684L16.6309 54.2959C18.1593 54.2244 19.6439 54.2532 21.1394 54.575C21.1797 54.5738 21.2199 54.5806 21.2577 54.595C21.2954 54.6093 21.3299 54.631 21.3592 54.6587C21.3884 54.6864 21.4119 54.7196 21.4283 54.7564C21.4446 54.7932 21.4535 54.8328 21.4544 54.873C21.5123 55.2286 21.5528 55.5859 21.5761 55.9448C21.5768 56.0241 21.5882 56.1029 21.61 56.1792C21.6492 56.2756 21.7037 56.3652 21.7715 56.4444C22.6369 57.5748 23.1673 58.9277 23.586 60.2825C24.0048 61.6374 24.3378 63.03 24.8642 64.355C25.0457 64.8119 25.2829 65.3255 25.3308 65.8152C25.5202 65.9552 25.4784 66.2721 25.3109 66.4439Z" fill="#464353"/>
<path opacity="0.1" d="M19.2747 67.958C18.2977 67.799 17.3017 67.7673 16.3066 67.7385C16.3339 66.8246 16.3615 65.9108 16.3894 64.997C16.4083 64.3891 16.4263 63.7802 16.4991 63.1772C16.5988 62.319 16.8121 61.4777 16.9178 60.6205C16.9778 60.1295 17.0054 59.6351 17.0006 59.1405C16.9956 58.6369 16.9597 58.1303 17.0424 57.6337C17.1102 57.2254 17.2897 56.6473 17.6686 56.4238C17.9218 56.7695 17.533 57.735 17.4871 58.1482C17.3934 59.0084 17.6267 59.8656 17.8271 60.7069C18.0684 61.7171 18.2658 62.7372 18.4622 63.7573C18.7334 65.1572 19.0042 66.5574 19.2747 67.958Z" fill="black"/>
<path opacity="0.1" d="M22.2219 67.9675C21.8272 68.0001 21.431 67.9256 21.0754 67.7519C20.9915 67.6943 20.8892 67.6699 20.7882 67.6834C20.7291 67.7043 20.6788 67.7446 20.6457 67.7976C20.3087 66.2034 20.3266 64.5446 20.0604 62.9305C19.9607 62.3564 19.8331 61.7703 19.9448 61.1992C20.0644 60.5893 20.4502 60.0599 20.6008 59.4569C20.7005 59.0596 20.6925 58.6494 20.6855 58.2431C20.6786 57.8369 20.5589 57.5637 20.4253 57.2012C20.7803 57.2598 21.0694 57.6064 21.212 57.9193C21.3864 58.3007 21.4193 58.7289 21.4423 59.148C21.4981 60.1602 21.5071 61.1733 21.4921 62.1865C21.4728 62.6592 21.4835 63.1326 21.524 63.6039C21.5759 64.0678 21.6905 64.5237 21.7284 64.9886C21.7723 65.5468 21.7065 66.118 21.8431 66.6613C21.9527 67.0993 22.191 67.5364 22.2219 67.9675Z" fill="black"/>
<path opacity="0.1" d="M23.6768 67.3548C23.5767 67.4437 23.4459 67.4904 23.3119 67.4849C23.1951 67.4802 23.0784 67.4974 22.9679 67.5356C22.7685 66.3237 22.5714 65.1126 22.3767 63.9021C22.2947 63.4563 22.2375 63.0063 22.2052 62.5542C22.1793 62.0307 22.2202 61.5063 22.1833 60.9838C22.1384 60.3411 21.9769 59.7153 21.8224 59.0965C21.7306 58.726 21.3099 57.6215 21.5452 57.3086C21.9121 57.545 22.1354 58.0506 22.26 58.4539C22.3886 58.9201 22.4705 59.3979 22.5043 59.8802L22.7855 62.6833C22.941 64.2338 23.1015 65.8042 23.6449 67.2664C23.6559 67.2962 23.6668 67.33 23.6768 67.3548Z" fill="black"/>
<path d="M26.7643 50.1566C27.0275 49.9351 27.2907 49.7126 27.532 49.4683C27.8725 49.1088 28.187 48.7257 28.4732 48.322C28.7783 47.9078 29.0814 47.4837 29.2708 47.0049C29.4851 46.4566 29.5509 45.8328 29.9238 45.3779C29.966 45.3188 30.0245 45.2732 30.0923 45.2468C30.3047 45.1802 30.4632 45.4454 30.5041 45.6649C30.7035 46.7397 30.2279 47.8124 29.7653 48.8037C29.6128 49.1305 29.4532 49.4663 29.189 49.7136C29.0495 49.8437 28.8899 49.944 28.7354 50.0603C28.5018 50.2494 28.2868 50.4603 28.0933 50.69C27.761 51.0661 27.4449 51.4558 27.1452 51.8591C26.7733 52.3558 26.4243 52.8763 25.9837 53.3143C25.543 53.7523 24.9916 54.1089 24.3745 54.1954C24.551 54.1715 24.4931 53.1395 24.4742 53.0094C24.4473 52.8206 24.3177 52.5981 24.3137 52.4134C24.3087 52.1869 24.4014 52.1541 24.5888 51.9952L26.7643 50.1566Z" fill="#EFB7B9"/>
<path opacity="0.1" d="M26.7643 50.1566C27.0275 49.9351 27.2907 49.7126 27.532 49.4683C27.8725 49.1088 28.187 48.7257 28.4732 48.322C28.7783 47.9078 29.0814 47.4837 29.2708 47.0049C29.4851 46.4566 29.5509 45.8328 29.9238 45.3779C29.966 45.3188 30.0245 45.2732 30.0923 45.2468C30.3047 45.1802 30.4632 45.4454 30.5041 45.6649C30.7035 46.7397 30.2279 47.8124 29.7653 48.8037C29.6128 49.1305 29.4532 49.4663 29.189 49.7136C29.0495 49.8437 28.8899 49.944 28.7354 50.0603C28.5018 50.2494 28.2868 50.4603 28.0933 50.69C27.761 51.0661 27.4449 51.4558 27.1452 51.8591C26.7733 52.3558 26.4243 52.8763 25.9837 53.3143C25.543 53.7523 24.9916 54.1089 24.3745 54.1954C24.551 54.1715 24.4931 53.1395 24.4742 53.0094C24.4473 52.8206 24.3177 52.5981 24.3137 52.4134C24.3087 52.1869 24.4014 52.1541 24.5888 51.9952L26.7643 50.1566Z" fill="black"/>
<path d="M19.364 43.6562C19.364 43.6562 18.7658 46.6361 18.0679 47.1328C17.37 47.6294 21.8565 48.2254 21.8565 48.2254C21.8565 48.2254 21.9562 45.8415 23.1526 44.7489C24.349 43.6562 19.364 43.6562 19.364 43.6562Z" fill="#EFB7B9"/>
<path d="M18.1739 46.8405C17.878 46.8808 17.6064 47.0253 17.4082 47.2478C16.9376 47.7524 16.8439 48.5202 17.0094 49.1897C17.1749 49.8592 17.5547 50.4522 17.9496 51.0174C18.464 51.7544 19.0174 52.4805 19.7322 53.0278C20.1189 53.3068 20.5203 53.5651 20.9346 53.8016C21.6231 54.224 22.2847 54.6885 22.9157 55.1922C23.054 55.317 23.2124 55.4177 23.3842 55.4902C23.5322 55.5363 23.687 55.5565 23.8419 55.5498C24.3653 55.5441 24.8812 55.4244 25.3533 55.1991C25.3976 55.1821 25.4367 55.154 25.467 55.1177C25.4846 55.0796 25.4941 55.0384 25.495 54.9965C25.4959 54.9546 25.488 54.913 25.472 54.8743C25.1908 53.742 25.7332 52.4576 25.1948 51.4226C24.6096 51.6123 23.9675 51.8199 23.3822 52.0047C23.2925 52.041 23.1958 52.0573 23.0991 52.0524C22.9832 52.0284 22.877 51.9706 22.794 51.8865C22.1599 51.3402 21.7601 50.5793 21.3982 49.8274C21.0363 49.0755 20.6814 48.2997 20.1111 47.6878C19.5408 47.076 19.0074 46.7521 18.1739 46.8405Z" fill="#FA4659"/>
<path opacity="0.1" d="M18.1739 46.8405C17.878 46.8808 17.6064 47.0253 17.4082 47.2478C16.9376 47.7524 16.8439 48.5202 17.0094 49.1897C17.1749 49.8592 17.5547 50.4522 17.9496 51.0174C18.464 51.7544 19.0174 52.4805 19.7322 53.0278C20.1189 53.3068 20.5203 53.5651 20.9346 53.8016C21.6231 54.224 22.2847 54.6885 22.9157 55.1922C23.054 55.317 23.2124 55.4177 23.3842 55.4902C23.5322 55.5363 23.687 55.5565 23.8419 55.5498C24.3653 55.5441 24.8812 55.4244 25.3533 55.1991C25.3976 55.1821 25.4367 55.154 25.467 55.1177C25.4846 55.0796 25.4941 55.0384 25.495 54.9965C25.4959 54.9546 25.488 54.913 25.472 54.8743C25.1908 53.742 25.7332 52.4576 25.1948 51.4226C24.6096 51.6123 23.9675 51.8199 23.3822 52.0047C23.2925 52.041 23.1958 52.0573 23.0991 52.0524C22.9832 52.0284 22.877 51.9706 22.794 51.8865C22.1599 51.3402 21.7601 50.5793 21.3982 49.8274C21.0363 49.0755 20.6814 48.2997 20.1111 47.6878C19.5408 47.076 19.0074 46.7521 18.1739 46.8405Z" fill="black"/>
<path d="M21.7068 45.8895C23.3587 45.8895 24.6979 44.5553 24.6979 42.9096C24.6979 41.2638 23.3587 39.9297 21.7068 39.9297C20.0549 39.9297 18.7158 41.2638 18.7158 42.9096C18.7158 44.5553 20.0549 45.8895 21.7068 45.8895Z" fill="#EFB7B9"/>
<path d="M22.9036 51.4877L22.8966 51.5006C22.7242 51.8194 22.4659 52.0876 22.2885 52.4055C22.0891 52.7651 21.9963 53.1753 21.9166 53.5796C21.8614 53.8511 21.8106 54.1229 21.764 54.3951C21.7162 54.6712 21.6713 54.9473 21.6304 55.2255C20.7272 54.9205 19.7262 55.4321 18.791 55.2453C18.5108 55.1897 18.2426 55.0725 17.9575 55.0596C17.7491 55.0496 17.5397 55.0963 17.3313 55.0765C16.9854 55.0437 16.6424 54.8271 16.3124 54.9374C16.1648 54.9871 15.9824 55.0924 15.8767 54.9781C15.8529 54.9485 15.8347 54.9149 15.8229 54.8788C15.7371 54.6434 15.6494 54.3901 15.7112 54.1477C15.764 53.9411 15.9166 53.7772 16.0223 53.5915C16.2047 53.2687 16.2416 52.8862 16.2655 52.5157C16.3264 51.5582 16.3244 50.5937 16.4819 49.6471C16.6394 48.7005 16.9714 47.7598 17.6135 47.0407C17.9285 46.6891 18.3403 46.3901 18.8099 46.3514C20.5377 46.2123 21.9355 47.1619 22.6903 48.6697C23.1289 49.5438 23.3622 50.6225 22.9036 51.4877Z" fill="#FA4659"/>
<path d="M27.9606 50.5531C28.2238 50.3316 28.487 50.1091 28.7283 49.8647C29.0688 49.5052 29.3833 49.1222 29.6695 48.7185C29.9746 48.3043 30.2777 47.8801 30.4671 47.4014C30.6814 46.8531 30.7472 46.2293 31.1201 45.7744C31.1623 45.7152 31.2208 45.6697 31.2886 45.6432C31.501 45.5767 31.6595 45.8419 31.7004 46.0614C31.8998 47.1362 31.4242 48.2089 30.9616 49.2002C30.8091 49.527 30.6495 49.8628 30.3853 50.1101C30.2458 50.2402 30.0862 50.3405 29.9317 50.4567C29.6981 50.6459 29.4831 50.8568 29.2896 51.0865C28.9573 51.4626 28.6412 51.8523 28.3415 52.2556C27.9696 52.7522 27.6206 53.2727 27.1799 53.7108C26.7393 54.1488 26.1879 54.5054 25.5708 54.5918C25.7472 54.568 25.6894 53.536 25.6705 53.4058C25.6436 53.2171 25.5139 52.9946 25.51 52.8099C25.505 52.5834 25.5977 52.5506 25.7851 52.3917L27.9606 50.5531Z" fill="#EFB7B9"/>
<path opacity="0.1" d="M22.6039 51.585L22.5969 51.5979C22.4244 51.9168 22.1662 52.1849 21.9887 52.5028C21.7893 52.8624 21.6966 53.2726 21.6168 53.6769C21.5617 53.9484 21.5108 54.2202 21.4643 54.4924C21.1063 54.2878 20.7601 54.0633 20.4274 53.8199C19.7126 53.2726 19.1592 52.5465 18.6448 51.8085C18.246 51.2433 17.8671 50.6503 17.7046 49.9818C17.5421 49.3133 17.6368 48.5445 18.1034 48.0399C18.3016 47.8172 18.5731 47.6724 18.8691 47.6317C19.7026 47.5433 20.229 47.8641 20.7993 48.475C21.3696 49.0859 21.7225 49.8656 22.0864 50.6145C22.248 50.9393 22.4135 51.2721 22.6039 51.585Z" fill="black"/>
<path d="M19.3702 47.237C19.0743 47.2773 18.8027 47.4218 18.6045 47.6443C18.1339 48.1489 18.0402 48.9167 18.2057 49.5862C18.3712 50.2557 18.751 50.8487 19.1459 51.4139C19.6603 52.1509 20.2136 52.877 20.9285 53.4243C21.3152 53.7033 21.7166 53.9616 22.1309 54.1981C22.8194 54.6206 23.481 55.085 24.112 55.5887C24.2503 55.7135 24.4087 55.8142 24.5806 55.8867C24.7285 55.9329 24.8833 55.953 25.0382 55.9463C25.5616 55.9406 26.0775 55.821 26.5497 55.5957C26.5939 55.5786 26.633 55.5506 26.6633 55.5142C26.6809 55.4762 26.6905 55.4349 26.6913 55.3931C26.6922 55.3512 26.6843 55.3096 26.6683 55.2709C26.3871 54.1385 26.9295 52.8542 26.3911 51.8191C25.8059 52.0089 25.1638 52.2165 24.5786 52.4012C24.4888 52.4375 24.3922 52.4538 24.2954 52.4489C24.1795 52.4249 24.0733 52.3672 23.9903 52.283C23.3562 51.7367 22.9564 50.9758 22.5945 50.2239C22.2326 49.472 21.8777 48.6962 21.3074 48.0843C20.7371 47.4724 20.2037 47.1486 19.3702 47.237Z" fill="#FA4659"/>
<path d="M23.6412 40.8294C23.9313 40.5007 23.8695 39.9702 23.6163 39.6127C23.363 39.2551 22.9642 39.0306 22.5764 38.826C21.9592 38.4992 21.2494 38.1833 20.5824 38.3989C20.3221 38.4833 20.0948 38.6432 19.8555 38.7763C19.4149 39.0207 18.9293 39.1736 18.4807 39.4021C18.032 39.6305 17.6033 39.9563 17.4099 40.4202C17.2165 40.8841 17.2803 41.3837 17.3301 41.8714C17.4059 42.6263 17.4498 43.3921 17.3441 44.1441C17.2384 44.896 16.9762 45.64 16.4946 46.23C16.1576 46.6432 15.711 46.9869 15.5086 47.4796C15.409 47.7632 15.3532 48.0603 15.3431 48.3606L15.2344 49.641C15.1915 50.1515 15.1267 50.7098 14.7568 51.0654C15.2314 50.9561 15.719 50.8409 16.1197 50.5687C16.358 50.3913 16.5751 50.1873 16.7668 49.9608C17.1457 49.5446 17.5395 49.1006 17.6531 48.5503C17.7379 48.1391 17.6671 47.6723 17.9184 47.3355C18.2175 46.9382 18.8426 46.9382 19.2623 47.1975C19.6821 47.4567 19.9383 47.9116 20.1596 48.3507C20.381 48.7897 20.6103 49.2516 20.9971 49.5595C21.3147 49.7994 21.6877 49.9559 22.0819 50.0144C22.3471 50.0631 22.6482 50.077 22.8575 49.9082C23.1437 49.6777 23.1148 49.2387 23.022 48.8841C22.8994 48.4142 22.709 47.9246 22.8416 47.4567C22.8855 47.3008 22.9642 47.1587 23.0131 47.0018C23.0714 46.7774 23.0986 46.5461 23.0938 46.3144C23.1217 45.1493 23.1746 43.8948 22.7947 42.7743C22.6731 42.4157 22.3471 42.074 22.5146 41.6817C22.7229 41.2059 23.3241 41.189 23.6412 40.8294Z" fill="#9996A3"/>
<g opacity="0.1">
<path opacity="0.1" d="M17.4008 42.8223C17.4168 42.2727 17.3938 41.7227 17.332 41.1764C17.321 41.0691 17.3091 40.9608 17.3001 40.8516C17.2725 41.1917 17.2832 41.5339 17.332 41.8717C17.3639 42.1875 17.3888 42.5054 17.4008 42.8223Z" fill="black"/>
<path opacity="0.1" d="M22.8575 49.2146C22.6482 49.3834 22.3471 49.3695 22.0819 49.3208C21.6877 49.2623 21.3147 49.1058 20.9971 48.8659C20.6133 48.554 20.3909 48.0931 20.1656 47.6531C19.9403 47.2131 19.6841 46.7592 19.2683 46.4999C18.8526 46.2407 18.2175 46.2416 17.9184 46.638C17.6671 46.9747 17.7379 47.4415 17.6532 47.8528C17.5395 48.403 17.1457 48.846 16.7668 49.2632C16.5751 49.4898 16.358 49.6937 16.1198 49.8711C15.8226 50.0607 15.4947 50.1975 15.1507 50.2754C15.103 50.5738 14.9657 50.8509 14.7568 51.07C15.2314 50.9608 15.719 50.8455 16.1198 50.5734C16.358 50.396 16.5751 50.192 16.7668 49.9655C17.1457 49.5493 17.5395 49.1053 17.6532 48.555C17.7379 48.1438 17.6671 47.6769 17.9184 47.3402C18.2175 46.9429 18.8426 46.9429 19.2623 47.2022C19.6821 47.4614 19.9383 47.9163 20.1596 48.3554C20.381 48.7944 20.6103 49.2533 20.9971 49.5612C21.3147 49.8011 21.6877 49.9576 22.0819 50.0161C22.3471 50.0648 22.6482 50.0787 22.8575 49.9099C23.1257 49.6943 23.1168 49.294 23.038 48.9533C23.0043 49.0559 22.9416 49.1465 22.8575 49.2146V49.2146Z" fill="black"/>
<path opacity="0.1" d="M23.6413 40.1345C23.3243 40.4941 22.7231 40.512 22.5167 40.9907C22.4259 41.2003 22.4798 41.397 22.5675 41.5867C22.8088 41.2003 23.3472 41.1606 23.6413 40.8268C23.8557 40.5835 23.8776 40.2309 23.7719 39.918C23.7413 39.9972 23.6971 40.0704 23.6413 40.1345V40.1345Z" fill="black"/>
<path opacity="0.1" d="M23.0937 45.6196C23.0985 45.8513 23.0713 46.0826 23.013 46.307C22.9641 46.4619 22.8853 46.605 22.8415 46.7619C22.7846 46.9973 22.7846 47.2427 22.8415 47.4781C22.8415 47.4711 22.8415 47.4642 22.8415 47.4572C22.8853 47.3013 22.9641 47.1592 23.013 47.0023C23.0713 46.7779 23.0985 46.5466 23.0937 46.3149C23.1047 45.851 23.1196 45.3743 23.1097 44.8965C23.1027 45.1398 23.1027 45.3782 23.0937 45.6196Z" fill="black"/>
</g>
</g>
<defs>
<clipPath id="clip0">
<rect width="115" height="84" fill="white"/>
</clipPath>
</defs>
</svg>
