<svg width="10" height="10" viewBox="0 0 10 10" fill="none" xmlns="http://www.w3.org/2000/svg">
<path d="M4.7139 0C2.11091 0 0 2.11916 0 4.73334C0 6.82422 1.3507 8.59804 3.22471 9.22448C3.46043 9.26809 3.54647 9.12194 3.54647 8.99642C3.54647 8.88386 3.54235 8.58626 3.53999 8.19142C2.22877 8.47723 1.9518 7.55673 1.9518 7.55673C1.73788 7.00985 1.42849 6.86429 1.42849 6.86429C1.00006 6.57081 1.46031 6.57671 1.46031 6.57671C1.93353 6.6103 2.18222 7.06466 2.18222 7.06466C2.60299 7.78774 3.286 7.57912 3.55472 7.45773C3.59715 7.15187 3.71914 6.94326 3.85409 6.82481C2.80748 6.70518 1.70664 6.29914 1.70664 4.48583C1.70664 3.96901 1.89051 3.54647 2.19224 3.21528C2.14332 3.09565 1.98185 2.61418 2.2382 1.96299C2.2382 1.96299 2.63422 1.8357 3.53469 2.448C3.91067 2.3431 4.31375 2.29065 4.71508 2.28888C5.11522 2.29124 5.51889 2.3431 5.89546 2.44859C6.79534 1.83629 7.19077 1.96358 7.19077 1.96358C7.44771 2.61536 7.28624 3.09624 7.23791 3.21587C7.54023 3.54706 7.72233 3.9696 7.72233 4.48642C7.72233 6.30445 6.62032 6.70459 5.57016 6.82186C5.7393 6.96801 5.89016 7.25677 5.89016 7.69816C5.89016 8.33108 5.88427 8.84143 5.88427 8.99642C5.88427 9.12312 5.96913 9.27045 6.20839 9.22389C8.07945 8.59686 9.42897 6.82363 9.42897 4.73334C9.42897 2.11916 7.31806 0 4.7139 0Z" fill="black" fill-opacity="0.6"/>
</svg>
