<svg width="10" height="10" viewBox="0 0 10 10" fill="none" xmlns="http://www.w3.org/2000/svg">
<path d="M6.48242 0H2.94655C1.31947 0 0 1.31947 0 2.94655V6.48242C0 8.1095 1.31947 9.42897 2.94655 9.42897H6.48242C8.1095 9.42897 9.42897 8.1095 9.42897 6.48242V2.94655C9.42897 1.31947 8.1095 0 6.48242 0ZM8.545 6.48242C8.545 7.61979 7.61979 8.545 6.48242 8.545H2.94655C1.80918 8.545 0.883966 7.61979 0.883966 6.48242V2.94655C0.883966 1.80918 1.80918 0.883966 2.94655 0.883966H6.48242C7.61979 0.883966 8.545 1.80918 8.545 2.94655V6.48242Z" fill="black" fill-opacity="0.6"/>
</svg>
