<svg width="16" height="16" viewBox="0 0 16 16" fill="none" xmlns="http://www.w3.org/2000/svg">
<path d="M10.646 0H4.83911C2.16695 0 0 2.16695 0 4.83911V10.646C0 13.3182 2.16695 15.4851 4.83911 15.4851H10.646C13.3182 15.4851 15.4851 13.3182 15.4851 10.646V4.83911C15.4851 2.16695 13.3182 0 10.646 0ZM14.0334 10.646C14.0334 12.5139 12.5139 14.0334 10.646 14.0334H4.83911C2.97121 14.0334 1.45173 12.5139 1.45173 10.646V4.83911C1.45173 2.97121 2.97121 1.45173 4.83911 1.45173H10.646C12.5139 1.45173 14.0334 2.97121 14.0334 4.83911V10.646Z" fill="black" fill-opacity="0.6"/>
<path d="M7.74287 3.87117C5.60495 3.87117 3.87158 5.60454 3.87158 7.74246C3.87158 9.88037 5.60495 11.6137 7.74287 11.6137C9.88078 11.6137 11.6142 9.88037 11.6142 7.74246C11.6142 5.60454 9.88078 3.87117 7.74287 3.87117ZM7.74287 10.162C6.40921 10.162 5.32331 9.07611 5.32331 7.74246C5.32331 6.40783 6.40921 5.3229 7.74287 5.3229C9.07652 5.3229 10.1624 6.40783 10.1624 7.74246C10.1624 9.07611 9.07652 10.162 7.74287 10.162Z" fill="black" fill-opacity="0.6"/>
<path d="M11.9043 4.09676C12.1892 4.09676 12.4201 3.86581 12.4201 3.58091C12.4201 3.29602 12.1892 3.06506 11.9043 3.06506C11.6194 3.06506 11.3884 3.29602 11.3884 3.58091C11.3884 3.86581 11.6194 4.09676 11.9043 4.09676Z" fill="black" fill-opacity="0.6"/>
</svg>

