<svg width="137" height="28" viewBox="0 0 137 28" fill="none" xmlns="http://www.w3.org/2000/svg">
<path d="M16.0381 17.632C15.7341 18.656 15.2541 19.512 14.5981 20.2C13.9421 20.888 13.1661 21.4 12.2701 21.736C11.3741 22.072 10.3901 22.24 9.31806 22.24C7.75006 22.24 6.39006 21.912 5.23806 21.256C4.10206 20.6 3.22206 19.664 2.59806 18.448C1.99006 17.232 1.68606 15.776 1.68606 14.08C1.68606 12.384 1.99006 10.928 2.59806 9.712C3.22206 8.496 4.10206 7.56 5.23806 6.904C6.39006 6.248 7.73406 5.92 9.27006 5.92C10.3581 5.92 11.3421 6.072 12.2221 6.376C13.1021 6.664 13.8461 7.12 14.4541 7.744C15.0781 8.352 15.5341 9.112 15.8221 10.024L12.8221 11.296C12.5501 10.336 12.1341 9.656 11.5741 9.256C11.0141 8.84 10.2941 8.632 9.41406 8.632C8.55006 8.632 7.79006 8.84 7.13406 9.256C6.49406 9.672 5.99806 10.288 5.64606 11.104C5.29406 11.904 5.11806 12.896 5.11806 14.08C5.11806 15.248 5.27806 16.24 5.59806 17.056C5.93406 17.872 6.42206 18.488 7.06206 18.904C7.70206 19.32 8.48606 19.528 9.41406 19.528C10.2781 19.528 11.0221 19.296 11.6461 18.832C12.2861 18.368 12.7341 17.664 12.9901 16.72L16.0381 17.632ZM20.1809 8.272C19.4929 8.272 18.9809 8.128 18.6449 7.84C18.3089 7.536 18.1409 7.096 18.1409 6.52C18.1409 5.928 18.3089 5.488 18.6449 5.2C18.9809 4.896 19.4929 4.744 20.1809 4.744C20.8689 4.744 21.3809 4.896 21.7169 5.2C22.0529 5.488 22.2209 5.928 22.2209 6.52C22.2209 7.096 22.0529 7.536 21.7169 7.84C21.3809 8.128 20.8689 8.272 20.1809 8.272ZM21.8129 10V22H18.5249V10H21.8129ZM29.5463 6.328V18.088C29.5463 18.664 29.6903 19.088 29.9783 19.36C30.2823 19.616 30.6903 19.744 31.2023 19.744C31.6183 19.744 31.9703 19.688 32.2583 19.576C32.5623 19.448 32.8343 19.28 33.0743 19.072L33.6023 21.256C33.2183 21.56 32.7383 21.8 32.1623 21.976C31.5863 22.152 30.9783 22.24 30.3383 22.24C29.5383 22.24 28.8263 22.12 28.2023 21.88C27.5943 21.64 27.1143 21.256 26.7623 20.728C26.4263 20.2 26.2583 19.496 26.2583 18.616V7.24L29.5463 6.328ZM33.3863 10V12.448H24.0503V10H33.3863ZM37.2668 8.272C36.5788 8.272 36.0668 8.128 35.7308 7.84C35.3948 7.536 35.2268 7.096 35.2268 6.52C35.2268 5.928 35.3948 5.488 35.7308 5.2C36.0668 4.896 36.5788 4.744 37.2668 4.744C37.9548 4.744 38.4668 4.896 38.8028 5.2C39.1388 5.488 39.3068 5.928 39.3068 6.52C39.3068 7.096 39.1388 7.536 38.8028 7.84C38.4668 8.128 37.9548 8.272 37.2668 8.272ZM38.8988 10V22H35.6108V10H38.8988ZM41.6883 22V19.888L47.0163 13.744L48.3843 12.376L46.3923 12.424H41.7363V10H52.0323V12.112L46.7283 18.232L45.3603 19.624L47.5443 19.576H52.2243V22H41.6883ZM60.3976 22.24C59.1336 22.24 58.0296 21.992 57.0856 21.496C56.1576 21 55.4376 20.288 54.9256 19.36C54.4136 18.432 54.1576 17.312 54.1576 16C54.1576 14.688 54.4136 13.568 54.9256 12.64C55.4376 11.712 56.1496 11 57.0616 10.504C57.9896 10.008 59.0456 9.76 60.2296 9.76C61.4456 9.76 62.4776 10.008 63.3256 10.504C64.1736 10.984 64.8216 11.648 65.2696 12.496C65.7176 13.328 65.9416 14.28 65.9416 15.352C65.9416 15.672 65.9336 15.976 65.9176 16.264C65.9016 16.552 65.8776 16.808 65.8456 17.032H56.2696V14.752H64.4056L62.8216 15.328C62.8216 14.32 62.5896 13.544 62.1256 13C61.6776 12.456 61.0376 12.184 60.2056 12.184C59.5976 12.184 59.0696 12.328 58.6216 12.616C58.1896 12.904 57.8616 13.336 57.6376 13.912C57.4136 14.472 57.3016 15.184 57.3016 16.048C57.3016 16.896 57.4216 17.6 57.6616 18.16C57.9176 18.704 58.2696 19.112 58.7176 19.384C59.1816 19.656 59.7336 19.792 60.3736 19.792C61.0776 19.792 61.6456 19.656 62.0776 19.384C62.5096 19.112 62.8456 18.736 63.0856 18.256L65.7016 19.264C65.4456 19.888 65.0536 20.424 64.5256 20.872C64.0136 21.32 63.3976 21.664 62.6776 21.904C61.9736 22.128 61.2136 22.24 60.3976 22.24ZM68.728 22V10H71.68L71.872 13.6L71.464 13.216C71.656 12.432 71.96 11.792 72.376 11.296C72.792 10.784 73.296 10.4 73.888 10.144C74.496 9.888 75.16 9.76 75.88 9.76C76.712 9.76 77.448 9.92 78.088 10.24C78.744 10.56 79.256 11.048 79.624 11.704C80.008 12.344 80.2 13.152 80.2 14.128V22H76.912V15.064C76.912 14.04 76.712 13.336 76.312 12.952C75.912 12.552 75.392 12.352 74.752 12.352C74.304 12.352 73.864 12.464 73.432 12.688C73.016 12.896 72.672 13.24 72.4 13.72C72.144 14.2 72.016 14.84 72.016 15.64V22H68.728ZM87.1651 19.336H95.5171V22H83.8531V6.16H87.1651V19.336ZM119.327 10H122.735L118.175 22H114.383L109.823 10H113.351L116.303 19.48L119.327 10ZM129.984 22.24C128.72 22.24 127.616 21.992 126.672 21.496C125.744 21 125.024 20.288 124.512 19.36C124 18.432 123.744 17.312 123.744 16C123.744 14.688 124 13.568 124.512 12.64C125.024 11.712 125.736 11 126.648 10.504C127.576 10.008 128.632 9.76 129.816 9.76C131.032 9.76 132.064 10.008 132.912 10.504C133.76 10.984 134.408 11.648 134.856 12.496C135.304 13.328 135.528 14.28 135.528 15.352C135.528 15.672 135.52 15.976 135.504 16.264C135.488 16.552 135.464 16.808 135.432 17.032H125.855V14.752H133.992L132.408 15.328C132.408 14.32 132.176 13.544 131.712 13C131.264 12.456 130.624 12.184 129.792 12.184C129.184 12.184 128.656 12.328 128.208 12.616C127.776 12.904 127.448 13.336 127.224 13.912C127 14.472 126.888 15.184 126.888 16.048C126.888 16.896 127.008 17.6 127.248 18.16C127.504 18.704 127.856 19.112 128.304 19.384C128.768 19.656 129.32 19.792 129.96 19.792C130.664 19.792 131.232 19.656 131.664 19.384C132.096 19.112 132.432 18.736 132.672 18.256L135.288 19.264C135.032 19.888 134.64 20.424 134.112 20.872C133.6 21.32 132.984 21.664 132.264 21.904C131.56 22.128 130.8 22.24 129.984 22.24Z" fill="white"/>
<path d="M107.975 17.0155L108.01 16.9982L108.039 16.9682C109.66 15.3122 109.66 12.6417 108.004 10.9859C106.502 9.48447 104.149 9.35426 102.498 10.5778C100.846 9.35426 98.4935 9.48447 96.9921 10.9859C95.336 12.642 95.336 15.314 96.9921 16.9701L96.9928 16.9708C96.9959 16.9739 97.0037 16.9817 97.0116 16.9888C97.02 16.9965 97.039 17.013 97.0666 17.0278L102.036 21.9975C102.175 22.1365 102.344 22.188 102.515 22.188C102.686 22.188 102.854 22.1365 102.993 21.9975L107.97 17.0204C107.972 17.0182 107.974 17.0167 107.975 17.0155ZM102.498 20.579L97.9322 16.0133L97.9322 16.0133L97.9166 15.9977C97.9164 15.9975 97.9162 15.9973 97.916 15.9971C96.8063 14.8713 96.8065 13.0517 97.9322 11.926C99.0579 10.8003 100.878 10.8 102.003 11.9098C102.004 11.91 102.004 11.9102 102.004 11.9104L102.019 11.926C102.019 11.926 102.019 11.926 102.019 11.926C102.158 12.0649 102.327 12.1165 102.498 12.1165C102.647 12.1165 102.834 12.068 102.976 11.926C102.976 11.926 102.976 11.926 102.976 11.926L102.992 11.9104C102.992 11.9102 102.992 11.91 102.992 11.9098C104.118 10.8 105.938 10.8003 107.064 11.926C108.169 13.0313 108.189 14.8413 107.109 15.9674C107.096 15.9763 107.065 15.9988 107.038 16.0367C107.037 16.0385 107.036 16.0403 107.035 16.042L102.498 20.579Z" fill="white" stroke="white" stroke-width="0.5"/>
</svg>
