<svg width="10" height="8" viewBox="0 0 10 8" fill="none" xmlns="http://www.w3.org/2000/svg">
<path d="M9.42897 0.906949C9.07833 1.06076 8.70471 1.16271 8.31517 1.21221C8.71591 0.972952 9.02176 0.596972 9.16555 0.143792C8.79193 0.366551 8.37941 0.523897 7.93978 0.611705C7.58502 0.233956 7.07939 0 6.52779 0C5.45761 0 4.59603 0.868644 4.59603 1.93353C4.59603 2.08675 4.609 2.23408 4.64082 2.37433C3.03377 2.29595 1.61176 1.52573 0.656492 0.352408C0.489717 0.641759 0.391892 0.972952 0.391892 1.32948C0.391892 1.99894 0.736638 2.59238 1.25052 2.93595C0.939951 2.93005 0.635277 2.83989 0.377159 2.69786C0.377159 2.70376 0.377159 2.71142 0.377159 2.71908C0.377159 3.65844 1.0472 4.43869 1.92587 4.61843C1.76852 4.66145 1.59703 4.68207 1.41906 4.68207C1.2953 4.68207 1.17037 4.675 1.0531 4.64907C1.30356 5.41459 2.01426 5.97738 2.85934 5.99565C2.20166 6.51011 1.36661 6.82009 0.462609 6.82009C0.304084 6.82009 0.152042 6.81302 0 6.79357C0.856268 7.34576 1.87106 7.66104 2.96541 7.66104C6.52249 7.66104 8.46722 4.71449 8.46722 2.16041C8.46722 2.07496 8.46427 1.99246 8.46014 1.91055C8.84379 1.63828 9.16614 1.29825 9.42897 0.906949Z" fill="black" fill-opacity="0.6"/>
</svg>
